SplineFontDB: 3.0
FontName: Viga-Regular
FullName: Viga Regular
FamilyName: Viga
Weight: Regular
Copyright: Copyright (c) 2011 Fontstage (info@fontstage.com), with Reserved Font Name "Viga"
Version: 001.001
ItalicAngle: 0
UnderlinePosition: -49
UnderlineWidth: 87
Ascent: 800
Descent: 200
sfntRevision: 0x00010042
LayerCount: 2
Layer: 0 1 "Back"  1
Layer: 1 1 "Fore"  0
NeedsXUIDChange: 1
XUID: [1021 288 713564382 15137510]
FSType: 0
OS2Version: 2
OS2_WeightWidthSlopeOnly: 0
OS2_UseTypoMetrics: 1
CreationTime: 1323105077
ModificationTime: 1323201671
PfmFamily: 17
TTFWeight: 400
TTFWidth: 5
LineGap: 0
VLineGap: 0
Panose: 2 11 8 0 3 0 0 2 0 4
OS2TypoAscent: 215
OS2TypoAOffset: 1
OS2TypoDescent: -129
OS2TypoDOffset: 1
OS2TypoLinegap: 0
OS2WinAscent: 0
OS2WinAOffset: 1
OS2WinDescent: 0
OS2WinDOffset: 1
HheadAscent: 0
HheadAOffset: 1
HheadDescent: 0
HheadDOffset: 1
OS2SubXSize: 700
OS2SubYSize: 650
OS2SubXOff: 0
OS2SubYOff: 140
OS2SupXSize: 700
OS2SupYSize: 650
OS2SupXOff: 0
OS2SupYOff: 477
OS2StrikeYSize: 50
OS2StrikeYPos: 250
OS2FamilyClass: 2053
OS2Vendor: 'PYRS'
OS2CodePages: 20000001.00000000
OS2UnicodeRanges: 800000ef.4000204a.00000000.00000000
MarkAttachClasses: 1
DEI: 91125
TtTable: prep
PUSHW_1
 511
SCANCTRL
PUSHB_1
 4
SCANTYPE
EndTTInstrs
LangName: 1033 "" "" "" "Fontstage: Viga: 2011" "Viga-Regular" "Version 1.001" "" "Viga is a trademark of Fontstage." "Fontstage" "Oscar Y+AOEA8QAA-ez" "" "www.fontstage.com" "www.fontstage.com" "This Font Software is licensed under the SIL Open Font License, Version 1.1. This license is available with a FAQ at: http://scripts.sil.org/OFL" "http://scripts.sil.org/OFL" 
GaspTable: 1 65535 15
Encoding: UnicodeBmp
UnicodeInterp: none
NameList: Adobe Glyph List
DisplaySize: -36
AntiAlias: 1
FitToEm: 1
WinInfo: 34 34 12
BeginPrivate: 8
BlueValues 22 [-6 0 571 579 712 718]
OtherBlues 11 [-170 -170]
BlueScale 8 0.363636
StdHW 5 [124]
StdVW 5 [130]
StemSnapH 20 [87 124 134 154 163]
StemSnapV 13 [118 130 139]
ForceBold 4 true
EndPrivate

StartChar: .notdef
Encoding: 65536 -1 0
Width: 483
Flags: HMW
HStem: 1 21G<61 61 61 419> 692 20G<61 419 419 419>
LayerCount: 2
Fore
SplineSet
61 1 m 1,0,-1
 61 712 l 1,1,-1
 419 712 l 1,2,-1
 419 1 l 1,3,-1
 61 1 l 1,0,-1
EndSplineSet
EndChar

StartChar: A
Encoding: 65 65 1
Width: 638
Flags: HMW
HStem: 0 21G<15 160 15 15 478 623 478 478> 123 117<234 406 234 438 199 406> 692 20G<305 338>
LayerCount: 2
Fore
SplineSet
623 0 m 1,0,-1
 478 0 l 1,1,-1
 438 123 l 1,2,-1
 199 123 l 1,3,-1
 160 0 l 1,4,-1
 15 0 l 1,5,-1
 243 652 l 1,6,7
 258 686 258 686 276.5 699 c 128,-1,8
 295 712 295 712 322 712 c 128,-1,9
 349 712 349 712 365.5 700 c 128,-1,10
 382 688 382 688 395 652 c 2,11,-1
 623 0 l 1,0,-1
406 240 m 1,12,-1
 322 522 l 1,13,-1
 234 240 l 1,14,-1
 406 240 l 1,12,-1
EndSplineSet
EndChar

StartChar: B
Encoding: 66 66 2
Width: 658
Flags: HMW
HStem: 0 124<222 382 310 382 382 396> 309 125<222 373 373 382 222 373> 588 124<222 373 222 222>
VStem: 83 139<183 197 197 309 434 588> 450 139<490 534>
LayerCount: 2
Fore
SplineSet
599 205 m 0,0,1
 599 106 599 106 545.5 53 c 128,-1,2
 492 0 492 0 396 0 c 2,3,-1
 300 0 l 2,4,5
 182 0 182 0 132.5 41 c 128,-1,6
 83 82 83 82 83 183 c 2,7,-1
 83 712 l 1,8,-1
 384 712 l 2,9,10
 486 712 486 712 537.5 661 c 128,-1,11
 589 610 589 610 589 517 c 0,12,13
 589 463 589 463 561.5 425 c 128,-1,14
 534 387 534 387 501 371 c 1,15,16
 599 325 599 325 599 205 c 0,0,1
373 434 m 2,17,18
 450 434 450 434 450 511 c 128,-1,19
 450 588 450 588 373 588 c 2,20,-1
 222 588 l 1,21,-1
 222 434 l 1,22,-1
 373 434 l 2,17,18
460 212 m 0,23,24
 460 260 460 260 443 284.5 c 128,-1,25
 426 309 426 309 382 309 c 2,26,-1
 222 309 l 1,27,-1
 222 197 l 2,28,29
 222 156 222 156 242.5 140 c 128,-1,30
 263 124 263 124 310 124 c 2,31,-1
 382 124 l 2,32,33
 460 124 460 124 460 212 c 0,23,24
EndSplineSet
EndChar

StartChar: C
Encoding: 67 67 3
Width: 607
Flags: HMW
HStem: -6 124<249 362.5 249 394> 475 243<204 569 204 439> 594 124<247 354.5>
VStem: 39 139<315 317 317 375 375 379 269 471.5>
LayerCount: 2
Fore
SplineSet
443 276 m 1,0,-1
 572 276 l 1,1,2
 572 140 572 140 504 67 c 128,-1,3
 436 -6 436 -6 312 -6 c 0,4,5
 39 -6 39 -6 39 315 c 2,6,-1
 39 375 l 2,7,8
 39 627.590909091 39 627.590909091 179 692.5 c 0,9,10
 234 718 234 718 312 718 c 0,11,12
 426 718 426 718 497.5 655.5 c 128,-1,13
 569 593 569 593 569 475 c 1,14,-1
 439 475 l 1,15,16
 428 534 428 534 400 564 c 128,-1,17
 372 594 372 594 312 594 c 0,18,19
 242.057142857 594 242.057142857 594 208.5 550.5 c 0,20,21
 184.186397985 518.982367758 184.186397985 518.982367758 179.5 444 c 0,22,23
 178 420 178 420 178 379 c 2,24,-1
 178 317 l 2,25,26
 178 201.62962963 178 201.62962963 210.5 159.5 c 0,27,28
 242.514285714 118 242.514285714 118 312.257142857 118 c 128,-1,29
 382 118 382 118 408.5 156.5 c 128,-1,30
 435 195 435 195 443 276 c 1,0,-1
EndSplineSet
EndChar

StartChar: D
Encoding: 68 68 4
Width: 659
Flags: HMW
HStem: 0 124<299.5 371 299.5 387> 588 124<222 347 222 222>
VStem: 83 139<187 194 194 588> 481 139<359 359 359 413>
LayerCount: 2
Fore
SplineSet
620 359 m 1,0,-1
 621 282 l 1,1,2
 617 209 617 209 603 159 c 128,-1,3
 589 109 589 109 548 68 c 0,4,5
 480 0 480 0 350 0 c 0,6,7
 197 0 197 0 140 40.5 c 128,-1,8
 83 81 83 81 83 187 c 2,9,-1
 83 712 l 1,10,-1
 360 712 l 2,11,12
 480 712 480 712 548 644 c 0,13,14
 603.142857143 588.857142857 603.142857143 588.857142857 613 510 c 0,15,16
 620 454 620 454 620 359 c 1,0,-1
475.5 231.5 m 128,-1,18
 481 272 481 272 481 358 c 128,-1,19
 481 444 481 444 475.5 482.5 c 128,-1,20
 470 521 470 521 451 544 c 0,21,22
 415 588 415 588 347 588 c 2,23,-1
 222 588 l 1,24,-1
 222 194 l 2,25,26
 222 154 222 154 249 139 c 128,-1,27
 276 124 276 124 345.5 124 c 128,-1,28
 415 124 415 124 451 168 c 0,29,17
 470 191 470 191 475.5 231.5 c 128,-1,18
EndSplineSet
EndChar

StartChar: E
Encoding: 69 69 5
Width: 605
Flags: HMW
HStem: 0 124<220.5 552 310 552 310 552> 297 124<222 443 222 453> 588 124<222 552 222 222>
VStem: 83 139<188 198 198 297 421 588>
LayerCount: 2
Fore
SplineSet
552 0 m 1,0,-1
 300 0 l 2,1,2
 180 0 180 0 131.5 41.5 c 128,-1,3
 83 83 83 83 83 188 c 2,4,-1
 83 712 l 1,5,-1
 552 712 l 1,6,-1
 552 588 l 1,7,-1
 222 588 l 1,8,-1
 222 421 l 1,9,-1
 453 421 l 1,10,-1
 443 297 l 1,11,-1
 222 297 l 1,12,-1
 222 198 l 2,13,14
 222 156 222 156 241 140 c 128,-1,15
 260 124 260 124 310 124 c 2,16,-1
 552 124 l 1,17,-1
 552 0 l 1,0,-1
EndSplineSet
EndChar

StartChar: F
Encoding: 70 70 6
Width: 590
Flags: HMW
HStem: 0 21G<83 222 83 83> 289 124<222 473 222 483> 588 124<271.5 301 301 552>
VStem: 83 139<0 289 413 512>
LayerCount: 2
Fore
SplineSet
552 588 m 1,0,-1
 301 588 l 2,1,2
 257 588 257 588 239.5 571 c 128,-1,3
 222 554 222 554 222 512 c 2,4,-1
 222 413 l 1,5,-1
 483 413 l 1,6,-1
 473 289 l 1,7,-1
 222 289 l 1,8,-1
 222 0 l 1,9,-1
 83 0 l 1,10,-1
 83 567 l 2,11,12
 83 646 83 646 117.5 679 c 128,-1,13
 152 712 152 712 236 712 c 2,14,-1
 552 712 l 1,15,-1
 552 588 l 1,0,-1
EndSplineSet
EndChar

StartChar: G
Encoding: 71 71 7
Width: 637
Flags: HMW
HStem: -6 124<259 359 259 379> 240 116<370 456 370 575> 475 243<229.5 576 229.5 446> 594 124<253 358>
VStem: 39 147<356 416 356 423 356 515.5> 370 205<240 356 141 356> 446 129<141 517>
LayerCount: 2
Fore
SplineSet
39 335 m 2,0,-1
 39 423 l 2,1,2
 39 562 39 562 112 640 c 128,-1,3
 185 718 185 718 314 718 c 128,-1,4
 443 718 443 718 521 640 c 0,5,6
 576 585 576 585 576 475 c 1,7,-1
 446 475 l 1,8,9
 446 594 446 594 319 594 c 0,10,11
 281 594 281 594 254.5 579.5 c 128,-1,12
 228 565 228 565 215 546 c 128,-1,13
 202 527 202 527 195 490 c 128,-1,14
 188 453 188 453 187 428 c 128,-1,15
 186 403 186 403 186 361 c 128,-1,16
 186 319 186 319 186.5 304.5 c 128,-1,17
 187 290 187 290 189.5 257.5 c 128,-1,18
 192 225 192 225 197.5 211 c 128,-1,19
 203 197 203 197 213.5 175 c 128,-1,20
 224 153 224 153 239.5 143.5 c 0,21,22
 281.105263158 118 281.105263158 118 333 118 c 0,23,24
 420 118 420 118 456 192 c 1,25,-1
 456 240 l 1,26,-1
 370 240 l 1,27,-1
 370 356 l 1,28,-1
 575 356 l 1,29,-1
 575 141 l 1,30,31
 544 68 544 68 477 31 c 128,-1,32
 410 -6 410 -6 325 -6 c 0,33,34
 174 -6 174 -6 106.5 78.5 c 128,-1,35
 39 163 39 163 39 335 c 2,0,-1
EndSplineSet
EndChar

StartChar: H
Encoding: 72 72 8
Width: 685
Flags: HMW
HStem: 0 21G<73 212 73 73 473 612 473 473> 288 123<212 473 212 473> 692 20G<73 212 212 212 473 612 612 612>
VStem: 73 139<0 288 0 411 411 712> 473 139<0 288 288 288 411 712>
LayerCount: 2
Fore
SplineSet
612 0 m 1,0,-1
 473 0 l 1,1,-1
 473 288 l 1,2,-1
 212 288 l 1,3,-1
 212 0 l 1,4,-1
 73 0 l 1,5,-1
 73 712 l 1,6,-1
 212 712 l 1,7,-1
 212 411 l 1,8,-1
 473 411 l 1,9,-1
 473 712 l 1,10,-1
 612 712 l 1,11,-1
 612 0 l 1,0,-1
EndSplineSet
EndChar

StartChar: I
Encoding: 73 73 9
Width: 305
Flags: HMW
HStem: 0 21G<83 222 83 83> 692 20G<83 222 222 222>
VStem: 83 139<0 712>
LayerCount: 2
Fore
SplineSet
222 0 m 1,0,-1
 83 0 l 1,1,-1
 83 712 l 1,2,-1
 222 712 l 1,3,-1
 222 0 l 1,0,-1
EndSplineSet
EndChar

StartChar: J
Encoding: 74 74 10
Width: 511
Flags: HMW
HStem: -6 124<183 240 183 286> 692 20G<308 447 447 447>
VStem: 308 139<220 254 254 712>
LayerCount: 2
Fore
SplineSet
447 712 m 1,0,-1
 447 254 l 2,1,2
 447 111 447 111 388 52.5 c 128,-1,3
 329 -6 329 -6 217 -6 c 0,4,5
 145 -6 145 -6 96.5 13 c 128,-1,6
 48 32 48 32 7 73 c 1,7,-1
 85 158 l 1,8,9
 102 141 102 141 136.5 129.5 c 128,-1,10
 171 118 171 118 215.5 118 c 0,11,12
 260 118 260 118 284 139.5 c 128,-1,13
 308 161 308 161 308 220 c 2,14,-1
 308 712 l 1,15,-1
 447 712 l 1,0,-1
EndSplineSet
EndChar

StartChar: K
Encoding: 75 75 11
Width: 665
Flags: HMW
HStem: 0 21G<83 222 83 83 487 649 487 487> 692 20G<83 222 222 222 491 631 631 631>
VStem: 83 139<0 139 314 712>
LayerCount: 2
Fore
SplineSet
404 377 m 1,0,-1
 649 0 l 1,1,-1
 487 0 l 1,2,-1
 319 269 l 1,3,-1
 222 139 l 1,4,-1
 222 0 l 1,5,-1
 83 0 l 1,6,-1
 83 712 l 1,7,-1
 222 712 l 1,8,-1
 222 314 l 1,9,-1
 491 712 l 1,10,-1
 631 712 l 1,11,-1
 404 377 l 1,0,-1
EndSplineSet
EndChar

StartChar: L
Encoding: 76 76 12
Width: 550
Flags: HMW
HStem: 0 124<230.5 522 310 522> 692 20G<83 222 222 222>
VStem: 83 139<198 712>
LayerCount: 2
Fore
SplineSet
522 0 m 1,0,-1
 310 0 l 2,1,2
 190 0 190 0 136.5 46.5 c 128,-1,3
 83 93 83 93 83 198 c 2,4,-1
 83 712 l 1,5,-1
 222 712 l 1,6,-1
 222 198 l 2,7,8
 222 156 222 156 241 140 c 128,-1,9
 260 124 260 124 310 124 c 2,10,-1
 522 124 l 1,11,-1
 522 0 l 1,0,-1
EndSplineSet
EndChar

StartChar: M
Encoding: 77 77 13
Width: 811
Flags: HMW
HStem: 0 21G<73 212 73 73 609 609 609 748> 692 20G<73 210 210 210 611 748 748 748>
VStem: 73 139<0 425 0 712> 609 139<0 425 425 425>
LayerCount: 2
Fore
SplineSet
609 425 m 1,0,-1
 481 155 l 1,1,2
 453 101 453 101 411.5 101 c 0,3,4
 370 101 370 101 342 158 c 2,5,-1
 212 425 l 1,6,-1
 212 0 l 1,7,-1
 73 0 l 1,8,-1
 73 712 l 1,9,-1
 210 712 l 1,10,-1
 411 301 l 1,11,-1
 611 712 l 1,12,-1
 748 712 l 1,13,-1
 748 0 l 1,14,-1
 609 0 l 1,15,-1
 609 425 l 1,0,-1
EndSplineSet
EndChar

StartChar: N
Encoding: 78 78 14
Width: 699
Flags: HMW
HStem: -20 20G<73 212 73 73> -8 21G<555.5 589> 692 20G<73 207 207 207 499 638 638 638>
VStem: 73 139<0 457 0 712> 499 139<246 712>
LayerCount: 2
Fore
SplineSet
638 712 m 1,0,-1
 638 72 l 2,1,2
 638 39 638 39 618 15.5 c 128,-1,3
 598 -8 598 -8 571 -8 c 0,4,5
 502 -8 502 -8 458 72 c 1,6,-1
 212 457 l 1,7,-1
 212 0 l 1,8,-1
 73 0 l 1,9,-1
 73 712 l 1,10,-1
 207 712 l 1,11,-1
 499 246 l 1,12,-1
 499 712 l 1,13,-1
 638 712 l 1,0,-1
EndSplineSet
EndChar

StartChar: O
Encoding: 79 79 15
Width: 644
Flags: HMW
HStem: -6 124<254.5 387.5 254.5 420.5> 594 124<257 386>
VStem: 39 139<338 375 338 390 338 498.5> 466 139<338 375 375 389 215 434.5>
LayerCount: 2
Fore
SplineSet
605 389 m 2,0,-1
 605 335 l 2,1,2
 605 156 605 156 537.5 75 c 128,-1,3
 470 -6 470 -6 321 -6 c 128,-1,4
 172 -6 172 -6 105.5 75 c 128,-1,5
 39 156 39 156 39 338 c 2,6,-1
 39 390 l 2,7,8
 39 556 39 556 106.5 637 c 128,-1,9
 174 718 174 718 320.5 718 c 128,-1,10
 467 718 467 718 536 636 c 128,-1,11
 605 554 605 554 605 389 c 2,0,-1
466 338 m 2,12,-1
 466 375 l 2,13,14
 466 471.428571429 466 471.428571429 442 528 c 0,15,16
 414 594 414 594 322 594 c 0,17,18
 229 594 229 594 201 528 c 0,19,20
 178 473.785714286 178 473.785714286 178 375 c 2,21,-1
 178 338 l 2,22,23
 178 208.793103448 178 208.793103448 213.5 163.5 c 0,24,25
 228 145 228 145 255.5 131.5 c 128,-1,26
 283 118 283 118 321.5 118 c 128,-1,27
 360 118 360 118 387 131 c 128,-1,28
 414 144 414 144 429 163 c 128,-1,29
 444 182 444 182 452.5 213 c 0,30,31
 466 262.235294118 466 262.235294118 466 338 c 2,12,-1
EndSplineSet
EndChar

StartChar: P
Encoding: 80 80 16
Width: 628
Flags: HMW
HStem: 0 21G<83 222 83 83> 228 125<222 352 352 359 222 352> 588 124<222 352 222 222>
VStem: 83 139<0 228 0 353 353 588> 455 139<426 514>
LayerCount: 2
Fore
SplineSet
594 470 m 128,-1,1
 594 351 594 351 532.5 289.5 c 128,-1,2
 471 228 471 228 359 228 c 2,3,-1
 222 228 l 1,4,-1
 222 0 l 1,5,-1
 83 0 l 1,6,-1
 83 712 l 1,7,-1
 359 712 l 2,8,9
 471 712 471 712 532.5 650.5 c 128,-1,0
 594 589 594 589 594 470 c 128,-1,1
455 470 m 0,10,11
 455 588 455 588 352 588 c 2,12,-1
 222 588 l 1,13,-1
 222 353 l 1,14,-1
 352 353 l 2,15,16
 402 353 402 353 428.5 380 c 128,-1,17
 455 407 455 407 455 470 c 0,10,11
EndSplineSet
EndChar

StartChar: Q
Encoding: 81 81 17
Width: 643
Flags: HMW
HStem: -6 124<281.5 322 322 392.5 249.5 622> 594 124<281.5 362.5 281.5 391>
VStem: 39 139<338 375 338 375 338 431.5> 466 139<341 376 284 389 284 441>
LayerCount: 2
Fore
SplineSet
605 376 m 2,0,-1
 605 335 l 2,1,2
 605 165 605 165 520 100 c 1,3,4
 575 103 575 103 622 117 c 1,5,-1
 622 -6 l 1,6,-1
 322 -6 l 2,7,8
 260 -6 260 -6 203 14.5 c 128,-1,9
 146 35 146 35 104.5 76.5 c 128,-1,10
 63 118 63 118 51 176 c 128,-1,11
 39 234 39 234 39 337 c 2,12,-1
 39 375 l 2,13,14
 39 478 39 478 51 536 c 128,-1,15
 63 594 63 594 104.5 635.5 c 128,-1,16
 146 677 146 677 203 697.5 c 128,-1,17
 260 718 260 718 322 718 c 128,-1,18
 384 718 384 718 440.5 697.5 c 128,-1,19
 497 677 497 677 539.5 634.5 c 128,-1,20
 582 592 582 592 593.5 537 c 128,-1,21
 605 482 605 482 605 376 c 2,0,-1
466 341 m 2,22,-1
 466 389 l 2,23,24
 466 513.724137931 466 513.724137931 432.5 553 c 0,25,26
 397.529411765 594 397.529411765 594 322 594 c 128,-1,27
 246.323529412 594 246.323529412 594 210.5 552 c 0,28,29
 183.995642702 520.925925926 183.995642702 520.925925926 179.5 444.5 c 0,30,31
 178 419 178 419 178 375 c 2,32,-1
 178 338 l 2,33,34
 178.975767222 231.641372767 178.975767222 231.641372767 193.689354808 192.850171394 c 0,35,36
 222.080188648 118 222.080188648 118 322 118 c 0,37,38
 408.837837838 118 408.837837838 118 437.5 168.5 c 0,39,40
 457.394736842 203.552631579 457.394736842 203.552631579 461.197368421 237.776315789 c 0,41,42
 466 281 466 281 466 341 c 2,22,-1
EndSplineSet
EndChar

StartChar: R
Encoding: 82 82 18
Width: 654
Flags: HMW
HStem: 0 21G<83 222 83 83 461 622 461 461> 264 116<222 322 222 353> 588 124<262 284 284 353>
VStem: 83 139<0 264 0 380 380 525> 454 139<456.5 516.5>
LayerCount: 2
Fore
SplineSet
622 0 m 1,0,-1
 461 0 l 1,1,-1
 322 264 l 1,2,-1
 222 264 l 1,3,-1
 222 0 l 1,4,-1
 83 0 l 1,5,-1
 83 559 l 2,6,7
 83 639 83 639 120 675.5 c 128,-1,8
 157 712 157 712 244 712 c 2,9,-1
 362 712 l 2,10,11
 468 712 468 712 530.5 647.5 c 128,-1,12
 593 583 593 583 593 484 c 0,13,14
 593 412 593 412 555.5 359.5 c 128,-1,15
 518 307 518 307 463 287 c 1,16,-1
 622 0 l 1,0,-1
425.5 410.5 m 128,-1,18
 454 441 454 441 454 486.5 c 128,-1,19
 454 532 454 532 426.5 560 c 128,-1,20
 399 588 399 588 353 588 c 2,21,-1
 284 588 l 2,22,23
 222 588 222 588 222 525 c 2,24,-1
 222 380 l 1,25,-1
 353 380 l 2,26,17
 397 380 397 380 425.5 410.5 c 128,-1,18
EndSplineSet
EndChar

StartChar: S
Encoding: 83 83 19
Width: 591
Flags: HMW
HStem: -6 124<269 343 269 374.5> 513 205 597 121<259 324.5>
VStem: 37 117 37 134<483.5 531.5 483.5 565.5> 427 136<177.5 231>
LayerCount: 2
Fore
SplineSet
563 210 m 0,0,1
 563 109 563 109 489 51.5 c 128,-1,2
 415 -6 415 -6 300 -6 c 0,3,4
 208.666666667 -6 208.666666667 -6 124.5 44.5 c 0,5,6
 82 70 82 70 55 117.5 c 128,-1,7
 28 165 28 165 28 226 c 1,8,-1
 154 232 l 1,9,10
 154 178 154 178 200 148 c 128,-1,11
 246 118 246 118 302 118 c 0,12,13
 427 118 427 118 427 206 c 0,14,15
 427 278 427 278 342 291 c 1,16,-1
 226 303 l 1,17,18
 139 316 139 316 88 365 c 128,-1,19
 37 414 37 414 37 506 c 128,-1,20
 37 598 37 598 110 658 c 128,-1,21
 183 718 183 718 294.5 718 c 128,-1,22
 406 718 406 718 474 661.5 c 128,-1,23
 542 605 542 605 542 516 c 1,24,-1
 418 510 l 1,25,26
 401 597 401 597 301 597 c 0,27,28
 240 597 240 597 205.5 571 c 128,-1,29
 171 545 171 545 171 509.5 c 128,-1,30
 171 474 171 474 196 453.5 c 128,-1,31
 221 433 221 433 258 428 c 1,32,-1
 372 416 l 1,33,34
 563 390 563 390 563 210 c 0,0,1
EndSplineSet
EndChar

StartChar: T
Encoding: 84 84 20
Width: 571
Flags: HMW
HStem: 0 21G<216 355 216 216> 588 124<26 216 26 546 355 546 355 355>
VStem: 216 139<0 588 0 588>
LayerCount: 2
Fore
SplineSet
546 588 m 1,0,-1
 355 588 l 1,1,-1
 355 0 l 1,2,-1
 216 0 l 1,3,-1
 216 588 l 1,4,-1
 26 588 l 1,5,-1
 26 712 l 1,6,-1
 546 712 l 1,7,-1
 546 588 l 1,0,-1
EndSplineSet
EndChar

StartChar: U
Encoding: 85 85 21
Width: 668
Flags: HMW
HStem: -6 124<296.5 371.5 296.5 407> 692 20G<62 201 201 201 468 606 606 606>
VStem: 62 139<244 249 249 712> 468 138<249 712>
LayerCount: 2
Fore
SplineSet
606 712 m 1,0,-1
 606 244 l 2,1,2
 606 128 606 128 527.5 61 c 128,-1,3
 449 -6 449 -6 334 -6 c 128,-1,4
 219 -6 219 -6 140.5 61 c 128,-1,5
 62 128 62 128 62 244 c 2,6,-1
 62 712 l 1,7,-1
 201 712 l 1,8,-1
 201 249 l 2,9,10
 201 183 201 183 237.5 150.5 c 128,-1,11
 274 118 274 118 334 118 c 128,-1,12
 394 118 394 118 431 150.5 c 128,-1,13
 468 183 468 183 468 249 c 2,14,-1
 468 712 l 1,15,-1
 606 712 l 1,0,-1
EndSplineSet
EndChar

StartChar: V
Encoding: 86 86 22
Width: 581
Flags: HMW
HStem: 692 20G<3 147 147 147 433 578 578 578>
LayerCount: 2
Fore
SplineSet
578 712 m 1,0,-1
 354 40 l 1,1,2
 336.193548387 -5.50537634409 336.193548387 -5.50537634409 290.007399699 -5.50537634409 c 0,3,4
 242.202150538 -5.50537634409 242.202150538 -5.50537634409 224 40 c 1,5,-1
 3 712 l 1,6,-1
 147 712 l 1,7,-1
 290 248 l 1,8,-1
 433 712 l 1,9,-1
 578 712 l 1,0,-1
EndSplineSet
EndChar

StartChar: W
Encoding: 87 87 23
Width: 887
Flags: HMW
HStem: 0 21G<196 312 196 196 574 690 574 574> 692 20G<6 151 151 151 736 881 881 881> 697 20G<422.5 467>
LayerCount: 2
Fore
SplineSet
881 712 m 1,0,-1
 690 0 l 1,1,-1
 574 0 l 1,2,-1
 443 432 l 1,3,-1
 312 0 l 1,4,-1
 196 0 l 1,5,-1
 6 712 l 1,6,-1
 151 712 l 1,7,-1
 261 263 l 1,8,-1
 370 634 l 1,9,10
 388 717 388 717 446 717 c 0,11,12
 475 717 475 717 490 695.5 c 128,-1,13
 505 674 505 674 517 634 c 2,14,-1
 625 263 l 1,15,-1
 736 712 l 1,16,-1
 881 712 l 1,0,-1
EndSplineSet
EndChar

StartChar: X
Encoding: 88 88 24
Width: 640
Flags: HMW
HStem: 0 21G<5 177 5 5 473 645 473 473> 692 20G<20 191 191 191 459 629 629 629>
LayerCount: 2
Fore
SplineSet
645 0 m 1,0,-1
 473 0 l 1,1,-1
 324 248 l 1,2,-1
 177 0 l 1,3,-1
 5 0 l 1,4,-1
 244 365 l 1,5,-1
 20 712 l 1,6,-1
 191 712 l 1,7,-1
 324 482 l 1,8,-1
 459 712 l 1,9,-1
 629 712 l 1,10,-1
 405 365 l 1,11,-1
 645 0 l 1,0,-1
EndSplineSet
EndChar

StartChar: Y
Encoding: 89 89 25
Width: 572
Flags: HMW
HStem: 0 21G<217 355 217 217> 692 20G<3 154 154 154 418 569 569 569>
VStem: 217 138<0 292 0 292>
LayerCount: 2
Fore
SplineSet
569 712 m 1,0,-1
 355 292 l 1,1,-1
 355 0 l 1,2,-1
 217 0 l 1,3,-1
 217 292 l 1,4,-1
 3 712 l 1,5,-1
 154 712 l 1,6,-1
 287 425 l 1,7,-1
 418 712 l 1,8,-1
 569 712 l 1,0,-1
EndSplineSet
EndChar

StartChar: Z
Encoding: 90 90 26
Width: 548
Flags: HMW
HStem: 0 124<107.5 508 183 508 183 508> 588 124<53 344 53 508>
LayerCount: 2
Fore
SplineSet
508 0 m 1,0,-1
 146 0 l 2,1,2
 91 0 91 0 62 26 c 128,-1,3
 33 52 33 52 33 94 c 0,4,5
 33 136 33 136 64 182 c 2,6,-1
 344 588 l 1,7,-1
 53 588 l 1,8,-1
 53 712 l 1,9,-1
 508 712 l 1,10,-1
 508 602 l 1,11,-1
 183 124 l 1,12,-1
 508 124 l 1,13,-1
 508 0 l 1,0,-1
EndSplineSet
EndChar

StartChar: Eth
Encoding: 208 208 27
Width: 682
Flags: HMW
HStem: 0 124<309.5 381 309.5 407> 307 106<36 93 36 93 232 362> 588 124<232 357 232 232>
VStem: 93 139<197 307 167.5 307 413 588> 491 140<282 413>
LayerCount: 2
Fore
SplineSet
36 307 m 1,0,-1
 36 413 l 1,1,-1
 93 413 l 1,2,-1
 93 712 l 1,3,-1
 370 712 l 2,4,5
 490 712 490 712 558 644 c 0,6,7
 613.142857143 588.857142857 613.142857143 588.857142857 623 510 c 0,8,9
 630 454 630 454 630 359 c 1,10,-1
 631 282 l 1,11,12
 627 209 627 209 613 159 c 128,-1,13
 599 109 599 109 558 68 c 0,14,15
 490 0 490 0 370 0 c 0,16,17
 217 0 217 0 155 45.5 c 128,-1,18
 93 91 93 91 93 197 c 2,19,-1
 93 307 l 1,20,-1
 36 307 l 1,0,-1
485.5 231.5 m 128,-1,22
 491 272 491 272 491 358 c 128,-1,23
 491 444 491 444 485.5 482.5 c 128,-1,24
 480 521 480 521 461 544 c 0,25,26
 425 588 425 588 357 588 c 2,27,-1
 232 588 l 1,28,-1
 232 413 l 1,29,-1
 362 413 l 1,30,-1
 362 307 l 1,31,-1
 232 307 l 1,32,-1
 232 194 l 2,33,34
 232 154 232 154 259 139 c 128,-1,35
 286 124 286 124 355.5 124 c 128,-1,36
 425 124 425 124 461 168 c 0,37,21
 480 191 480 191 485.5 231.5 c 128,-1,22
EndSplineSet
EndChar

StartChar: Thorn
Encoding: 222 222 28
Width: 633
Flags: HMW
HStem: 0 21G<83 222 83 83> 138 124<222 332 332 339 222 332> 457 124<222 332 222 339> 692 20G<83 222 222 222>
VStem: 83 139<0 138 0 262 262 457 581 712> 435 139<321 399>
LayerCount: 2
Fore
SplineSet
574 360 m 0,0,1
 574 138 574 138 339 138 c 2,2,-1
 222 138 l 1,3,-1
 222 0 l 1,4,-1
 83 0 l 1,5,-1
 83 712 l 1,6,-1
 222 712 l 1,7,-1
 222 581 l 1,8,-1
 339 581 l 2,9,10
 463 581 463 581 518.5 527.5 c 128,-1,11
 574 474 574 474 574 360 c 0,0,1
435 360 m 128,-1,13
 435 419 435 419 414.5 438 c 128,-1,14
 394 457 394 457 332 457 c 2,15,-1
 222 457 l 1,16,-1
 222 262 l 1,17,-1
 332 262 l 2,18,19
 394 262 394 262 414.5 281.5 c 128,-1,12
 435 301 435 301 435 360 c 128,-1,13
EndSplineSet
EndChar

StartChar: AE
Encoding: 198 198 29
Width: 979
Flags: HMW
HStem: 0 124<621.5 927 685 927> 123 117<296 458 296 466 238 458> 297 124<597 808 597 828> 588 124<597 927 597 597>
VStem: 458 139<240 297 421 502 502 502>
LayerCount: 2
Fore
SplineSet
458 240 m 1,0,-1
 458 502 l 1,1,-1
 296 240 l 1,2,-1
 458 240 l 1,0,-1
927 0 m 1,3,-1
 685 0 l 2,4,5
 589 0 589 0 536 29 c 128,-1,6
 483 58 483 58 466 123 c 1,7,-1
 238 123 l 1,8,-1
 164 0 l 1,9,-1
 19 0 l 1,10,-1
 458 712 l 1,11,-1
 927 712 l 1,12,-1
 927 588 l 1,13,-1
 597 588 l 1,14,-1
 597 421 l 1,15,-1
 828 421 l 1,16,-1
 808 297 l 1,17,-1
 597 297 l 1,18,-1
 597 198 l 2,19,20
 597 156 597 156 616 140 c 128,-1,21
 635 124 635 124 685 124 c 2,22,-1
 927 124 l 1,23,-1
 927 0 l 1,3,-1
EndSplineSet
EndChar

StartChar: OE
Encoding: 338 338 30
Width: 966
Flags: HMW
HStem: -20 20G<650.5 692 692 934> -6 124<249.5 363.5> 297 124<604 815 604 835> 594 118<322 391>
VStem: 39 139<338 375 338 375 338 491> 466 138<421 441>
LayerCount: 2
Fore
SplineSet
466 341 m 2,0,-1
 466 389 l 2,1,2
 466 513.724137931 466 513.724137931 432.5 553 c 0,3,4
 397.529411765 594 397.529411765 594 322 594 c 128,-1,5
 246.323529412 594 246.323529412 594 210.5 552 c 0,6,7
 183.995642702 520.925925926 183.995642702 520.925925926 179.5 444.5 c 0,8,9
 178 419 178 419 178 375 c 2,10,-1
 178 338 l 2,11,12
 178.975767222 231.641372767 178.975767222 231.641372767 193.689354808 192.850171394 c 0,13,14
 222.080188648 118 222.080188648 118 322 118 c 0,15,16
 408.837837838 118 408.837837838 118 437.5 168.5 c 0,17,18
 457.394736842 203.552631579 457.394736842 203.552631579 461.197368421 237.776315789 c 0,19,20
 466 281 466 281 466 341 c 2,0,-1
934 0 m 1,21,-1
 692 0 l 2,22,23
 565 0 565 0 514 50 c 1,24,25
 448 -6 448 -6 322 -6 c 0,26,27
 172 -6 172 -6 105.5 74.5 c 128,-1,28
 39 155 39 155 39 337 c 2,29,-1
 39 375 l 2,30,31
 39 550 39 550 106 631 c 128,-1,32
 173 712 173 712 322 712 c 2,33,-1
 934 712 l 1,34,-1
 934 588 l 1,35,-1
 604 588 l 1,36,-1
 604 421 l 1,37,-1
 835 421 l 1,38,-1
 815 297 l 1,39,-1
 604 297 l 1,40,-1
 604 198 l 2,41,42
 604 156 604 156 623 140 c 128,-1,43
 642 124 642 124 692 124 c 2,44,-1
 934 124 l 1,45,-1
 934 0 l 1,21,-1
EndSplineSet
EndChar

StartChar: Agrave
Encoding: 192 192 31
Width: 638
Flags: HMW
HStem: 0 21G<15 160 15 15 478 623 478 478> 123 117<234 406 234 438 199 406> 692 20G<305 338> 805 154<169 328>
LayerCount: 2
Fore
SplineSet
623 0 m 1,0,-1
 478 0 l 1,1,-1
 438 123 l 1,2,-1
 199 123 l 1,3,-1
 160 0 l 1,4,-1
 15 0 l 1,5,-1
 243 652 l 1,6,7
 258 686 258 686 276.5 699 c 128,-1,8
 295 712 295 712 322 712 c 128,-1,9
 349 712 349 712 365.5 700 c 128,-1,10
 382 688 382 688 395 652 c 2,11,-1
 623 0 l 1,0,-1
406 240 m 1,12,-1
 322 502 l 1,13,-1
 234 240 l 1,14,-1
 406 240 l 1,12,-1
243 853 m 2,15,-1
 169 959 l 1,16,-1
 306 959 l 1,17,-1
 344 853 l 2,18,19
 348 841 348 841 348 831 c 0,20,21
 348 805 348 805 320 805 c 0,22,23
 277 805 277 805 243 853 c 2,15,-1
EndSplineSet
EndChar

StartChar: Acircumflex
Encoding: 194 194 32
Width: 638
Flags: HMW
HStem: 0 21G<15 160 15 15 478 623 478 478> 123 117<234 406 234 438 199 406> 692 20G<305 338> 930 20G<265 369 369 369>
LayerCount: 2
Fore
SplineSet
623 0 m 1,0,-1
 478 0 l 1,1,-1
 438 123 l 1,2,-1
 199 123 l 1,3,-1
 160 0 l 1,4,-1
 15 0 l 1,5,-1
 243 652 l 1,6,7
 258 686 258 686 276.5 699 c 128,-1,8
 295 712 295 712 322 712 c 128,-1,9
 349 712 349 712 365.5 700 c 128,-1,10
 382 688 382 688 395 652 c 2,11,-1
 623 0 l 1,0,-1
406 240 m 1,12,-1
 322 502 l 1,13,-1
 234 240 l 1,14,-1
 406 240 l 1,12,-1
317 885 m 1,15,-1
 272 829 l 2,16,17
 233 781 233 781 195 781 c 0,18,19
 182 781 182 781 174 790 c 128,-1,20
 166 799 166 799 166 810 c 0,21,22
 166 821 166 821 171 829 c 2,23,-1
 265 950 l 1,24,-1
 369 950 l 1,25,-1
 463 829 l 2,26,27
 468 821 468 821 468 810.5 c 0,28,29
 468 800 468 800 459.5 790.5 c 128,-1,30
 451 781 451 781 439 781 c 0,31,32
 401 781 401 781 362 829 c 2,33,-1
 317 885 l 1,15,-1
EndSplineSet
EndChar

StartChar: Aacute
Encoding: 193 193 33
Width: 638
Flags: HMW
HStem: 0 21G<15 160 15 15 478 623 478 478> 123 117<234 406 234 438 199 406> 692 20G<305 338> 805 154<309 468>
LayerCount: 2
Fore
SplineSet
623 0 m 1,0,-1
 478 0 l 1,1,-1
 438 123 l 1,2,-1
 199 123 l 1,3,-1
 160 0 l 1,4,-1
 15 0 l 1,5,-1
 243 652 l 1,6,7
 258 686 258 686 276.5 699 c 128,-1,8
 295 712 295 712 322 712 c 128,-1,9
 349 712 349 712 365.5 700 c 128,-1,10
 382 688 382 688 395 652 c 2,11,-1
 623 0 l 1,0,-1
406 240 m 1,12,-1
 322 502 l 1,13,-1
 234 240 l 1,14,-1
 406 240 l 1,12,-1
468 959 m 1,15,-1
 394 853 l 2,16,17
 360 805 360 805 317 805 c 0,18,19
 289 805 289 805 289 831 c 0,20,21
 289 841 289 841 293 853 c 2,22,-1
 331 959 l 1,23,-1
 468 959 l 1,15,-1
EndSplineSet
EndChar

StartChar: Adieresis
Encoding: 196 196 34
Width: 638
Flags: HMW
HStem: 0 21G<15 160 15 15 478 623 478 478> 123 117<234 406 234 438 199 406> 692 20G<305 338> 804 134<185.5 222.5 411.5 448.5>
VStem: 137 134<842.5 899.5> 363 134<842.5 899.5>
LayerCount: 2
Fore
SplineSet
623 0 m 1,0,-1
 478 0 l 1,1,-1
 438 123 l 1,2,-1
 199 123 l 1,3,-1
 160 0 l 1,4,-1
 15 0 l 1,5,-1
 243 652 l 1,6,7
 258 686 258 686 276.5 699 c 128,-1,8
 295 712 295 712 322 712 c 128,-1,9
 349 712 349 712 365.5 700 c 128,-1,10
 382 688 382 688 395 652 c 2,11,-1
 623 0 l 1,0,-1
406 240 m 1,12,-1
 322 502 l 1,13,-1
 234 240 l 1,14,-1
 406 240 l 1,12,-1
497 871 m 128,-1,16
 497 832 497 832 479.5 818 c 128,-1,17
 462 804 462 804 430 804 c 128,-1,18
 398 804 398 804 380.5 818 c 128,-1,19
 363 832 363 832 363 871 c 128,-1,20
 363 910 363 910 380.5 924 c 128,-1,21
 398 938 398 938 430 938 c 128,-1,22
 462 938 462 938 479.5 924 c 128,-1,15
 497 910 497 910 497 871 c 128,-1,16
271 871 m 128,-1,24
 271 832 271 832 253.5 818 c 128,-1,25
 236 804 236 804 204 804 c 128,-1,26
 172 804 172 804 154.5 818 c 128,-1,27
 137 832 137 832 137 871 c 128,-1,28
 137 910 137 910 154.5 924 c 128,-1,29
 172 938 172 938 204 938 c 128,-1,30
 236 938 236 938 253.5 924 c 128,-1,23
 271 910 271 910 271 871 c 128,-1,24
EndSplineSet
EndChar

StartChar: Atilde
Encoding: 195 195 35
Width: 638
Flags: HMW
HStem: 0 21G<15 160 15 15 478 623 478 478> 123 117<234 406 234 438 199 406> 692 20G<305 338> 792 86<379.5 402 379.5 403> 833 87<236.5 257.5>
LayerCount: 2
Fore
SplineSet
623 0 m 1,0,-1
 478 0 l 1,1,-1
 438 123 l 1,2,-1
 199 123 l 1,3,-1
 160 0 l 1,4,-1
 15 0 l 1,5,-1
 243 652 l 1,6,7
 258 686 258 686 276.5 699 c 128,-1,8
 295 712 295 712 322 712 c 128,-1,9
 349 712 349 712 365.5 700 c 128,-1,10
 382 688 382 688 395 652 c 2,11,-1
 623 0 l 1,0,-1
406 240 m 1,12,-1
 322 502 l 1,13,-1
 234 240 l 1,14,-1
 406 240 l 1,12,-1
451 901 m 1,15,-1
 497 851 l 1,16,17
 438 792 438 792 384 792 c 0,18,19
 347 792 347 792 311.5 812.5 c 0,20,21
 276 833 276 833 244.5 833 c 0,22,23
 213 833 213 833 186 809 c 1,24,-1
 136 861 l 1,25,26
 169 894 169 894 194 907 c 128,-1,27
 219 920 219 920 253 920 c 0,28,29
 287 920 287 920 322.5 899 c 0,30,31
 358 878 358 878 392.5 878 c 0,32,33
 427 878 427 878 451 901 c 1,15,-1
EndSplineSet
EndChar

StartChar: Aring
Encoding: 197 197 36
Width: 638
Flags: HMW
HStem: 0 21G<15 160 15 15 478 623 478 478> 123 117<234 406 234 438 199 406> 692 20G<305 338> 753 72<301 333 301 353> 942 73<301 333>
VStem: 186 73<858 910 858 935> 375 73<858 910>
LayerCount: 2
Fore
SplineSet
623 0 m 1,0,-1
 478 0 l 1,1,-1
 438 123 l 1,2,-1
 199 123 l 1,3,-1
 160 0 l 1,4,-1
 15 0 l 1,5,-1
 243 652 l 1,6,7
 258 686 258 686 276.5 699 c 128,-1,8
 295 712 295 712 322 712 c 128,-1,9
 349 712 349 712 365.5 700 c 128,-1,10
 382 688 382 688 395 652 c 2,11,-1
 623 0 l 1,0,-1
406 240 m 1,12,-1
 322 502 l 1,13,-1
 234 240 l 1,14,-1
 406 240 l 1,12,-1
448 884 m 128,-1,16
 448 753 448 753 317 753 c 128,-1,17
 186 753 186 753 186 884 c 128,-1,18
 186 1015 186 1015 317 1015 c 128,-1,15
 448 1015 448 1015 448 884 c 128,-1,16
375 884 m 128,-1,20
 375 920 375 920 360.5 931 c 128,-1,21
 346 942 346 942 317 942 c 128,-1,22
 288 942 288 942 273.5 931 c 128,-1,23
 259 920 259 920 259 884 c 128,-1,24
 259 848 259 848 274 836.5 c 128,-1,25
 289 825 289 825 317 825 c 128,-1,26
 345 825 345 825 360 836.5 c 128,-1,19
 375 848 375 848 375 884 c 128,-1,20
EndSplineSet
EndChar

StartChar: Ccedilla
Encoding: 199 199 37
Width: 576
Flags: HMW
HStem: -171 52<274 290.5 274 312.5> -5 123<282 282> 475 243<204 569 204 439> 594 124<247 354.5>
VStem: 39 139<315 317 317 375 375 379 269 471.5> 321 66<-101 -78>
LayerCount: 2
Fore
SplineSet
443 276 m 1,0,-1
 572 276 l 1,1,2
 572 150 572 150 513.5 78 c 128,-1,3
 455 6 455 6 347 -4 c 1,4,-1
 339 -24 l 1,5,6
 387 -37 387 -37 387 -79.5 c 128,-1,7
 387 -122 387 -122 358.5 -146.5 c 128,-1,8
 330 -171 330 -171 271 -171 c 0,9,10
 258 -171 258 -171 224 -167 c 1,11,-1
 245 -116 l 1,12,13
 263 -119 263 -119 280 -119 c 0,14,15
 321 -119 321 -119 321 -88 c 0,16,17
 321 -54 321 -54 263 -54 c 1,18,-1
 282 -5 l 1,19,20
 39 12 39 12 39 315 c 2,21,-1
 39 375 l 2,22,23
 39 627.590909091 39 627.590909091 179 692.5 c 0,24,25
 234 718 234 718 312 718 c 0,26,27
 426 718 426 718 497.5 655.5 c 128,-1,28
 569 593 569 593 569 475 c 1,29,-1
 439 475 l 1,30,31
 428 534 428 534 400 564 c 128,-1,32
 372 594 372 594 312 594 c 0,33,34
 242.057142857 594 242.057142857 594 208.5 550.5 c 0,35,36
 184.186397985 518.982367758 184.186397985 518.982367758 179.5 444 c 0,37,38
 178 420 178 420 178 379 c 2,39,-1
 178 317 l 2,40,41
 178 201.62962963 178 201.62962963 210.5 159.5 c 0,42,43
 242.514285714 118 242.514285714 118 312.257142857 118 c 128,-1,44
 382 118 382 118 408.5 156.5 c 128,-1,45
 435 195 435 195 443 276 c 1,0,-1
EndSplineSet
EndChar

StartChar: Egrave
Encoding: 200 200 38
Width: 605
Flags: HMW
HStem: 0 124<230.5 552 310 552> 297 124<222 433 222 453> 588 124<222 552 222 222> 805 154<162 321>
VStem: 83 139<198 297 421 588>
LayerCount: 2
Fore
SplineSet
552 0 m 1,0,-1
 310 0 l 2,1,2
 190 0 190 0 136.5 46.5 c 128,-1,3
 83 93 83 93 83 198 c 2,4,-1
 83 712 l 1,5,-1
 552 712 l 1,6,-1
 552 588 l 1,7,-1
 222 588 l 1,8,-1
 222 421 l 1,9,-1
 453 421 l 1,10,-1
 433 297 l 1,11,-1
 222 297 l 1,12,-1
 222 198 l 2,13,14
 222 156 222 156 241 140 c 128,-1,15
 260 124 260 124 310 124 c 2,16,-1
 552 124 l 1,17,-1
 552 0 l 1,0,-1
236 853 m 2,18,-1
 162 959 l 1,19,-1
 299 959 l 1,20,-1
 337 853 l 2,21,22
 341 841 341 841 341 831 c 0,23,24
 341 805 341 805 313 805 c 0,25,26
 270 805 270 805 236 853 c 2,18,-1
EndSplineSet
EndChar

StartChar: Ecircumflex
Encoding: 202 202 39
Width: 605
Flags: HMW
HStem: 0 124<230.5 552 310 552> 297 124<222 433 222 453> 588 124<222 552 222 222> 930 20G<258 362 362 362>
VStem: 83 139<198 297 421 588>
LayerCount: 2
Fore
SplineSet
552 0 m 1,0,-1
 310 0 l 2,1,2
 190 0 190 0 136.5 46.5 c 128,-1,3
 83 93 83 93 83 198 c 2,4,-1
 83 712 l 1,5,-1
 552 712 l 1,6,-1
 552 588 l 1,7,-1
 222 588 l 1,8,-1
 222 421 l 1,9,-1
 453 421 l 1,10,-1
 433 297 l 1,11,-1
 222 297 l 1,12,-1
 222 198 l 2,13,14
 222 156 222 156 241 140 c 128,-1,15
 260 124 260 124 310 124 c 2,16,-1
 552 124 l 1,17,-1
 552 0 l 1,0,-1
310 885 m 1,18,-1
 265 829 l 2,19,20
 226 781 226 781 188 781 c 0,21,22
 175 781 175 781 167 790 c 128,-1,23
 159 799 159 799 159 810 c 0,24,25
 159 821 159 821 164 829 c 2,26,-1
 258 950 l 1,27,-1
 362 950 l 1,28,-1
 456 829 l 2,29,30
 461 821 461 821 461 810.5 c 0,31,32
 461 800 461 800 452.5 790.5 c 128,-1,33
 444 781 444 781 432 781 c 0,34,35
 394 781 394 781 355 829 c 2,36,-1
 310 885 l 1,18,-1
EndSplineSet
EndChar

StartChar: Eacute
Encoding: 201 201 40
Width: 605
Flags: HMW
HStem: 0 124<230.5 552 310 552> 297 124<222 433 222 453> 588 124<222 552 222 222> 805 154<301 460>
VStem: 83 139<198 297 421 588>
LayerCount: 2
Fore
SplineSet
552 0 m 1,0,-1
 310 0 l 2,1,2
 190 0 190 0 136.5 46.5 c 128,-1,3
 83 93 83 93 83 198 c 2,4,-1
 83 712 l 1,5,-1
 552 712 l 1,6,-1
 552 588 l 1,7,-1
 222 588 l 1,8,-1
 222 421 l 1,9,-1
 453 421 l 1,10,-1
 433 297 l 1,11,-1
 222 297 l 1,12,-1
 222 198 l 2,13,14
 222 156 222 156 241 140 c 128,-1,15
 260 124 260 124 310 124 c 2,16,-1
 552 124 l 1,17,-1
 552 0 l 1,0,-1
460 959 m 1,18,-1
 386 853 l 2,19,20
 352 805 352 805 309 805 c 0,21,22
 281 805 281 805 281 831 c 0,23,24
 281 841 281 841 285 853 c 2,25,-1
 323 959 l 1,26,-1
 460 959 l 1,18,-1
EndSplineSet
EndChar

StartChar: Edieresis
Encoding: 203 203 41
Width: 605
Flags: HMW
HStem: 0 124<230.5 552 310 552> 297 124<222 433 222 453> 588 124<222 552 222 222> 804 134<178.5 215.5 404.5 441.5>
VStem: 83 139<198 297 421 588> 130 134<842.5 899.5> 356 134<842.5 899.5>
LayerCount: 2
Fore
SplineSet
552 0 m 1,0,-1
 310 0 l 2,1,2
 190 0 190 0 136.5 46.5 c 128,-1,3
 83 93 83 93 83 198 c 2,4,-1
 83 712 l 1,5,-1
 552 712 l 1,6,-1
 552 588 l 1,7,-1
 222 588 l 1,8,-1
 222 421 l 1,9,-1
 453 421 l 1,10,-1
 433 297 l 1,11,-1
 222 297 l 1,12,-1
 222 198 l 2,13,14
 222 156 222 156 241 140 c 128,-1,15
 260 124 260 124 310 124 c 2,16,-1
 552 124 l 1,17,-1
 552 0 l 1,0,-1
490 871 m 128,-1,19
 490 832 490 832 472.5 818 c 128,-1,20
 455 804 455 804 423 804 c 128,-1,21
 391 804 391 804 373.5 818 c 128,-1,22
 356 832 356 832 356 871 c 128,-1,23
 356 910 356 910 373.5 924 c 128,-1,24
 391 938 391 938 423 938 c 128,-1,25
 455 938 455 938 472.5 924 c 128,-1,18
 490 910 490 910 490 871 c 128,-1,19
264 871 m 128,-1,27
 264 832 264 832 246.5 818 c 128,-1,28
 229 804 229 804 197 804 c 128,-1,29
 165 804 165 804 147.5 818 c 128,-1,30
 130 832 130 832 130 871 c 128,-1,31
 130 910 130 910 147.5 924 c 128,-1,32
 165 938 165 938 197 938 c 128,-1,33
 229 938 229 938 246.5 924 c 128,-1,26
 264 910 264 910 264 871 c 128,-1,27
EndSplineSet
EndChar

StartChar: Igrave
Encoding: 204 204 42
Width: 305
Flags: HMW
HStem: 0 21G<83 222 83 83> 692 20G<83 222 222 222> 805 154<31 190>
VStem: 83 139<0 712>
LayerCount: 2
Fore
SplineSet
222 0 m 1,0,-1
 83 0 l 1,1,-1
 83 712 l 1,2,-1
 222 712 l 1,3,-1
 222 0 l 1,0,-1
105 853 m 2,4,-1
 31 959 l 1,5,-1
 168 959 l 1,6,-1
 206 853 l 2,7,8
 210 841 210 841 210 831 c 0,9,10
 210 805 210 805 182 805 c 0,11,12
 139 805 139 805 105 853 c 2,4,-1
EndSplineSet
EndChar

StartChar: Icircumflex
Encoding: 206 206 43
Width: 305
Flags: HMW
HStem: 0 21G<83 222 83 83> 692 20G<83 222 222 222> 930 20G<99 203 203 203>
VStem: 83 139<0 712>
LayerCount: 2
Fore
SplineSet
222 0 m 1,0,-1
 83 0 l 1,1,-1
 83 712 l 1,2,-1
 222 712 l 1,3,-1
 222 0 l 1,0,-1
151 885 m 1,4,-1
 106 829 l 2,5,6
 67 781 67 781 29 781 c 0,7,8
 16 781 16 781 8 790 c 128,-1,9
 0 799 0 799 0 810 c 0,10,11
 0 821 0 821 5 829 c 2,12,-1
 99 950 l 1,13,-1
 203 950 l 1,14,-1
 297 829 l 2,15,16
 302 821 302 821 302 810.5 c 0,17,18
 302 800 302 800 293.5 790.5 c 128,-1,19
 285 781 285 781 273 781 c 0,20,21
 235 781 235 781 196 829 c 2,22,-1
 151 885 l 1,4,-1
EndSplineSet
EndChar

StartChar: Iacute
Encoding: 205 205 44
Width: 305
Flags: HMW
HStem: 0 21G<83 222 83 83> 692 20G<83 222 222 222> 805 154<121 280>
VStem: 83 139<0 712>
LayerCount: 2
Fore
SplineSet
222 0 m 1,0,-1
 83 0 l 1,1,-1
 83 712 l 1,2,-1
 222 712 l 1,3,-1
 222 0 l 1,0,-1
280 959 m 1,4,-1
 206 853 l 2,5,6
 172 805 172 805 129 805 c 0,7,8
 101 805 101 805 101 831 c 0,9,10
 101 841 101 841 105 853 c 2,11,-1
 143 959 l 1,12,-1
 280 959 l 1,4,-1
EndSplineSet
EndChar

StartChar: Idieresis
Encoding: 207 207 45
Width: 305
Flags: HMW
HStem: 0 21G<83 222 83 83> 692 20G<83 222 222 222> 804 134<21.5 58.5 247.5 284.5>
VStem: -27 134<842.5 899.5> 83 139<0 712> 199 134<842.5 899.5>
LayerCount: 2
Fore
SplineSet
222 0 m 1,0,-1
 83 0 l 1,1,-1
 83 712 l 1,2,-1
 222 712 l 1,3,-1
 222 0 l 1,0,-1
333 871 m 128,-1,5
 333 832 333 832 315.5 818 c 128,-1,6
 298 804 298 804 266 804 c 128,-1,7
 234 804 234 804 216.5 818 c 128,-1,8
 199 832 199 832 199 871 c 128,-1,9
 199 910 199 910 216.5 924 c 128,-1,10
 234 938 234 938 266 938 c 128,-1,11
 298 938 298 938 315.5 924 c 128,-1,4
 333 910 333 910 333 871 c 128,-1,5
107 871 m 128,-1,13
 107 832 107 832 89.5 818 c 128,-1,14
 72 804 72 804 40 804 c 128,-1,15
 8 804 8 804 -9.5 818 c 128,-1,16
 -27 832 -27 832 -27 871 c 128,-1,17
 -27 910 -27 910 -9.5 924 c 128,-1,18
 8 938 8 938 40 938 c 128,-1,19
 72 938 72 938 89.5 924 c 128,-1,12
 107 910 107 910 107 871 c 128,-1,13
EndSplineSet
EndChar

StartChar: Itilde
Encoding: 296 296 46
Width: 305
Flags: HMW
HStem: 0 21G<83 222 83 83> 692 20G<83 222 222 222> 792 86<215.5 238 215.5 239> 833 87<72.5 93.5>
VStem: 83 139<0 712>
LayerCount: 2
Fore
SplineSet
287 901 m 1,0,-1
 333 851 l 1,1,2
 274 792 274 792 220 792 c 0,3,4
 183 792 183 792 147.5 812.5 c 0,5,6
 112 833 112 833 80.5 833 c 0,7,8
 49 833 49 833 22 809 c 1,9,-1
 -28 861 l 1,10,11
 5 894 5 894 30 907 c 128,-1,12
 55 920 55 920 89 920 c 0,13,14
 123 920 123 920 158.5 899 c 0,15,16
 194 878 194 878 228.5 878 c 0,17,18
 263 878 263 878 287 901 c 1,0,-1
222 0 m 1,19,-1
 83 0 l 1,20,-1
 83 712 l 1,21,-1
 222 712 l 1,22,-1
 222 0 l 1,19,-1
EndSplineSet
EndChar

StartChar: IJ
Encoding: 306 306 47
Width: 816
Flags: HMW
HStem: -20 20G<83 222 83 83> -6 124<488 545 488 591> 692 20G<83 222 222 222 613 752 752 752>
VStem: 83 139<0 712> 613 139<220 254 254 712>
LayerCount: 2
Fore
SplineSet
222 0 m 1,0,-1
 83 0 l 1,1,-1
 83 712 l 1,2,-1
 222 712 l 1,3,-1
 222 0 l 1,0,-1
752 712 m 1,4,-1
 752 254 l 2,5,6
 752 111 752 111 693 52.5 c 128,-1,7
 634 -6 634 -6 522 -6 c 0,8,9
 450 -6 450 -6 401.5 13 c 128,-1,10
 353 32 353 32 312 73 c 1,11,-1
 390 158 l 1,12,13
 407 141 407 141 441.5 129.5 c 128,-1,14
 476 118 476 118 520.5 118 c 0,15,16
 565 118 565 118 589 139.5 c 128,-1,17
 613 161 613 161 613 220 c 2,18,-1
 613 712 l 1,19,-1
 752 712 l 1,4,-1
EndSplineSet
EndChar

StartChar: Jcircumflex
Encoding: 308 308 48
Width: 535
Flags: HMW
HStem: -6 124<183 240 183 286> 692 20G<308 447 447 447> 929 20G<333 437 437 437>
VStem: 308 139<220 254 254 712>
LayerCount: 2
Fore
SplineSet
385 884 m 1,0,-1
 340 828 l 2,1,2
 301 780 301 780 263 780 c 0,3,4
 250 780 250 780 242 789 c 128,-1,5
 234 798 234 798 234 809 c 0,6,7
 234 820 234 820 239 828 c 2,8,-1
 333 949 l 1,9,-1
 437 949 l 1,10,-1
 531 828 l 2,11,12
 536 820 536 820 536 809.5 c 0,13,14
 536 799 536 799 527.5 789.5 c 128,-1,15
 519 780 519 780 507 780 c 0,16,17
 469 780 469 780 430 828 c 2,18,-1
 385 884 l 1,0,-1
447 712 m 1,19,-1
 447 254 l 2,20,21
 447 111 447 111 388 52.5 c 128,-1,22
 329 -6 329 -6 217 -6 c 0,23,24
 145 -6 145 -6 96.5 13 c 128,-1,25
 48 32 48 32 7 73 c 1,26,-1
 85 158 l 1,27,28
 102 141 102 141 136.5 129.5 c 128,-1,29
 171 118 171 118 215.5 118 c 0,30,31
 260 118 260 118 284 139.5 c 128,-1,32
 308 161 308 161 308 220 c 2,33,-1
 308 712 l 1,34,-1
 447 712 l 1,19,-1
EndSplineSet
EndChar

StartChar: Ldotaccent
Encoding: 319 319 49
Width: 594
Flags: HMW
HStem: 0 124<230.5 522 310 522> 351 138<390 446.5> 692 20G<83 222 222 222>
VStem: 83 139<198 712> 349 138<392 448.5>
LayerCount: 2
Fore
SplineSet
522 0 m 1,0,-1
 310 0 l 2,1,2
 190 0 190 0 136.5 46.5 c 128,-1,3
 83 93 83 93 83 198 c 2,4,-1
 83 712 l 1,5,-1
 222 712 l 1,6,-1
 222 198 l 2,7,8
 222 156 222 156 241 140 c 128,-1,9
 260 124 260 124 310 124 c 2,10,-1
 522 124 l 1,11,-1
 522 0 l 1,0,-1
474 476 m 128,-1,13
 487 463 487 463 487 420.5 c 128,-1,14
 487 378 487 378 474 364.5 c 128,-1,15
 461 351 461 351 418.5 351 c 128,-1,16
 376 351 376 351 362.5 364.5 c 128,-1,17
 349 378 349 378 349 420.5 c 128,-1,18
 349 463 349 463 362.5 476 c 128,-1,19
 376 489 376 489 418.5 489 c 128,-1,12
 461 489 461 489 474 476 c 128,-1,13
EndSplineSet
EndChar

StartChar: Lslash
Encoding: 321 321 50
Width: 593
Flags: HMW
HStem: 0 124<250.5 542 330 542> 692 20G<103 242 242 242>
VStem: 37 205<213 329 329 329> 103 139<198 255 255 255 458 712>
LayerCount: 2
Fore
SplineSet
542 0 m 1,0,-1
 330 0 l 2,1,2
 210 0 210 0 156.5 46.5 c 128,-1,3
 103 93 103 93 103 198 c 2,4,-1
 103 255 l 1,5,-1
 37 213 l 1,6,-1
 37 329 l 1,7,-1
 103 370 l 1,8,-1
 103 712 l 1,9,-1
 242 712 l 1,10,-1
 242 458 l 1,11,-1
 368 538 l 1,12,-1
 368 423 l 1,13,-1
 242 343 l 1,14,-1
 242 198 l 2,15,16
 242 156 242 156 261 140 c 128,-1,17
 280 124 280 124 330 124 c 2,18,-1
 542 124 l 1,19,-1
 542 0 l 1,0,-1
EndSplineSet
EndChar

StartChar: Nacute
Encoding: 323 323 51
Width: 699
Flags: HMW
HStem: -20 20G<73 212 73 73> -8 21G<555.5 589> 692 20G<73 207 207 207 499 638 638 638> 796 154<350 509>
VStem: 73 139<0 457 0 712> 499 139<246 712>
LayerCount: 2
Fore
SplineSet
509 950 m 1,0,-1
 435 844 l 2,1,2
 401 796 401 796 358 796 c 0,3,4
 330 796 330 796 330 822 c 0,5,6
 330 832 330 832 334 844 c 2,7,-1
 372 950 l 1,8,-1
 509 950 l 1,0,-1
638 712 m 1,9,-1
 638 72 l 2,10,11
 638 39 638 39 618 15.5 c 128,-1,12
 598 -8 598 -8 571 -8 c 0,13,14
 502 -8 502 -8 458 72 c 1,15,-1
 212 457 l 1,16,-1
 212 0 l 1,17,-1
 73 0 l 1,18,-1
 73 712 l 1,19,-1
 207 712 l 1,20,-1
 499 246 l 1,21,-1
 499 712 l 1,22,-1
 638 712 l 1,9,-1
EndSplineSet
EndChar

StartChar: Ntilde
Encoding: 209 209 52
Width: 712
Flags: HMW
HStem: -20 20G<73 212 73 73> -8 21G<555.5 589> 692 20G<73 207 207 207 499 638 638 638> 792 86<418.5 441 418.5 442> 833 87<275.5 296.5>
VStem: 73 139<0 457 0 712> 499 139<246 712>
LayerCount: 2
Fore
SplineSet
638 712 m 1,0,-1
 638 72 l 2,1,2
 638 39 638 39 618 15.5 c 128,-1,3
 598 -8 598 -8 571 -8 c 0,4,5
 502 -8 502 -8 458 72 c 1,6,-1
 212 457 l 1,7,-1
 212 0 l 1,8,-1
 73 0 l 1,9,-1
 73 712 l 1,10,-1
 207 712 l 1,11,-1
 499 246 l 1,12,-1
 499 712 l 1,13,-1
 638 712 l 1,0,-1
490 901 m 1,14,-1
 536 851 l 1,15,16
 477 792 477 792 423 792 c 0,17,18
 386 792 386 792 350.5 812.5 c 0,19,20
 315 833 315 833 283.5 833 c 0,21,22
 252 833 252 833 225 809 c 1,23,-1
 175 861 l 1,24,25
 208 894 208 894 233 907 c 128,-1,26
 258 920 258 920 292 920 c 0,27,28
 326 920 326 920 361.5 899 c 0,29,30
 397 878 397 878 431.5 878 c 0,31,32
 466 878 466 878 490 901 c 1,14,-1
EndSplineSet
EndChar

StartChar: Ograve
Encoding: 210 210 53
Width: 644
Flags: HMW
HStem: -6 124<249.5 392.5 249.5 420.5> 594 124<252 391> 805 154<174 333>
VStem: 39 139<338 375 338 375 338 491> 466 139<341 389 215 441>
LayerCount: 2
Fore
SplineSet
605 389 m 2,0,-1
 605 335 l 2,1,2
 605 156 605 156 537.5 75 c 128,-1,3
 470 -6 470 -6 321 -6 c 128,-1,4
 172 -6 172 -6 105.5 74.5 c 128,-1,5
 39 155 39 155 39 337 c 2,6,-1
 39 375 l 2,7,8
 39 551 39 551 106.5 634.5 c 128,-1,9
 174 718 174 718 322 718 c 0,10,11
 605 718 605 718 605 389 c 2,0,-1
466 341 m 2,12,-1
 466 389 l 2,13,14
 466 513.724137931 466 513.724137931 432.5 553 c 0,15,16
 397.529411765 594 397.529411765 594 322 594 c 128,-1,17
 246.323529412 594 246.323529412 594 210.5 552 c 0,18,19
 183.995642702 520.925925926 183.995642702 520.925925926 179.5 444.5 c 0,20,21
 178 419 178 419 178 375 c 2,22,-1
 178 338 l 2,23,24
 178.975767222 231.641372767 178.975767222 231.641372767 193.689354808 192.850171394 c 0,25,26
 222.080188648 118 222.080188648 118 322 118 c 0,27,28
 408.837837838 118 408.837837838 118 437.5 168.5 c 0,29,30
 457.394736842 203.552631579 457.394736842 203.552631579 461.197368421 237.776315789 c 0,31,32
 466 281 466 281 466 341 c 2,12,-1
248 853 m 2,33,-1
 174 959 l 1,34,-1
 311 959 l 1,35,-1
 349 853 l 2,36,37
 353 841 353 841 353 831 c 0,38,39
 353 805 353 805 325 805 c 0,40,41
 282 805 282 805 248 853 c 2,33,-1
EndSplineSet
EndChar

StartChar: Ocircumflex
Encoding: 212 212 54
Width: 644
Flags: HMW
HStem: -6 124<249.5 392.5 249.5 420.5> 594 124<252 391> 930 20G<270 374 374 374>
VStem: 39 139<338 375 338 375 338 491> 466 139<341 389 215 441>
LayerCount: 2
Fore
SplineSet
605 389 m 2,0,-1
 605 335 l 2,1,2
 605 156 605 156 537.5 75 c 128,-1,3
 470 -6 470 -6 321 -6 c 128,-1,4
 172 -6 172 -6 105.5 74.5 c 128,-1,5
 39 155 39 155 39 337 c 2,6,-1
 39 375 l 2,7,8
 39 551 39 551 106.5 634.5 c 128,-1,9
 174 718 174 718 322 718 c 0,10,11
 605 718 605 718 605 389 c 2,0,-1
466 341 m 2,12,-1
 466 389 l 2,13,14
 466 513.724137931 466 513.724137931 432.5 553 c 0,15,16
 397.529411765 594 397.529411765 594 322 594 c 128,-1,17
 246.323529412 594 246.323529412 594 210.5 552 c 0,18,19
 183.995642702 520.925925926 183.995642702 520.925925926 179.5 444.5 c 0,20,21
 178 419 178 419 178 375 c 2,22,-1
 178 338 l 2,23,24
 178.975767222 231.641372767 178.975767222 231.641372767 193.689354808 192.850171394 c 0,25,26
 222.080188648 118 222.080188648 118 322 118 c 0,27,28
 408.837837838 118 408.837837838 118 437.5 168.5 c 0,29,30
 457.394736842 203.552631579 457.394736842 203.552631579 461.197368421 237.776315789 c 0,31,32
 466 281 466 281 466 341 c 2,12,-1
322 885 m 1,33,-1
 277 829 l 2,34,35
 238 781 238 781 200 781 c 0,36,37
 187 781 187 781 179 790 c 128,-1,38
 171 799 171 799 171 810 c 128,-1,39
 171 821 171 821 176 829 c 2,40,-1
 270 950 l 1,41,-1
 374 950 l 1,42,-1
 468 829 l 2,43,44
 473 821 473 821 473 810.5 c 128,-1,45
 473 800 473 800 464.5 790.5 c 128,-1,46
 456 781 456 781 444 781 c 0,47,48
 406 781 406 781 367 829 c 2,49,-1
 322 885 l 1,33,-1
EndSplineSet
EndChar

StartChar: Oacute
Encoding: 211 211 55
Width: 644
Flags: HMW
HStem: -6 124<249.5 392.5 249.5 420.5> 594 124<252 391> 805 154<314 473>
VStem: 39 139<338 375 338 375 338 491> 466 139<341 389 215 441>
LayerCount: 2
Fore
SplineSet
605 389 m 2,0,-1
 605 335 l 2,1,2
 605 156 605 156 537.5 75 c 128,-1,3
 470 -6 470 -6 321 -6 c 128,-1,4
 172 -6 172 -6 105.5 74.5 c 128,-1,5
 39 155 39 155 39 337 c 2,6,-1
 39 375 l 2,7,8
 39 551 39 551 106.5 634.5 c 128,-1,9
 174 718 174 718 322 718 c 0,10,11
 605 718 605 718 605 389 c 2,0,-1
466 341 m 2,12,-1
 466 389 l 2,13,14
 466 513.724137931 466 513.724137931 432.5 553 c 0,15,16
 397.529411765 594 397.529411765 594 322 594 c 128,-1,17
 246.323529412 594 246.323529412 594 210.5 552 c 0,18,19
 183.995642702 520.925925926 183.995642702 520.925925926 179.5 444.5 c 0,20,21
 178 419 178 419 178 375 c 2,22,-1
 178 338 l 2,23,24
 178.975767222 231.641372767 178.975767222 231.641372767 193.689354808 192.850171394 c 0,25,26
 222.080188648 118 222.080188648 118 322 118 c 0,27,28
 408.837837838 118 408.837837838 118 437.5 168.5 c 0,29,30
 457.394736842 203.552631579 457.394736842 203.552631579 461.197368421 237.776315789 c 0,31,32
 466 281 466 281 466 341 c 2,12,-1
473 959 m 1,33,-1
 399 853 l 2,34,35
 365 805 365 805 322 805 c 0,36,37
 294 805 294 805 294 831 c 0,38,39
 294 841 294 841 298 853 c 2,40,-1
 336 959 l 1,41,-1
 473 959 l 1,33,-1
EndSplineSet
EndChar

StartChar: Odieresis
Encoding: 214 214 56
Width: 644
Flags: HMW
HStem: -6 124<249.5 392.5 249.5 420.5> 594 124<252 391> 804 134<190.5 227.5 416.5 453.5>
VStem: 39 139<338 375 338 375 338 491> 142 134<842.5 899.5> 368 134<842.5 899.5> 466 139<341 389 215 441>
LayerCount: 2
Fore
SplineSet
605 389 m 2,0,-1
 605 335 l 2,1,2
 605 156 605 156 537.5 75 c 128,-1,3
 470 -6 470 -6 321 -6 c 128,-1,4
 172 -6 172 -6 105.5 74.5 c 128,-1,5
 39 155 39 155 39 337 c 2,6,-1
 39 375 l 2,7,8
 39 551 39 551 106.5 634.5 c 128,-1,9
 174 718 174 718 322 718 c 0,10,11
 605 718 605 718 605 389 c 2,0,-1
466 341 m 2,12,-1
 466 389 l 2,13,14
 466 513.724137931 466 513.724137931 432.5 553 c 0,15,16
 397.529411765 594 397.529411765 594 322 594 c 128,-1,17
 246.323529412 594 246.323529412 594 210.5 552 c 0,18,19
 183.995642702 520.925925926 183.995642702 520.925925926 179.5 444.5 c 0,20,21
 178 419 178 419 178 375 c 2,22,-1
 178 338 l 2,23,24
 178.975767222 231.641372767 178.975767222 231.641372767 193.689354808 192.850171394 c 0,25,26
 222.080188648 118 222.080188648 118 322 118 c 0,27,28
 408.837837838 118 408.837837838 118 437.5 168.5 c 0,29,30
 457.394736842 203.552631579 457.394736842 203.552631579 461.197368421 237.776315789 c 0,31,32
 466 281 466 281 466 341 c 2,12,-1
502 871 m 128,-1,34
 502 832 502 832 484.5 818 c 128,-1,35
 467 804 467 804 435 804 c 128,-1,36
 403 804 403 804 385.5 818 c 128,-1,37
 368 832 368 832 368 871 c 128,-1,38
 368 910 368 910 385.5 924 c 128,-1,39
 403 938 403 938 435 938 c 128,-1,40
 467 938 467 938 484.5 924 c 128,-1,33
 502 910 502 910 502 871 c 128,-1,34
276 871 m 128,-1,42
 276 832 276 832 258.5 818 c 128,-1,43
 241 804 241 804 209 804 c 128,-1,44
 177 804 177 804 159.5 818 c 128,-1,45
 142 832 142 832 142 871 c 128,-1,46
 142 910 142 910 159.5 924 c 128,-1,47
 177 938 177 938 209 938 c 128,-1,48
 241 938 241 938 258.5 924 c 128,-1,41
 276 910 276 910 276 871 c 128,-1,42
EndSplineSet
EndChar

StartChar: Otilde
Encoding: 213 213 57
Width: 644
Flags: HMW
HStem: -6 124<249.5 392.5 249.5 420.5> 594 124<252 391> 792 86<384.5 407 384.5 408> 833 87<241.5 262.5>
VStem: 39 139<338 375 338 375 338 491> 466 139<341 389 215 441>
LayerCount: 2
Fore
SplineSet
605 389 m 2,0,-1
 605 335 l 2,1,2
 605 156 605 156 537.5 75 c 128,-1,3
 470 -6 470 -6 321 -6 c 128,-1,4
 172 -6 172 -6 105.5 74.5 c 128,-1,5
 39 155 39 155 39 337 c 2,6,-1
 39 375 l 2,7,8
 39 551 39 551 106.5 634.5 c 128,-1,9
 174 718 174 718 322 718 c 0,10,11
 605 718 605 718 605 389 c 2,0,-1
466 341 m 2,12,-1
 466 389 l 2,13,14
 466 513.724137931 466 513.724137931 432.5 553 c 0,15,16
 397.529411765 594 397.529411765 594 322 594 c 128,-1,17
 246.323529412 594 246.323529412 594 210.5 552 c 0,18,19
 183.995642702 520.925925926 183.995642702 520.925925926 179.5 444.5 c 0,20,21
 178 419 178 419 178 375 c 2,22,-1
 178 338 l 2,23,24
 178.975767222 231.641372767 178.975767222 231.641372767 193.689354808 192.850171394 c 0,25,26
 222.080188648 118 222.080188648 118 322 118 c 0,27,28
 408.837837838 118 408.837837838 118 437.5 168.5 c 0,29,30
 457.394736842 203.552631579 457.394736842 203.552631579 461.197368421 237.776315789 c 0,31,32
 466 281 466 281 466 341 c 2,12,-1
456 901 m 1,33,-1
 502 851 l 1,34,35
 443 792 443 792 389 792 c 0,36,37
 352 792 352 792 316.5 812.5 c 128,-1,38
 281 833 281 833 249.5 833 c 128,-1,39
 218 833 218 833 191 809 c 1,40,-1
 141 861 l 1,41,42
 174 894 174 894 199 907 c 128,-1,43
 224 920 224 920 258 920 c 128,-1,44
 292 920 292 920 327.5 899 c 128,-1,45
 363 878 363 878 397.5 878 c 128,-1,46
 432 878 432 878 456 901 c 1,33,-1
EndSplineSet
EndChar

StartChar: Oslash
Encoding: 216 216 58
Width: 661
Flags: HMW
HStem: -45 21G<80 80 80 182> -6 124<310.5 387.5 310.5 420.5> 594 124<257 332.5> 734 20G<457 559 559 559>
VStem: 39 139<338 375 313 390 313 498.5> 466 139<338 375 375 389 215 402>
LayerCount: 2
Fore
SplineSet
80 -45 m 1,0,-1
 126 53 l 1,1,2
 39 131 39 131 39 338 c 2,3,-1
 39 390 l 2,4,5
 39 556 39 556 106.5 637 c 128,-1,6
 174 718 174 718 322 718 c 0,7,8
 381 718 381 718 432 702 c 1,9,-1
 457 754 l 1,10,-1
 559 754 l 1,11,-1
 514 658 l 1,12,13
 605 579 605 579 605 389 c 2,14,-1
 605 335 l 2,15,16
 605 156 605 156 537.5 75 c 128,-1,17
 470 -6 470 -6 322 -6 c 0,18,19
 256 -6 256 -6 207 9 c 1,20,-1
 182 -45 l 1,21,-1
 80 -45 l 1,0,-1
466 338 m 2,22,-1
 466 375 l 2,23,24
 466 468 466 468 447 517 c 1,25,-1
 263 127 l 1,26,27
 287 118 287 118 323.5 118 c 128,-1,28
 360 118 360 118 387 131 c 128,-1,29
 414 144 414 144 429 163 c 128,-1,30
 444 182 444 182 452.5 213 c 0,31,32
 466 262.235294118 466 262.235294118 466 338 c 2,22,-1
178 375 m 2,33,-1
 178 338 l 2,34,35
 178 243 178 243 195 198 c 1,36,-1
 377 585 l 1,37,38
 354 594 354 594 314.5 594 c 128,-1,39
 275 594 275 594 245 577.5 c 128,-1,40
 215 561 215 561 201 528 c 0,41,42
 178 473.785714286 178 473.785714286 178 375 c 2,33,-1
EndSplineSet
EndChar

StartChar: Racute
Encoding: 340 340 59
Width: 654
Flags: HMW
HStem: 0 21G<83 222 83 83 461 622 461 461> 264 116<222 322 222 353> 588 124<262 284 284 353> 805 154<298 457>
VStem: 83 139<0 264 0 380 380 525> 454 139<456.5 516.5>
LayerCount: 2
Fore
SplineSet
457 959 m 1,0,-1
 383 853 l 2,1,2
 349 805 349 805 306 805 c 0,3,4
 278 805 278 805 278 831 c 0,5,6
 278 841 278 841 282 853 c 2,7,-1
 320 959 l 1,8,-1
 457 959 l 1,0,-1
622 0 m 1,9,-1
 461 0 l 1,10,-1
 322 264 l 1,11,-1
 222 264 l 1,12,-1
 222 0 l 1,13,-1
 83 0 l 1,14,-1
 83 559 l 2,15,16
 83 639 83 639 120 675.5 c 128,-1,17
 157 712 157 712 244 712 c 2,18,-1
 362 712 l 2,19,20
 468 712 468 712 530.5 647.5 c 128,-1,21
 593 583 593 583 593 484 c 0,22,23
 593 412 593 412 555.5 359.5 c 128,-1,24
 518 307 518 307 463 287 c 1,25,-1
 622 0 l 1,9,-1
425.5 410.5 m 128,-1,27
 454 441 454 441 454 486.5 c 128,-1,28
 454 532 454 532 426.5 560 c 128,-1,29
 399 588 399 588 353 588 c 2,30,-1
 284 588 l 2,31,32
 222 588 222 588 222 525 c 2,33,-1
 222 380 l 1,34,-1
 353 380 l 2,35,26
 397 380 397 380 425.5 410.5 c 128,-1,27
EndSplineSet
EndChar

StartChar: Rcaron
Encoding: 344 344 60
Width: 654
Flags: HMW
HStem: 0 21G<83 222 83 83 461 622 461 461> 264 116<222 322 222 353> 588 124<262 284 284 353> 931 20G<196.5 217 437 458>
VStem: 83 139<0 264 0 380 380 525> 454 139<456.5 516.5>
LayerCount: 2
Fore
SplineSet
327 847 m 1,0,-1
 372 903 l 2,1,2
 411 951 411 951 449 951 c 0,3,4
 462 951 462 951 470 942 c 128,-1,5
 478 933 478 933 478 922 c 128,-1,6
 478 911 478 911 473 903 c 2,7,-1
 379 782 l 1,8,-1
 275 782 l 1,9,-1
 181 903 l 2,10,11
 176 911 176 911 176 921.5 c 128,-1,12
 176 932 176 932 184.5 941.5 c 128,-1,13
 193 951 193 951 205 951 c 0,14,15
 243 951 243 951 282 903 c 2,16,-1
 327 847 l 1,0,-1
622 0 m 1,17,-1
 461 0 l 1,18,-1
 322 264 l 1,19,-1
 222 264 l 1,20,-1
 222 0 l 1,21,-1
 83 0 l 1,22,-1
 83 559 l 2,23,24
 83 639 83 639 120 675.5 c 128,-1,25
 157 712 157 712 244 712 c 2,26,-1
 362 712 l 2,27,28
 468 712 468 712 530.5 647.5 c 128,-1,29
 593 583 593 583 593 484 c 0,30,31
 593 412 593 412 555.5 359.5 c 128,-1,32
 518 307 518 307 463 287 c 1,33,-1
 622 0 l 1,17,-1
425.5 410.5 m 128,-1,35
 454 441 454 441 454 486.5 c 128,-1,36
 454 532 454 532 426.5 560 c 128,-1,37
 399 588 399 588 353 588 c 2,38,-1
 284 588 l 2,39,40
 222 588 222 588 222 525 c 2,41,-1
 222 380 l 1,42,-1
 353 380 l 2,43,34
 397 380 397 380 425.5 410.5 c 128,-1,35
EndSplineSet
EndChar

StartChar: Rcommaaccent
Encoding: 342 342 61
Width: 654
Flags: HMW
HStem: -329 21G<261 261> -20 20G<83 222 83 83 461 622 461 461> 264 116<222 322 222 353> 380 208<262 284 284 353 262 383.5> 588 124<262 284 284 353>
VStem: 83 139<0 264 0 380 380 525> 261 133<-189.5 -147 -147 -62 -189.5 -62> 454 139<456.5 516.5>
LayerCount: 2
Fore
SplineSet
622 0 m 1,0,-1
 461 0 l 1,1,-1
 322 264 l 1,2,-1
 222 264 l 1,3,-1
 222 0 l 1,4,-1
 83 0 l 1,5,-1
 83 559 l 2,6,7
 83 639 83 639 120 675.5 c 128,-1,8
 157 712 157 712 244 712 c 2,9,-1
 362 712 l 2,10,11
 468 712 468 712 530.5 647.5 c 128,-1,12
 593 583 593 583 593 484 c 0,13,14
 593 412 593 412 555.5 359.5 c 128,-1,15
 518 307 518 307 463 287 c 1,16,-1
 622 0 l 1,0,-1
425.5 410.5 m 128,-1,18
 454 441 454 441 454 486.5 c 128,-1,19
 454 532 454 532 426.5 560 c 128,-1,20
 399 588 399 588 353 588 c 2,21,-1
 284 588 l 2,22,23
 222 588 222 588 222 525 c 2,24,-1
 222 380 l 1,25,-1
 353 380 l 2,26,17
 397 380 397 380 425.5 410.5 c 128,-1,18
394 -62 m 1,27,-1
 394 -147 l 2,28,29
 394 -206 394 -206 351.5 -258 c 128,-1,30
 309 -310 309 -310 261 -329 c 1,31,-1
 261 -62 l 1,32,-1
 394 -62 l 1,27,-1
EndSplineSet
EndChar

StartChar: Scaron
Encoding: 352 352 62
Width: 591
Flags: HMW
HStem: -6 124<248 322 248 353.5> 513 205 597 121<254 314.5> 929 20G<163.5 184 404 425>
VStem: 37 117 37 134<483.5 531.5 483.5 565.5> 427 136<177.5 231>
LayerCount: 2
Fore
SplineSet
563 210 m 0,0,1
 563 111 563 111 480 52.5 c 128,-1,2
 397 -6 397 -6 279 -6 c 0,3,4
 189.745098039 -6 189.745098039 -6 113.5 44.5 c 0,5,6
 75 70 75 70 51.5 117 c 128,-1,7
 28 164 28 164 28 226 c 1,8,-1
 154 232 l 1,9,10
 154 177 154 177 191 147.5 c 128,-1,11
 228 118 228 118 286.5 118 c 128,-1,12
 345 118 345 118 386 141.5 c 128,-1,13
 427 165 427 165 427 206 c 0,14,15
 427 278 427 278 342 291 c 1,16,-1
 226 303 l 1,17,18
 139 316 139 316 88 365 c 128,-1,19
 37 414 37 414 37 506 c 128,-1,20
 37 598 37 598 108.5 658 c 128,-1,21
 180 718 180 718 289 718 c 128,-1,22
 398 718 398 718 475 661 c 128,-1,23
 552 604 552 604 552 516 c 1,24,-1
 428 510 l 1,25,26
 422 542 422 542 396.5 563 c 0,27,28
 355.214285714 597 355.214285714 597 296.107142857 597 c 128,-1,29
 237 597 237 597 204 571 c 128,-1,30
 171 545 171 545 171 509.5 c 128,-1,31
 171 474 171 474 196 453.5 c 128,-1,32
 221 433 221 433 258 428 c 1,33,-1
 372 416 l 1,34,35
 563 390 563 390 563 210 c 0,0,1
294 845 m 1,36,-1
 339 901 l 2,37,38
 378 949 378 949 416 949 c 0,39,40
 429 949 429 949 437 940 c 128,-1,41
 445 931 445 931 445 920 c 128,-1,42
 445 909 445 909 440 901 c 2,43,-1
 346 780 l 1,44,-1
 242 780 l 1,45,-1
 148 901 l 2,46,47
 143 909 143 909 143 919.5 c 128,-1,48
 143 930 143 930 151.5 939.5 c 128,-1,49
 160 949 160 949 172 949 c 0,50,51
 210 949 210 949 249 901 c 2,52,-1
 294 845 l 1,36,-1
EndSplineSet
EndChar

StartChar: Ugrave
Encoding: 217 217 63
Width: 668
Flags: HMW
HStem: -6 124<296.5 371.5 296.5 407> 692 20G<62 201 201 201 468 606 606 606> 805 154<186 345>
VStem: 62 139<244 249 249 712> 468 138<249 712>
LayerCount: 2
Fore
SplineSet
606 712 m 1,0,-1
 606 244 l 2,1,2
 606 128 606 128 527.5 61 c 128,-1,3
 449 -6 449 -6 334 -6 c 128,-1,4
 219 -6 219 -6 140.5 61 c 128,-1,5
 62 128 62 128 62 244 c 2,6,-1
 62 712 l 1,7,-1
 201 712 l 1,8,-1
 201 249 l 2,9,10
 201 183 201 183 237.5 150.5 c 128,-1,11
 274 118 274 118 334 118 c 128,-1,12
 394 118 394 118 431 150.5 c 128,-1,13
 468 183 468 183 468 249 c 2,14,-1
 468 712 l 1,15,-1
 606 712 l 1,0,-1
260 853 m 2,16,-1
 186 959 l 1,17,-1
 323 959 l 1,18,-1
 361 853 l 2,19,20
 365 841 365 841 365 831 c 0,21,22
 365 805 365 805 337 805 c 0,23,24
 294 805 294 805 260 853 c 2,16,-1
EndSplineSet
EndChar

StartChar: Ucircumflex
Encoding: 219 219 64
Width: 668
Flags: HMW
HStem: -6 124<296.5 371.5 296.5 407> 692 20G<62 201 201 201 468 606 606 606> 930 20G<282 386 386 386>
VStem: 62 139<244 249 249 712> 468 138<249 712>
LayerCount: 2
Fore
SplineSet
606 712 m 1,0,-1
 606 244 l 2,1,2
 606 128 606 128 527.5 61 c 128,-1,3
 449 -6 449 -6 334 -6 c 128,-1,4
 219 -6 219 -6 140.5 61 c 128,-1,5
 62 128 62 128 62 244 c 2,6,-1
 62 712 l 1,7,-1
 201 712 l 1,8,-1
 201 249 l 2,9,10
 201 183 201 183 237.5 150.5 c 128,-1,11
 274 118 274 118 334 118 c 128,-1,12
 394 118 394 118 431 150.5 c 128,-1,13
 468 183 468 183 468 249 c 2,14,-1
 468 712 l 1,15,-1
 606 712 l 1,0,-1
334 885 m 1,16,-1
 289 829 l 2,17,18
 250 781 250 781 212 781 c 0,19,20
 199 781 199 781 191 790 c 128,-1,21
 183 799 183 799 183 810 c 0,22,23
 183 821 183 821 188 829 c 2,24,-1
 282 950 l 1,25,-1
 386 950 l 1,26,-1
 480 829 l 2,27,28
 485 821 485 821 485 810.5 c 0,29,30
 485 800 485 800 476.5 790.5 c 128,-1,31
 468 781 468 781 456 781 c 0,32,33
 418 781 418 781 379 829 c 2,34,-1
 334 885 l 1,16,-1
EndSplineSet
EndChar

StartChar: Uacute
Encoding: 218 218 65
Width: 668
Flags: HMW
HStem: -6 124<296.5 371.5 296.5 407> 692 20G<62 201 201 201 468 606 606 606> 805 154<326 485>
VStem: 62 139<244 249 249 712> 468 138<249 712>
LayerCount: 2
Fore
SplineSet
606 712 m 1,0,-1
 606 244 l 2,1,2
 606 128 606 128 527.5 61 c 128,-1,3
 449 -6 449 -6 334 -6 c 128,-1,4
 219 -6 219 -6 140.5 61 c 128,-1,5
 62 128 62 128 62 244 c 2,6,-1
 62 712 l 1,7,-1
 201 712 l 1,8,-1
 201 249 l 2,9,10
 201 183 201 183 237.5 150.5 c 128,-1,11
 274 118 274 118 334 118 c 128,-1,12
 394 118 394 118 431 150.5 c 128,-1,13
 468 183 468 183 468 249 c 2,14,-1
 468 712 l 1,15,-1
 606 712 l 1,0,-1
485 959 m 1,16,-1
 411 853 l 2,17,18
 377 805 377 805 334 805 c 0,19,20
 306 805 306 805 306 831 c 0,21,22
 306 841 306 841 310 853 c 2,23,-1
 348 959 l 1,24,-1
 485 959 l 1,16,-1
EndSplineSet
EndChar

StartChar: Udieresis
Encoding: 220 220 66
Width: 668
Flags: HMW
HStem: -6 124<296.5 371.5 296.5 407> 692 20G<62 201 201 201 468 606 606 606> 804 134<202.5 239.5 428.5 465.5>
VStem: 62 139<244 249 249 712> 154 134<842.5 899.5> 380 134<842.5 899.5> 468 138<249 712>
LayerCount: 2
Fore
SplineSet
606 712 m 1,0,-1
 606 244 l 2,1,2
 606 128 606 128 527.5 61 c 128,-1,3
 449 -6 449 -6 334 -6 c 128,-1,4
 219 -6 219 -6 140.5 61 c 128,-1,5
 62 128 62 128 62 244 c 2,6,-1
 62 712 l 1,7,-1
 201 712 l 1,8,-1
 201 249 l 2,9,10
 201 183 201 183 237.5 150.5 c 128,-1,11
 274 118 274 118 334 118 c 128,-1,12
 394 118 394 118 431 150.5 c 128,-1,13
 468 183 468 183 468 249 c 2,14,-1
 468 712 l 1,15,-1
 606 712 l 1,0,-1
514 871 m 128,-1,17
 514 832 514 832 496.5 818 c 128,-1,18
 479 804 479 804 447 804 c 128,-1,19
 415 804 415 804 397.5 818 c 128,-1,20
 380 832 380 832 380 871 c 128,-1,21
 380 910 380 910 397.5 924 c 128,-1,22
 415 938 415 938 447 938 c 128,-1,23
 479 938 479 938 496.5 924 c 128,-1,16
 514 910 514 910 514 871 c 128,-1,17
288 871 m 128,-1,25
 288 832 288 832 270.5 818 c 128,-1,26
 253 804 253 804 221 804 c 128,-1,27
 189 804 189 804 171.5 818 c 128,-1,28
 154 832 154 832 154 871 c 128,-1,29
 154 910 154 910 171.5 924 c 128,-1,30
 189 938 189 938 221 938 c 128,-1,31
 253 938 253 938 270.5 924 c 128,-1,24
 288 910 288 910 288 871 c 128,-1,25
EndSplineSet
EndChar

StartChar: Yacute
Encoding: 221 221 67
Width: 572
Flags: HMW
HStem: 0 21G<217 355 217 217> 692 20G<3 154 154 154 418 569 569 569> 805 154<277 436>
VStem: 217 138<0 292 0 292>
LayerCount: 2
Fore
SplineSet
569 712 m 1,0,-1
 355 292 l 1,1,-1
 355 0 l 1,2,-1
 217 0 l 1,3,-1
 217 292 l 1,4,-1
 3 712 l 1,5,-1
 154 712 l 1,6,-1
 287 425 l 1,7,-1
 418 712 l 1,8,-1
 569 712 l 1,0,-1
436 959 m 1,9,-1
 362 853 l 2,10,11
 328 805 328 805 285 805 c 0,12,13
 257 805 257 805 257 831 c 0,14,15
 257 841 257 841 261 853 c 2,16,-1
 299 959 l 1,17,-1
 436 959 l 1,9,-1
EndSplineSet
EndChar

StartChar: Ydieresis
Encoding: 376 376 68
Width: 572
Flags: HMW
HStem: 0 21G<217 355 217 217> 692 20G<3 154 154 154 418 569 569 569> 804 134<153.5 190.5 379.5 416.5>
VStem: 105 134<842.5 899.5> 217 138<0 292 0 292> 331 134<842.5 899.5>
LayerCount: 2
Fore
SplineSet
569 712 m 1,0,-1
 355 292 l 1,1,-1
 355 0 l 1,2,-1
 217 0 l 1,3,-1
 217 292 l 1,4,-1
 3 712 l 1,5,-1
 154 712 l 1,6,-1
 287 425 l 1,7,-1
 418 712 l 1,8,-1
 569 712 l 1,0,-1
465 871 m 128,-1,10
 465 832 465 832 447.5 818 c 128,-1,11
 430 804 430 804 398 804 c 128,-1,12
 366 804 366 804 348.5 818 c 128,-1,13
 331 832 331 832 331 871 c 128,-1,14
 331 910 331 910 348.5 924 c 128,-1,15
 366 938 366 938 398 938 c 128,-1,16
 430 938 430 938 447.5 924 c 128,-1,9
 465 910 465 910 465 871 c 128,-1,10
239 871 m 128,-1,18
 239 832 239 832 221.5 818 c 128,-1,19
 204 804 204 804 172 804 c 128,-1,20
 140 804 140 804 122.5 818 c 128,-1,21
 105 832 105 832 105 871 c 128,-1,22
 105 910 105 910 122.5 924 c 128,-1,23
 140 938 140 938 172 938 c 128,-1,24
 204 938 204 938 221.5 924 c 128,-1,17
 239 910 239 910 239 871 c 128,-1,18
EndSplineSet
EndChar

StartChar: Zcaron
Encoding: 381 381 69
Width: 548
Flags: HMW
HStem: 0 124<107.5 508 183 508 183 508> 588 124<53 344 53 508> 929 20G<146.5 167 387 408>
LayerCount: 2
Fore
SplineSet
508 0 m 1,0,-1
 146 0 l 2,1,2
 91 0 91 0 62 26 c 128,-1,3
 33 52 33 52 33 94 c 0,4,5
 33 136 33 136 64 182 c 2,6,-1
 344 588 l 1,7,-1
 53 588 l 1,8,-1
 53 712 l 1,9,-1
 508 712 l 1,10,-1
 508 602 l 1,11,-1
 183 124 l 1,12,-1
 508 124 l 1,13,-1
 508 0 l 1,0,-1
277 845 m 1,14,-1
 322 901 l 2,15,16
 361 949 361 949 399 949 c 0,17,18
 412 949 412 949 420 940 c 128,-1,19
 428 931 428 931 428 920 c 0,20,21
 428 909 428 909 423 901 c 2,22,-1
 329 780 l 1,23,-1
 225 780 l 1,24,-1
 131 901 l 2,25,26
 126 909 126 909 126 919.5 c 0,27,28
 126 930 126 930 134.5 939.5 c 128,-1,29
 143 949 143 949 155 949 c 0,30,31
 193 949 193 949 232 901 c 2,32,-1
 277 845 l 1,14,-1
EndSplineSet
EndChar

StartChar: ampersand
Encoding: 38 38 70
Width: 721
Flags: HMW
HStem: -6 120<314.5 409.5 314.5 444> 299 106<434 703 434 482 611 611 611 703> 501 226<281.5 587 281.5 456> 607 120<317.5 394>
VStem: 100 140<175.5 228> 127 113 127 134<519.5 546.5 519.5 604> 456 131<501 542> 482 129<299 299>
LayerCount: 2
Fore
SplineSet
434 299 m 1,0,-1
 434 405 l 1,1,-1
 703 405 l 1,2,-1
 703 299 l 1,3,-1
 611 299 l 1,4,5
 611.333333333 286.166666667 611.333333333 286.166666667 611.333333333 249.5 c 0,6,7
 611.333333333 212.833333333 611.333333333 212.833333333 602.166666667 162.416666667 c 0,8,9
 593 112 593 112 574 78.5 c 128,-1,10
 555 45 555 45 522 26 c 128,-1,11
 489 7 489 7 452 0.5 c 128,-1,12
 415 -6 415 -6 361 -6 c 0,13,14
 231 -6 231 -6 165.5 47.5 c 128,-1,15
 100 101 100 101 100 196 c 0,16,17
 100 250 100 250 117.5 293 c 128,-1,18
 135 336 135 336 184 374 c 1,19,20
 127 440 127 440 127 537 c 0,21,22
 127 634 127 634 185.5 680.5 c 128,-1,23
 244 727 244 727 357.5 727 c 0,24,25
 471 727 471 727 529 672 c 128,-1,26
 587 617 587 617 587 501 c 1,27,-1
 456 501 l 1,28,29
 456 564 456 564 435.5 585.5 c 128,-1,30
 415 607 415 607 361 607 c 0,31,32
 307 607 307 607 284 582.5 c 128,-1,33
 261 558 261 558 261 538 c 0,34,35
 261 479 261 479 286 434 c 1,36,37
 327 452 327 452 338 456 c 1,38,-1
 362 345 l 1,39,40
 305 321 305 321 272.5 289.5 c 128,-1,41
 240 258 240 258 240 208.5 c 0,42,43
 240 159 240 159 267.5 136.5 c 128,-1,44
 295 114 295 114 363.5 114 c 0,45,46
 432 114 432 114 456 153.5 c 128,-1,47
 480 193 480 193 482 299 c 1,48,-1
 434 299 l 1,0,-1
EndSplineSet
EndChar

StartChar: a
Encoding: 97 97 71
Width: 534
Flags: HMW
HStem: -20 20G<379 466 379 379> -6 137<198 200> 450 117<199 237 237 336> 555 20G<466 466>
VStem: 9 130<228.5 333.5 228.5 351> 336 130<182 450 450 450 567 567>
LayerCount: 2
Fore
SplineSet
466 0 m 1,0,-1
 379 0 l 1,1,-1
 339 69 l 1,2,-1
 200 -6 l 1,3,4
 84.2409638554 -6 84.2409638554 -6 44 77.5 c 0,5,6
 24 119 24 119 16.5 166.5 c 128,-1,7
 9 214 9 214 9 265.5 c 128,-1,8
 9 317 9 317 10 341.5 c 128,-1,9
 11 366 11 366 15 398.5 c 128,-1,10
 19 431 19 431 26.5 453 c 128,-1,11
 34 475 34 475 48 498.5 c 128,-1,12
 62 522 62 522 81.5 535.5 c 0,13,14
 127 567 127 567 199 567 c 2,15,-1
 336 567 l 1,16,-1
 466 575 l 1,17,-1
 466 0 l 1,0,-1
336 182 m 1,18,-1
 336 450 l 1,19,-1
 237 450 l 2,20,21
 182 450 182 450 160.5 408 c 128,-1,22
 139 366 139 366 139 282.5 c 128,-1,23
 139 199 139 199 159.5 165 c 128,-1,24
 180 131 180 131 237 131 c 1,25,-1
 336 182 l 1,18,-1
EndSplineSet
EndChar

StartChar: b
Encoding: 98 98 72
Width: 560
Flags: HMW
HStem: -20 20G<150.5 204> -1 112<317 318 215 402.5> 445 127<337 338> 732 20G<52 182 182 182>
VStem: 52 130<149 157 157 382 500 752> 387 130<231.5 340.5>
LayerCount: 2
Fore
SplineSet
317 -1 m 1,0,-1
 204 0 l 2,1,2
 129 0 129 0 90.5 44 c 128,-1,3
 52 88 52 88 52 149 c 2,4,-1
 52 752 l 1,5,-1
 182 752 l 1,6,-1
 182 500 l 1,7,-1
 337 572 l 1,8,9
 426.466666667 572 426.466666667 572 468.5 523.5 c 0,10,11
 505.073796791 481.299465241 505.073796791 481.299465241 513.5 385 c 0,12,13
 517 345 517 345 517 286 c 0,14,15
 517 -1 517 -1 317 -1 c 1,0,-1
215 111 m 1,16,-1
 279 111 l 2,17,18
 387 111 387 111 387 286 c 0,19,20
 387 375 387 375 370.5 410 c 128,-1,21
 354 445 354 445 299 445 c 1,22,-1
 182 382 l 1,23,-1
 182 157 l 2,24,25
 182 117 182 117 215 111 c 1,16,-1
EndSplineSet
EndChar

StartChar: c
Encoding: 99 99 73
Width: 519
Flags: HMW
HStem: -14 117<222.5 299.5> -14 223<222.5 365> 375 204<222.5 481 222.5 363> 462 117<222.5 302>
VStem: 31 130<240.5 262 262 314 221 335> 363 118<375 402.5>
LayerCount: 2
Fore
SplineSet
365 209 m 1,0,-1
 483 210 l 1,1,2
 482 202 482 202 481 181 c 128,-1,3
 480 160 480 160 479.5 152.5 c 128,-1,4
 479 145 479 145 477 129 c 128,-1,5
 475 113 475 113 472.5 105.5 c 128,-1,6
 470 98 470 98 466 86.5 c 0,7,8
 447.697089295 33.8791317218 447.697089295 33.8791317218 367.5 4.5 c 0,9,10
 317 -14 317 -14 261.5 -14 c 128,-1,11
 206 -14 206 -14 161 4 c 128,-1,12
 116 22 116 22 90 50 c 0,13,14
 31 112 31 112 31 282.5 c 128,-1,15
 31 453 31 453 90 515 c 0,16,17
 116 543 116 543 161 561 c 128,-1,18
 206 579 206 579 261 579 c 0,19,20
 369 579 369 579 425 525 c 128,-1,21
 481 471 481 471 481 375 c 1,22,-1
 363 375 l 1,23,24
 363 419 363 419 341 440.5 c 128,-1,25
 319 462 319 462 259.5 462 c 128,-1,26
 200 462 200 462 180.5 425 c 128,-1,27
 161 388 161 388 161 314 c 2,28,-1
 161 262 l 2,29,30
 161 142.880952381 161 142.880952381 207 115.5 c 0,31,32
 228 103 228 103 262 103 c 128,-1,33
 296 103 296 103 317.5 109.5 c 128,-1,34
 339 116 339 116 348.5 132 c 128,-1,35
 358 148 358 148 361 163.5 c 128,-1,36
 364 179 364 179 365 209 c 1,0,-1
EndSplineSet
EndChar

StartChar: d
Encoding: 100 100 74
Width: 561
Flags: HMW
HStem: -20 20G<401 488 401 401> -6 137<220 222> 450 117<221 259 259 358> 732 20G<358 488 488 488>
VStem: 31 130<228.5 333.5 228.5 351> 358 130<182 450 450 450 567 752>
LayerCount: 2
Fore
SplineSet
488 0 m 1,0,-1
 401 0 l 1,1,-1
 361 69 l 1,2,-1
 222 -6 l 1,3,4
 106.240963855 -6 106.240963855 -6 66 77.5 c 0,5,6
 46 119 46 119 38.5 166.5 c 128,-1,7
 31 214 31 214 31 265.5 c 128,-1,8
 31 317 31 317 32 341.5 c 128,-1,9
 33 366 33 366 37 398.5 c 128,-1,10
 41 431 41 431 48.5 453 c 128,-1,11
 56 475 56 475 70 498.5 c 128,-1,12
 84 522 84 522 103.5 535.5 c 0,13,14
 149 567 149 567 221 567 c 2,15,-1
 358 567 l 1,16,-1
 358 752 l 1,17,-1
 488 752 l 1,18,-1
 488 0 l 1,0,-1
358 182 m 1,19,-1
 358 450 l 1,20,-1
 259 450 l 2,21,22
 204 450 204 450 182.5 408 c 128,-1,23
 161 366 161 366 161 282.5 c 128,-1,24
 161 199 161 199 181.5 165 c 128,-1,25
 202 131 202 131 259 131 c 1,26,-1
 358 182 l 1,19,-1
EndSplineSet
EndChar

StartChar: e
Encoding: 101 101 75
Width: 548
Flags: HMW
HStem: -13 118<238.5 327.5 238.5 351> -13 207<202 502> 255 89<171 385 171 501 168 385> 470 108<251 316.5>
VStem: 39 129<207.5 255 207.5 401> 385 118<344 389>
LayerCount: 2
Fore
SplineSet
501 255 m 1,0,-1
 168 255 l 1,1,2
 168 177 168 177 192.5 141 c 128,-1,3
 217 105 217 105 291 105 c 0,4,5
 339 105 339 105 362 135.5 c 128,-1,6
 385 166 385 166 385 194 c 1,7,-1
 502 194 l 1,8,9
 502 87 502 87 444.5 37 c 128,-1,10
 387 -13 387 -13 292.5 -13 c 128,-1,11
 198 -13 198 -13 145.5 14 c 0,12,13
 39 68.7714285714 39 68.7714285714 39 306 c 0,14,15
 39 447 39 447 100 512.5 c 128,-1,16
 161 578 161 578 286 578 c 0,17,18
 503 578 503 578 503 337 c 0,19,20
 503 311 503 311 501 255 c 1,0,-1
171 344 m 1,21,-1
 385 344 l 1,22,23
 385 410 385 410 360 440 c 128,-1,24
 335 470 335 470 283.5 470 c 128,-1,25
 232 470 232 470 201.5 439.5 c 128,-1,26
 171 409 171 409 171 344 c 1,21,-1
EndSplineSet
EndChar

StartChar: f
Encoding: 102 102 76
Width: 342
Flags: HMW
HStem: 0 21G<79 209 79 79> 450 99<25 79 25 79 209 315> 643 110<238.5 254 254 315>
VStem: 79 130<0 450 0 450 549 596> 79 236<0 450 450 450 450 604 450 641>
LayerCount: 2
Fore
SplineSet
315 450 m 1,0,-1
 209 450 l 1,1,-1
 209 0 l 1,2,-1
 79 0 l 1,3,-1
 79 450 l 1,4,-1
 25 450 l 1,5,-1
 25 549 l 1,6,-1
 79 549 l 1,7,-1
 79 604 l 2,8,9
 79 665 79 665 118 709 c 128,-1,10
 157 753 157 753 231 753 c 2,11,-1
 315 753 l 1,12,-1
 315 643 l 1,13,-1
 254 643 l 2,14,15
 209 643 209 643 209 596 c 2,16,-1
 209 549 l 1,17,-1
 315 549 l 1,18,-1
 315 450 l 1,0,-1
EndSplineSet
EndChar

StartChar: g
Encoding: 103 103 77
Width: 555
Flags: HMW
HStem: -170 110<236 303.5 236 342> 44 137<215 217> 450 117<216 254 254 353> 555 20G<483 483>
VStem: 26 130<258.5 343.5 258.5 361> 59 121<-26 -14> 353 130<232 450 450 450 567 567>
LayerCount: 2
Fore
SplineSet
353 567 m 1,0,-1
 483 575 l 1,1,-1
 483 26 l 2,2,3
 483 -69 483 -69 429.5 -119.5 c 128,-1,4
 376 -170 376 -170 271 -170 c 0,5,6
 190.090909091 -170 190.090909091 -170 129 -138.5 c 0,7,8
 97 -122 97 -122 78 -90 c 128,-1,9
 59 -58 59 -58 59 -14 c 1,10,-1
 180 -8 l 1,11,12
 180 -36 180 -36 200 -48 c 128,-1,13
 220 -60 220 -60 268.5 -60 c 128,-1,14
 317 -60 317 -60 334.5 -36 c 128,-1,15
 352 -12 352 -12 352 33 c 1,16,-1
 357 119 l 1,17,-1
 217 44 l 1,18,19
 102.32 44 102.32 44 61.5 122.5 c 0,20,21
 26 190.769230769 26 190.769230769 26 291 c 0,22,23
 26 410 26 410 43.5 459 c 0,24,25
 62.875 513.25 62.875 513.25 98.5 537 c 0,26,27
 143.5 567 143.5 567 216 567 c 2,28,-1
 353 567 l 1,0,-1
353 232 m 1,29,-1
 353 450 l 1,30,-1
 254 450 l 2,31,32
 198 450 198 450 177 412 c 128,-1,33
 156 374 156 374 156 306 c 128,-1,34
 156 238 156 238 177.5 209.5 c 128,-1,35
 199 181 199 181 254 181 c 1,36,-1
 353 232 l 1,29,-1
EndSplineSet
EndChar

StartChar: h
Encoding: 104 104 78
Width: 569
Flags: HMW
HStem: 0 21G<58 188 58 58 384 514 384 384> 732 20G<58 188 188 188>
VStem: 58 130<0 401 0 503 503 752> 384 130<0 358 358 387>
LayerCount: 2
Fore
SplineSet
514 0 m 1,0,-1
 384 0 l 1,1,-1
 384 358 l 2,2,3
 384 450 384 450 312 450 c 1,4,-1
 188 401 l 1,5,-1
 188 0 l 1,6,-1
 58 0 l 1,7,-1
 58 752 l 1,8,-1
 188 752 l 1,9,-1
 188 503 l 1,10,-1
 353 577 l 1,11,12
 441 577 441 577 477.5 527 c 128,-1,13
 514 477 514 477 514 387 c 2,14,-1
 514 0 l 1,0,-1
EndSplineSet
EndChar

StartChar: i
Encoding: 105 105 79
Width: 275
Flags: HMW
HStem: 0 21G<73 203 73 73> 638 151<108 170>
VStem: 73 130<0 550>
LayerCount: 2
Fore
SplineSet
200 774.5 m 128,-1,1
 214 760 214 760 214 713.5 c 128,-1,2
 214 667 214 667 199.5 652.5 c 128,-1,3
 185 638 185 638 138.5 638 c 128,-1,4
 92 638 92 638 77.5 653 c 128,-1,5
 63 668 63 668 63 714 c 128,-1,6
 63 760 63 760 77.5 774.5 c 128,-1,7
 92 789 92 789 139 789 c 128,-1,0
 186 789 186 789 200 774.5 c 128,-1,1
203 0 m 1,8,-1
 73 0 l 1,9,-1
 73 550 l 1,10,-1
 203 550 l 1,11,-1
 203 0 l 1,8,-1
EndSplineSet
EndChar

StartChar: j
Encoding: 106 106 80
Width: 275
Flags: HMW
HStem: -170 110<-23 27 27 43.5 -23 51 -23 27> 638 151<108 170>
VStem: 73 130<-13 550>
LayerCount: 2
Fore
SplineSet
203 550 m 1,0,-1
 203 -21 l 2,1,2
 203 -82 203 -82 164.5 -126 c 128,-1,3
 126 -170 126 -170 51 -170 c 2,4,-1
 -23 -170 l 1,5,-1
 -23 -60 l 1,6,-1
 27 -60 l 2,7,8
 73 -60 73 -60 73 -13 c 2,9,-1
 73 550 l 1,10,-1
 203 550 l 1,0,-1
200 774.5 m 128,-1,12
 214 760 214 760 214 713.5 c 128,-1,13
 214 667 214 667 199.5 652.5 c 128,-1,14
 185 638 185 638 138.5 638 c 128,-1,15
 92 638 92 638 77.5 653 c 128,-1,16
 63 668 63 668 63 714 c 128,-1,17
 63 760 63 760 77.5 774.5 c 128,-1,18
 92 789 92 789 139 789 c 128,-1,11
 186 789 186 789 200 774.5 c 128,-1,12
EndSplineSet
EndChar

StartChar: k
Encoding: 107 107 81
Width: 559
Flags: HMW
HStem: 0 21G<71 201 71 71 408 564 408 408> 732 20G<71 201 201 201>
VStem: 71 130<0 121 277 752>
LayerCount: 2
Fore
SplineSet
564 0 m 1,0,-1
 408 0 l 1,1,-1
 258 202 l 1,2,-1
 201 121 l 1,3,-1
 201 0 l 1,4,-1
 71 0 l 1,5,-1
 71 752 l 1,6,-1
 201 752 l 1,7,-1
 201 277 l 1,8,-1
 383 548 l 1,9,-1
 530 548 l 1,10,-1
 343 292 l 1,11,-1
 564 0 l 1,0,-1
EndSplineSet
EndChar

StartChar: l
Encoding: 108 108 82
Width: 265
Flags: HMW
HStem: -1 21G<68 68> 732 20G<68 198 198 198>
VStem: 68 130<0 0 0 752>
LayerCount: 2
Fore
SplineSet
198 0 m 1,0,-1
 68 -1 l 1,1,-1
 68 752 l 1,2,-1
 198 752 l 1,3,-1
 198 0 l 1,0,-1
EndSplineSet
EndChar

StartChar: m
Encoding: 109 109 83
Width: 876
Flags: HMW
HStem: 0 21G<73 203 73 73 376 506 376 376 679 809 679 679> 450 127<310 379>
VStem: 73 130<0 401 0 571> 376 130<0 355 355 390.5> 679 130<0 355 355 383>
CounterMasks: 1 38
LayerCount: 2
Fore
SplineSet
809 0 m 1,0,-1
 679 0 l 1,1,-1
 679 355 l 2,2,3
 679 408 679 408 666.5 429 c 128,-1,4
 654 450 654 450 623 450 c 1,5,-1
 506 401 l 1,6,-1
 506 0 l 1,7,-1
 376 0 l 1,8,-1
 376 355 l 2,9,10
 376 450 376 450 310 450 c 1,11,-1
 203 401 l 1,12,-1
 203 0 l 1,13,-1
 73 0 l 1,14,-1
 73 571 l 1,15,-1
 170 571 l 1,16,-1
 200 503 l 1,17,-1
 350 577 l 1,18,19
 428 577 428 577 468 501 c 1,20,-1
 654 577 l 1,21,22
 732 577 732 577 770.5 524.5 c 128,-1,23
 809 472 809 472 809 383 c 2,24,-1
 809 0 l 1,0,-1
EndSplineSet
EndChar

StartChar: n
Encoding: 110 110 84
Width: 573
Flags: HMW
HStem: 0 21G<63 193 63 63 386 516 386 386> 557 20G<350 376>
VStem: 63 130<0 401 0 571> 386 130<0 365 365 383>
LayerCount: 2
Fore
SplineSet
516 0 m 1,0,-1
 386 0 l 1,1,-1
 386 365 l 2,2,3
 386 414 386 414 366 432 c 128,-1,4
 346 450 346 450 310 450 c 1,5,-1
 193 401 l 1,6,-1
 193 0 l 1,7,-1
 63 0 l 1,8,-1
 63 571 l 1,9,-1
 160 571 l 1,10,-1
 190 503 l 1,11,-1
 350 577 l 1,12,13
 417 577 417 577 466.5 527.5 c 0,14,15
 516 478 516 478 516 383 c 2,16,-1
 516 0 l 1,0,-1
EndSplineSet
EndChar

StartChar: o
Encoding: 111 111 85
Width: 543
Flags: HMW
HStem: -14 117<225.5 321 225.5 370.5> 462 117<227 321>
VStem: 31 130<226 262 262 314 226 371> 382 130<258 310 310 351>
LayerCount: 2
Fore
SplineSet
382 258 m 2,0,-1
 382 310 l 2,1,2
 382 384 382 384 360.5 423 c 128,-1,3
 339 462 339 462 271 462 c 0,4,5
 161 462 161 462 161 314 c 2,6,-1
 161 262 l 2,7,8
 161 103 161 103 271 103 c 0,9,10
 342.24 103 342.24 103 364.5 156 c 0,11,12
 382 197.666666667 382 197.666666667 382 258 c 2,0,-1
512 288 m 0,13,14
 512 103.018518519 512 103.018518519 442 39.5 c 0,15,16
 383.040816327 -14 383.040816327 -14 271 -14 c 0,17,18
 128.5 -14 128.5 -14 77.5 70 c 0,19,20
 31 146.588235294 31 146.588235294 31 288 c 0,21,22
 31 420.235294118 31 420.235294118 77.5 495 c 0,23,24
 129.743902439 579 129.743902439 579 267.37195122 579 c 128,-1,25
 405 579 405 579 458.5 505.5 c 128,-1,26
 512 432 512 432 512 288 c 0,13,14
EndSplineSet
EndChar

StartChar: p
Encoding: 112 112 86
Width: 560
Flags: HMW
HStem: -170 21G<73 203 73 73> -9 137<299 330 291 394> 450 117<203 291 203 203>
VStem: 73 130<-170 53 185 450> 399 130<228.5 333.5>
LayerCount: 2
Fore
SplineSet
529 301 m 0,0,1
 529 77.9684210526 529 77.9684210526 414.5 16.5 c 0,2,3
 367 -9 367 -9 299 -9 c 1,4,-1
 203 53 l 1,5,-1
 203 -170 l 1,6,-1
 73 -170 l 1,7,-1
 73 567 l 1,8,-1
 329 567 l 2,9,10
 445 567 445 567 487 501.5 c 128,-1,11
 529 436 529 436 529 301 c 0,0,1
399 281 m 0,12,13
 399 450 399 450 291 450 c 2,14,-1
 203 450 l 1,15,-1
 203 185 l 1,16,-1
 291 128 l 1,17,18
 349 128 349 128 374 164.5 c 128,-1,19
 399 201 399 201 399 281 c 0,12,13
EndSplineSet
EndChar

StartChar: q
Encoding: 113 113 87
Width: 561
Flags: HMW
HStem: -169 21G<359 487 359 359> -6 137<219 221> 450 117<220 258 258 357> 555 20G<487 487>
VStem: 30 130<228.5 333.5 228.5 351> 357 130<182 450 450 450 567 567>
LayerCount: 2
Fore
SplineSet
487 -169 m 1,0,-1
 359 -169 l 1,1,-1
 360 69 l 1,2,-1
 221 -6 l 1,3,4
 105.240963855 -6 105.240963855 -6 65 77.5 c 0,5,6
 45 119 45 119 37.5 166.5 c 128,-1,7
 30 214 30 214 30 265.5 c 128,-1,8
 30 317 30 317 31 341.5 c 128,-1,9
 32 366 32 366 36 398.5 c 128,-1,10
 40 431 40 431 47.5 453 c 128,-1,11
 55 475 55 475 69 498.5 c 128,-1,12
 83 522 83 522 102.5 535.5 c 0,13,14
 148 567 148 567 220 567 c 2,15,-1
 357 567 l 1,16,-1
 487 575 l 1,17,-1
 487 -169 l 1,0,-1
357 182 m 1,18,-1
 357 450 l 1,19,-1
 258 450 l 2,20,21
 203 450 203 450 181.5 408 c 128,-1,22
 160 366 160 366 160 282.5 c 128,-1,23
 160 199 160 199 180.5 165 c 128,-1,24
 201 131 201 131 258 131 c 1,25,-1
 357 182 l 1,18,-1
EndSplineSet
EndChar

StartChar: r
Encoding: 114 114 88
Width: 390
Flags: HMW
HStem: 0 21G<53 183 53 53>
VStem: 53 130<0 404 0 571>
LayerCount: 2
Fore
SplineSet
376 569 m 1,0,-1
 340 441 l 1,1,2
 324.518518519 446.975308642 324.518518519 446.975308642 305.86495961 446.975308642 c 0,3,4
 255.839506173 446.975308642 255.839506173 446.975308642 183 404 c 1,5,-1
 183 0 l 1,6,-1
 53 0 l 1,7,-1
 53 571 l 1,8,-1
 150 571 l 1,9,-1
 180 521 l 1,10,-1
 318 578 l 1,11,12
 328.263157895 579.315789474 328.263157895 579.315789474 345.131578947 579.315789474 c 0,13,14
 362 579.315789474 362 579.315789474 376 569 c 1,0,-1
EndSplineSet
EndChar

StartChar: s
Encoding: 115 115 89
Width: 501
Flags: HMW
HStem: -8 102<220 277.5 220 311> -8 182<33 311> 389 190<193.5 456 193.5 343> 470 109<223.5 277.5>
VStem: 44 107 44 126<406 429 406 465.5> 343 113<389 402>
LayerCount: 2
Fore
SplineSet
465 158 m 2,0,-1
 465 143 l 1,1,2
 459 68 459 68 401.5 30 c 128,-1,3
 344 -8 344 -8 258 -8 c 0,4,5
 131.027027027 -8 131.027027027 -8 79.5 38.5 c 0,6,7
 33 80.4634146341 33 80.4634146341 33 162 c 2,8,-1
 33 174 l 1,9,-1
 151 174 l 1,10,11
 151 128 151 128 175 111 c 128,-1,12
 199 94 199 94 258 94 c 0,13,14
 338 94 338 94 338 152 c 0,15,16
 338 199.703703704 338 199.703703704 310.5 216 c 0,17,18
 297 224 297 224 277 228 c 2,19,-1
 176 245 l 1,20,21
 44 266 44 266 44 410 c 0,22,23
 44 490 44 490 102.5 534.5 c 128,-1,24
 161 579 161 579 251 579 c 0,25,26
 456 579 456 579 456 402 c 2,27,-1
 456 389 l 1,28,-1
 343 389 l 1,29,30
 341 436 341 436 318 453 c 128,-1,31
 295 470 295 470 253.5 470 c 128,-1,32
 212 470 212 470 191 453.5 c 128,-1,33
 170 437 170 437 170 417 c 0,34,35
 170 360 170 360 216 352 c 2,36,-1
 337 330 l 2,37,38
 465 306 465 306 465 158 c 2,0,-1
EndSplineSet
EndChar

StartChar: t
Encoding: 116 116 90
Width: 352
Flags: HMW
HStem: 0 110<183 317 260 317 260 317> 449 99<30 85 30 85 215 307> 640 20G<85 215 215 215>
VStem: 85 130<149 157 157 449 548 660> 85 232<0 449>
LayerCount: 2
Fore
SplineSet
317 0 m 1,0,-1
 236 0 l 2,1,2
 162 0 162 0 123.5 44 c 128,-1,3
 85 88 85 88 85 149 c 2,4,-1
 85 449 l 1,5,-1
 30 449 l 1,6,-1
 30 548 l 1,7,-1
 85 548 l 1,8,-1
 85 660 l 1,9,-1
 215 660 l 1,10,-1
 215 548 l 1,11,-1
 307 548 l 1,12,-1
 307 449 l 1,13,-1
 215 449 l 1,14,-1
 215 157 l 2,15,16
 215 110 215 110 260 110 c 2,17,-1
 317 110 l 1,18,-1
 317 0 l 1,0,-1
EndSplineSet
EndChar

StartChar: u
Encoding: 117 117 91
Width: 573
Flags: HMW
HStem: -20 20G<403 500 403 403> -6 21G<187 213> 551 20G<47 177 177 177 370 500 500 500>
VStem: 47 130<188 216 216 571> 370 130<184 571>
LayerCount: 2
Fore
SplineSet
500 0 m 1,0,-1
 403 0 l 1,1,-1
 373 68 l 1,2,-1
 213 -6 l 1,3,4
 146 -6 146 -6 96.5 43.5 c 0,5,6
 47 93 47 93 47 188 c 2,7,-1
 47 571 l 1,8,-1
 177 571 l 1,9,-1
 177 216 l 2,10,11
 177 121 177 121 253 121 c 1,12,-1
 370 184 l 1,13,-1
 370 571 l 1,14,-1
 500 571 l 1,15,-1
 500 0 l 1,0,-1
EndSplineSet
EndChar

StartChar: v
Encoding: 118 118 92
Width: 493
Flags: HMW
HStem: 0 21G<196 298 196 196> 551 20G<4 141 141 141 352 489 489 489>
LayerCount: 2
Fore
SplineSet
489 571 m 1,0,-1
 298 0 l 1,1,-1
 196 0 l 1,2,-1
 4 571 l 1,3,-1
 141 571 l 1,4,-1
 247 199 l 1,5,-1
 352 571 l 1,6,-1
 489 571 l 1,0,-1
EndSplineSet
EndChar

StartChar: w
Encoding: 119 119 93
Width: 759
Flags: HMW
HStem: 0 21G<164 271 164 164 489 596 489 489> 551 20G<4 142 142 142 364 398.5 618 755 755 755>
LayerCount: 2
Fore
SplineSet
755 571 m 1,0,-1
 596 0 l 1,1,-1
 489 0 l 1,2,-1
 380 347 l 1,3,-1
 271 0 l 1,4,-1
 164 0 l 1,5,-1
 4 571 l 1,6,-1
 142 571 l 1,7,-1
 226 199 l 1,8,-1
 313 505 l 1,9,10
 328 571 328 571 381 571 c 0,11,12
 406 571 406 571 421 555 c 128,-1,13
 436 539 436 539 446 505 c 2,14,-1
 534 199 l 1,15,-1
 618 571 l 1,16,-1
 755 571 l 1,0,-1
EndSplineSet
EndChar

StartChar: x
Encoding: 120 120 94
Width: 527
Flags: HMW
HStem: 0 21G<12 168 12 12 364 510 364 364> 551 20G<19 165 165 165 362 508 508 508>
LayerCount: 2
Fore
SplineSet
510 0 m 1,0,-1
 364 0 l 1,1,-1
 263 175 l 1,2,-1
 168 0 l 1,3,-1
 12 0 l 1,4,-1
 197 291 l 1,5,-1
 19 571 l 1,6,-1
 165 571 l 1,7,-1
 265 406 l 1,8,-1
 362 571 l 1,9,-1
 508 571 l 1,10,-1
 330 291 l 1,11,-1
 510 0 l 1,0,-1
EndSplineSet
EndChar

StartChar: y
Encoding: 121 121 95
Width: 494
Flags: HMW
HStem: -171 117<61 101 101 119.5 61 122 61 101> 551 20G<4 141 141 141 353 490 490 490>
LayerCount: 2
Fore
SplineSet
490 571 m 1,0,-1
 273 -64 l 2,1,2
 258 -107 258 -107 234 -131 c 0,3,4
 194 -171 194 -171 122 -171 c 2,5,-1
 61 -171 l 1,6,-1
 61 -54 l 1,7,-1
 101 -54 l 2,8,9
 129 -54 129 -54 142.5 -44.5 c 128,-1,10
 156 -35 156 -35 166 -7 c 2,11,-1
 176 21 l 1,12,-1
 4 571 l 1,13,-1
 141 571 l 1,14,-1
 243 174 l 1,15,-1
 353 571 l 1,16,-1
 490 571 l 1,0,-1
EndSplineSet
EndChar

StartChar: z
Encoding: 122 122 96
Width: 478
Flags: HMW
HStem: 0 112<88 434 160 434 160 434> 459 112<50 288 50 444>
LayerCount: 2
Fore
SplineSet
434 0 m 1,0,-1
 123 0 l 2,1,2
 72 0 72 0 44.5 21.5 c 128,-1,3
 17 43 17 43 17 82 c 0,4,5
 17 121 17 121 50 164 c 1,6,-1
 288 459 l 1,7,-1
 50 459 l 1,8,-1
 50 571 l 1,9,-1
 444 571 l 1,10,-1
 444 472 l 1,11,-1
 160 112 l 1,12,-1
 434 112 l 1,13,-1
 434 0 l 1,0,-1
EndSplineSet
EndChar

StartChar: eth
Encoding: 240 240 97
Width: 549
Flags: HMW
HStem: -6 127<220 259 220 295> 430 117<221 259 259 358> 732 20G<266 396 396 396>
VStem: 31 130<218.5 313.5 218.5 331>
LayerCount: 2
Fore
SplineSet
358 152 m 1,0,-1
 358 430 l 1,1,-1
 259 430 l 2,2,3
 161 430 161 430 161 271 c 0,4,5
 161 189 161 189 181.5 155 c 128,-1,6
 202 121 202 121 259 121 c 1,7,8
 264 122 264 122 277 123 c 128,-1,9
 290 124 290 124 294 124.5 c 128,-1,10
 298 125 298 125 308 127 c 128,-1,11
 318 129 318 129 322.5 130.5 c 128,-1,12
 327 132 327 132 334.5 135 c 0,13,14
 345.333333333 139.333333333 345.333333333 139.333333333 358 152 c 1,0,-1
249 582 m 1,15,-1
 249 658 l 1,16,-1
 312 679 l 1,17,18
 298 704 298 704 266 752 c 1,19,-1
 396 752 l 1,20,-1
 419 716 l 1,21,-1
 500 743 l 1,22,-1
 500 667 l 1,23,-1
 451 650 l 1,24,25
 488 553 488 553 488 430 c 2,26,-1
 488 109 l 1,27,28
 387 -6 387 -6 259 -6 c 0,29,30
 116.708860759 -6 116.708860759 -6 71 72.5 c 0,31,32
 48 112 48 112 39.5 157.5 c 128,-1,33
 31 203 31 203 31 252.5 c 128,-1,34
 31 302 31 302 32 324.5 c 128,-1,35
 33 347 33 347 37 378 c 128,-1,36
 41 409 41 409 48.5 430.5 c 128,-1,37
 56 452 56 452 70 475.5 c 128,-1,38
 84 499 84 499 103.5 513.5 c 0,39,40
 148.551724138 547 148.551724138 547 221 547 c 2,41,-1
 358 547 l 1,42,43
 353 580 353 580 341 613 c 1,44,-1
 249 582 l 1,15,-1
EndSplineSet
EndChar

StartChar: thorn
Encoding: 254 254 98
Width: 562
Flags: HMW
HStem: -191 21G<73 203 73 73> -6 127<329 340 291 423> 410 117<203 421.5 203 421.5> 731 20G<73 203 203 203>
VStem: 73 130<-191 66 -191 171 171 410 475 751> 399 130<213.5 313.5>
LayerCount: 2
Fore
SplineSet
526 360 m 0,0,1
 529 323 529 323 529 268 c 128,-1,2
 529 213 529 213 527 182.5 c 128,-1,3
 525 152 525 152 519 118 c 128,-1,4
 513 84 513 84 499.5 64 c 128,-1,5
 486 44 486 44 464.5 26.5 c 0,6,7
 424.571428571 -6 424.571428571 -6 329 -6 c 1,8,-1
 203 66 l 1,9,-1
 203 -191 l 1,10,-1
 73 -191 l 1,11,-1
 73 751 l 1,12,-1
 203 751 l 1,13,-1
 203 475 l 1,14,15
 250 527 250 527 329 527 c 0,16,17
 431.722222222 527 431.722222222 527 479.5 487 c 0,18,19
 518.339177343 454.483479434 518.339177343 454.483479434 526 360 c 0,0,1
379.5 151.5 m 128,-1,21
 399 182 399 182 399 264.5 c 128,-1,22
 399 347 399 347 379.5 378.5 c 128,-1,23
 360 410 360 410 291 410 c 2,24,-1
 203 410 l 1,25,-1
 203 171 l 1,26,-1
 291 121 l 1,27,20
 360 121 360 121 379.5 151.5 c 128,-1,21
EndSplineSet
EndChar

StartChar: germandbls
Encoding: 223 223 99
Width: 600
Flags: HMW
HStem: -10 21G<297 349 297 297> 0 100<73 323> 343 102<295 311 295 324> 605 113<250.5 307.5>
VStem: 73 130<0 501 0 511 0 585.5> 297 188 355 130<508 552.5> 415 131<178.5 260>
LayerCount: 2
Fore
SplineSet
546 217 m 0,0,1
 546 -10 546 -10 349 -10 c 2,2,-1
 297 -10 l 1,3,-1
 297 100 l 1,4,-1
 323 100 l 2,5,6
 364 100 364 100 389.5 130.5 c 128,-1,7
 415 161 415 161 415 219 c 0,8,9
 415 277 415 277 379 310 c 128,-1,10
 343 343 343 343 295 343 c 1,11,-1
 295 445 l 1,12,13
 319 445 319 445 337 471 c 128,-1,14
 355 497 355 497 355 531 c 0,15,16
 355 565 355 565 336.5 585 c 128,-1,17
 318 605 318 605 277.5 605 c 0,18,19
 237 605 237 605 220 578 c 128,-1,20
 203 551 203 551 203 501 c 2,21,-1
 203 0 l 1,22,-1
 73 0 l 1,23,-1
 73 511 l 2,24,25
 73 718 73 718 285 718 c 0,26,27
 485 718 485 718 485 533 c 0,28,29
 485 490 485 490 467 455.5 c 128,-1,30
 449 421 449 421 424 406 c 1,31,32
 546 343 546 343 546 217 c 0,0,1
EndSplineSet
EndChar

StartChar: ae
Encoding: 230 230 100
Width: 854
Flags: HMW
HStem: -5 100 -5 204 255 89<488 702 488 818 488 702> 382 196 475 103<570 635.5> 559 20G<187.5 298>
VStem: 41 111 358 130<202.5 253 253 253 360 383 383 400> 702 118<344 399>
LayerCount: 2
Fore
SplineSet
358 169 m 1,0,-1
 358 253 l 1,1,-1
 235 253 l 2,2,3
 195 253 195 253 173.5 226.5 c 128,-1,4
 152 200 152 200 152 169 c 128,-1,5
 152 138 152 138 171.5 119.5 c 128,-1,6
 191 101 191 101 228 101 c 1,7,-1
 358 169 l 1,0,-1
488 344 m 1,8,-1
 702 344 l 1,9,10
 702 423 702 423 679 449 c 128,-1,11
 656 475 656 475 601.5 475 c 128,-1,12
 547 475 547 475 517.5 448 c 128,-1,13
 488 421 488 421 488 344 c 1,8,-1
818 255 m 1,14,-1
 488 255 l 1,15,16
 488 168 488 168 511 131.5 c 128,-1,17
 534 95 534 95 608 95 c 0,18,19
 660 95 660 95 681 120.5 c 128,-1,20
 702 146 702 146 702 199 c 1,21,-1
 819 199 l 1,22,23
 819 86 819 86 763.053921569 36.4901960784 c 128,-1,24
 707.107843137 -13.0196078431 707.107843137 -13.0196078431 610.866013072 -13.0196078431 c 0,25,26
 527.442316461 -13.0196078431 527.442316461 -13.0196078431 474.721158231 8.99019607843 c 128,-1,27
 422 31 422 31 395 83 c 1,28,-1
 213 -5 l 1,29,30
 135 -5 135 -5 83 39.5 c 128,-1,31
 31 84 31 84 31 159 c 128,-1,32
 31 234 31 234 77.5 290 c 128,-1,33
 124 346 124 346 215 346 c 2,34,-1
 357 346 l 1,35,36
 358 351 358 351 358 360 c 2,37,-1
 358 383 l 2,38,39
 358 472 358 472 261 472 c 0,40,41
 200 472 200 472 174.5 451.5 c 128,-1,42
 149 431 149 431 149 382 c 1,43,-1
 41 382 l 1,44,45
 41 478 41 478 96.5 528.5 c 128,-1,46
 152 579 152 579 261 579 c 128,-1,47
 370 579 370 579 430 525 c 1,48,49
 490 578 490 578 603 578 c 0,50,51
 820 578 820 578 820 337 c 0,52,53
 820 311 820 311 818 255 c 1,14,-1
EndSplineSet
EndChar

StartChar: oe
Encoding: 339 339 101
Width: 881
Flags: HMW
HStem: -14 117<220.5 312.5> -14 213 255 89<512 726 512 842 512 726> 462 116 475 103<594 659.5> 559 20G<173.5 312>
VStem: 31 130<221 262 262 314 221 371> 382 130<202.5 310 344 356> 726 118<344 399>
LayerCount: 2
Fore
SplineSet
382 258 m 2,0,-1
 382 310 l 2,1,2
 382 414.695652174 382 414.695652174 357.5 436 c 0,3,4
 327.6 462 327.6 462 265.8 462 c 128,-1,5
 204 462 204 462 182.5 425.5 c 128,-1,6
 161 389 161 389 161 314 c 2,7,-1
 161 262 l 2,8,9
 161 195.5 161 195.5 178 153 c 0,10,11
 198 103 198 103 271 103 c 0,12,13
 330.28 103 330.28 103 358 134.5 c 0,14,15
 377.611620795 156.785932722 377.611620795 156.785932722 381 211 c 0,16,17
 382 227 382 227 382 258 c 2,0,-1
512 344 m 1,18,-1
 726 344 l 1,19,20
 726 423 726 423 703 449 c 128,-1,21
 680 475 680 475 625.5 475 c 128,-1,22
 571 475 571 475 541.5 448 c 128,-1,23
 512 421 512 421 512 344 c 1,18,-1
634.866013072 -13.0196078431 m 0,24,25
 501.982887701 -13.0196078431 501.982887701 -13.0196078431 446 44 c 1,26,27
 390 -14 390 -14 271 -14 c 0,28,29
 128.5 -14 128.5 -14 77.5 70 c 0,30,31
 31 146.588235294 31 146.588235294 31 288 c 0,32,33
 31 420.235294118 31 420.235294118 77.5 495 c 0,34,35
 129.743902439 579 129.743902439 579 271 579 c 0,36,37
 388 579 388 579 446 518 c 1,38,39
 506 578 506 578 627 578 c 0,40,41
 844 578 844 578 844 337 c 0,42,43
 844 311 844 311 842 255 c 1,44,-1
 512 255 l 1,45,46
 512 168 512 168 535 131.5 c 128,-1,47
 558 95 558 95 632 95 c 0,48,49
 684 95 684 95 705 120.5 c 128,-1,50
 726 146 726 146 726 199 c 1,51,-1
 843 199 l 1,52,53
 843 86 843 86 787.053921569 36.4901960784 c 128,-1,54
 731.107843137 -13.0196078431 731.107843137 -13.0196078431 634.866013072 -13.0196078431 c 0,24,25
EndSplineSet
EndChar

StartChar: ff
Encoding: 64256 64256 102
Width: 675
Flags: HMW
HStem: 0 21G<79 209 79 79 401 531 401 401> 450 99<25 79 25 79 209 401 531 637> 643 110<238.5 254 254 315 560.5 576 576 637>
VStem: 79 130<0 450 0 450 549 596> 79 236<0 753 450 753 549 753 604 753> 401 130<0 450 0 450 549 596> 401 236<0 450 450 450 450 604 450 641>
LayerCount: 2
Fore
SplineSet
637 450 m 1,0,-1
 531 450 l 1,1,-1
 531 0 l 1,2,-1
 401 0 l 1,3,-1
 401 450 l 1,4,-1
 209 450 l 1,5,-1
 209 0 l 1,6,-1
 79 0 l 1,7,-1
 79 450 l 1,8,-1
 25 450 l 1,9,-1
 25 549 l 1,10,-1
 79 549 l 1,11,-1
 79 604 l 2,12,13
 79 665 79 665 118 709 c 128,-1,14
 157 753 157 753 231 753 c 2,15,-1
 315 753 l 1,16,-1
 315 643 l 1,17,-1
 254 643 l 2,18,19
 209 643 209 643 209 596 c 2,20,-1
 209 549 l 1,21,-1
 401 549 l 1,22,-1
 401 604 l 2,23,24
 401 665 401 665 440 709 c 128,-1,25
 479 753 479 753 553 753 c 2,26,-1
 637 753 l 1,27,-1
 637 643 l 1,28,-1
 576 643 l 2,29,30
 531 643 531 643 531 596 c 2,31,-1
 531 549 l 1,32,-1
 637 549 l 1,33,-1
 637 450 l 1,0,-1
EndSplineSet
EndChar

StartChar: fi
Encoding: 64257 64257 103
Width: 602
Flags: HMW
HStem: 0 21G<79 209 79 79 399 529 399 399> 450 99<25 79 25 79 209 399> 636 117 636 151<435 497>
VStem: 79 130<0 450 0 450 549 596> 79 236<0 753 450 753 549 753 604 753> 399 130<0 450 450 450> 399 142
LayerCount: 2
Fore
SplineSet
529 0 m 1,0,-1
 399 0 l 1,1,-1
 399 450 l 1,2,-1
 209 450 l 1,3,-1
 209 0 l 1,4,-1
 79 0 l 1,5,-1
 79 450 l 1,6,-1
 25 450 l 1,7,-1
 25 549 l 1,8,-1
 79 549 l 1,9,-1
 79 604 l 2,10,11
 79 665 79 665 118 709 c 128,-1,12
 157 753 157 753 231 753 c 2,13,-1
 315 753 l 1,14,-1
 315 643 l 1,15,-1
 254 643 l 2,16,17
 209 643 209 643 209 596 c 2,18,-1
 209 549 l 1,19,-1
 529 549 l 1,20,-1
 529 0 l 1,0,-1
526.5 772.5 m 128,-1,22
 541 758 541 758 541 711.5 c 128,-1,23
 541 665 541 665 526.5 650.5 c 128,-1,24
 512 636 512 636 466 636 c 128,-1,25
 420 636 420 636 405 651 c 128,-1,26
 390 666 390 666 390 712 c 128,-1,27
 390 758 390 758 404.5 772.5 c 128,-1,28
 419 787 419 787 465.5 787 c 128,-1,21
 512 787 512 787 526.5 772.5 c 128,-1,22
EndSplineSet
EndChar

StartChar: fj
Encoding: 65537 -1 104
Width: 698
Flags: HMW
HStem: -170 110<303 353 353 369.5 303 377 303 353> -20 20G<79 209 79 79> 450 99<25 79 25 79 209 399> 636 117 636 151<435 497>
VStem: 79 130<0 450 0 450 549 596> 79 236<0 753 450 753 549 753 604 753> 399 130<-13 450 450 450> 399 142
LayerCount: 2
Fore
SplineSet
526.5 772.5 m 128,-1,1
 541 758 541 758 541 711.5 c 128,-1,2
 541 665 541 665 526.5 650.5 c 128,-1,3
 512 636 512 636 466 636 c 128,-1,4
 420 636 420 636 405 651 c 128,-1,5
 390 666 390 666 390 712 c 128,-1,6
 390 758 390 758 404.5 772.5 c 128,-1,7
 419 787 419 787 465.5 787 c 128,-1,0
 512 787 512 787 526.5 772.5 c 128,-1,1
529 549 m 1,8,-1
 529 -21 l 2,9,10
 529 -82 529 -82 490.5 -126 c 128,-1,11
 452 -170 452 -170 377 -170 c 2,12,-1
 303 -170 l 1,13,-1
 303 -60 l 1,14,-1
 353 -60 l 2,15,16
 399 -60 399 -60 399 -13 c 2,17,-1
 399 450 l 1,18,-1
 209 450 l 1,19,-1
 209 0 l 1,20,-1
 79 0 l 1,21,-1
 79 450 l 1,22,-1
 25 450 l 1,23,-1
 25 549 l 1,24,-1
 79 549 l 1,25,-1
 79 604 l 2,26,27
 79 665 79 665 118 709 c 128,-1,28
 157 753 157 753 231 753 c 2,29,-1
 315 753 l 1,30,-1
 315 643 l 1,31,-1
 254 643 l 2,32,33
 209 643 209 643 209 596 c 2,34,-1
 209 549 l 1,35,-1
 529 549 l 1,8,-1
EndSplineSet
EndChar

StartChar: fl
Encoding: 64258 64258 105
Width: 598
Flags: HMW
HStem: 0 21G<79 209 79 79 399 529 399 399> 450 99<25 79 25 79 209 315> 643 109<238.5 254 254 399>
VStem: 79 130<0 450 0 450 549 596> 399 130<0 643 643 643>
LayerCount: 2
Fore
SplineSet
529 0 m 1,0,-1
 399 0 l 1,1,-1
 399 643 l 1,2,-1
 254 643 l 2,3,4
 209 643 209 643 209 596 c 2,5,-1
 209 549 l 1,6,-1
 315 549 l 1,7,-1
 315 450 l 1,8,-1
 209 450 l 1,9,-1
 209 0 l 1,10,-1
 79 0 l 1,11,-1
 79 450 l 1,12,-1
 25 450 l 1,13,-1
 25 549 l 1,14,-1
 79 549 l 1,15,-1
 79 604 l 2,16,17
 79 665 79 665 118 708.5 c 128,-1,18
 157 752 157 752 231 752 c 2,19,-1
 529 752 l 1,20,-1
 529 0 l 1,0,-1
EndSplineSet
EndChar

StartChar: ffi
Encoding: 64259 64259 106
Width: 911
Flags: HMW
HStem: 0 21G<79 209 79 79 398 528 398 398 718 848 718 718> 450 99<25 79 25 79 209 398 528 718> 636 117 636 151<754 816>
VStem: 79 130<0 450 0 450 549 596> 79 236<0 753 450 753 549 753 604 753> 398 130<0 450 0 450 549 596> 398 236<0 753 450 753 549 753 604 753> 718 130<0 450 450 450> 718 142
LayerCount: 2
Fore
SplineSet
846 772.5 m 128,-1,1
 860 758 860 758 860 711.5 c 128,-1,2
 860 665 860 665 845.5 650.5 c 128,-1,3
 831 636 831 636 784.5 636 c 128,-1,4
 738 636 738 636 723.5 651 c 128,-1,5
 709 666 709 666 709 712 c 128,-1,6
 709 758 709 758 723.5 772.5 c 128,-1,7
 738 787 738 787 785 787 c 128,-1,0
 832 787 832 787 846 772.5 c 128,-1,1
848 0 m 1,8,-1
 718 0 l 1,9,-1
 718 450 l 1,10,-1
 528 450 l 1,11,-1
 528 0 l 1,12,-1
 398 0 l 1,13,-1
 398 450 l 1,14,-1
 209 450 l 1,15,-1
 209 0 l 1,16,-1
 79 0 l 1,17,-1
 79 450 l 1,18,-1
 25 450 l 1,19,-1
 25 549 l 1,20,-1
 79 549 l 1,21,-1
 79 604 l 2,22,23
 79 665 79 665 118 709 c 128,-1,24
 157 753 157 753 231 753 c 2,25,-1
 315 753 l 1,26,-1
 315 643 l 1,27,-1
 254 643 l 2,28,29
 209 643 209 643 209 596 c 2,30,-1
 209 549 l 1,31,-1
 398 549 l 1,32,-1
 398 604 l 2,33,34
 398 665 398 665 437 709 c 128,-1,35
 476 753 476 753 550 753 c 2,36,-1
 634 753 l 1,37,-1
 634 643 l 1,38,-1
 573 643 l 2,39,40
 528 643 528 643 528 596 c 2,41,-1
 528 549 l 1,42,-1
 848 549 l 1,43,-1
 848 0 l 1,8,-1
EndSplineSet
EndChar

StartChar: ffl
Encoding: 64260 64260 107
Width: 906
Flags: HMW
HStem: -20 20G<79 209 79 79 397 527 397 397 847 847> -1 21G<717 717> 450 99<25 79 25 79 209 397 527 633> 643 109<556.5 572 572 717> 733 20G<231 315 315 315>
VStem: 79 130<0 450 0 450 549 596> 79 236<0 753 450 753 549 753 604 753> 397 130<0 450 0 450 549 596> 717 130<0 0 0 643 643 643>
LayerCount: 2
Fore
SplineSet
847 0 m 1,0,-1
 717 -1 l 1,1,-1
 717 643 l 1,2,-1
 572 643 l 2,3,4
 527 643 527 643 527 596 c 2,5,-1
 527 549 l 1,6,-1
 633 549 l 1,7,-1
 633 450 l 1,8,-1
 527 450 l 1,9,-1
 527 0 l 1,10,-1
 397 0 l 1,11,-1
 397 450 l 1,12,-1
 209 450 l 1,13,-1
 209 0 l 1,14,-1
 79 0 l 1,15,-1
 79 450 l 1,16,-1
 25 450 l 1,17,-1
 25 549 l 1,18,-1
 79 549 l 1,19,-1
 79 604 l 2,20,21
 79 665 79 665 118 709 c 128,-1,22
 157 753 157 753 231 753 c 2,23,-1
 315 753 l 1,24,-1
 315 643 l 1,25,-1
 254 643 l 2,26,27
 209 643 209 643 209 596 c 2,28,-1
 209 549 l 1,29,-1
 397 549 l 1,30,-1
 397 604 l 2,31,32
 397 665 397 665 436 708.5 c 128,-1,33
 475 752 475 752 549 752 c 2,34,-1
 847 752 l 1,35,-1
 847 0 l 1,0,-1
EndSplineSet
EndChar

StartChar: agrave
Encoding: 224 224 108
Width: 534
Flags: HMW
HStem: -20 20G<379 466 379 379> -6 137<198 200> 450 117<199 237 237 336> 628 154<113 272>
VStem: 9 130<228.5 333.5 228.5 351> 336 130<182 450 450 450 567 567>
LayerCount: 2
Fore
SplineSet
187 676 m 2,0,-1
 113 782 l 1,1,-1
 250 782 l 1,2,-1
 288 676 l 2,3,4
 292 664 292 664 292 654 c 0,5,6
 292 628 292 628 264 628 c 0,7,8
 221 628 221 628 187 676 c 2,0,-1
466 0 m 1,9,-1
 379 0 l 1,10,-1
 339 69 l 1,11,-1
 200 -6 l 1,12,13
 84.2409638554 -6 84.2409638554 -6 44 77.5 c 0,14,15
 24 119 24 119 16.5 166.5 c 128,-1,16
 9 214 9 214 9 265.5 c 128,-1,17
 9 317 9 317 10 341.5 c 128,-1,18
 11 366 11 366 15 398.5 c 128,-1,19
 19 431 19 431 26.5 453 c 128,-1,20
 34 475 34 475 48 498.5 c 128,-1,21
 62 522 62 522 81.5 535.5 c 0,22,23
 127 567 127 567 199 567 c 2,24,-1
 336 567 l 1,25,-1
 466 575 l 1,26,-1
 466 0 l 1,9,-1
336 182 m 1,27,-1
 336 450 l 1,28,-1
 237 450 l 2,29,30
 182 450 182 450 160.5 408 c 128,-1,31
 139 366 139 366 139 282.5 c 128,-1,32
 139 199 139 199 159.5 165 c 128,-1,33
 180 131 180 131 237 131 c 1,34,-1
 336 182 l 1,27,-1
EndSplineSet
EndChar

StartChar: acircumflex
Encoding: 226 226 109
Width: 534
Flags: HMW
HStem: -20 20G<379 466 379 379> -6 137<198 200> 450 117<199 237 237 336> 763 20G<209 313 313 313>
VStem: 9 130<228.5 333.5 228.5 351> 336 130<182 450 450 450 567 567>
LayerCount: 2
Fore
SplineSet
261 718 m 1,0,-1
 216 662 l 2,1,2
 177 614 177 614 139 614 c 0,3,4
 126 614 126 614 118 623 c 128,-1,5
 110 632 110 632 110 643 c 128,-1,6
 110 654 110 654 115 662 c 2,7,-1
 209 783 l 1,8,-1
 313 783 l 1,9,-1
 407 662 l 2,10,11
 412 654 412 654 412 643.5 c 128,-1,12
 412 633 412 633 403.5 623.5 c 128,-1,13
 395 614 395 614 383 614 c 0,14,15
 345 614 345 614 306 662 c 2,16,-1
 261 718 l 1,0,-1
466 0 m 1,17,-1
 379 0 l 1,18,-1
 339 69 l 1,19,-1
 200 -6 l 1,20,21
 84.2409638554 -6 84.2409638554 -6 44 77.5 c 0,22,23
 24 119 24 119 16.5 166.5 c 128,-1,24
 9 214 9 214 9 265.5 c 128,-1,25
 9 317 9 317 10 341.5 c 128,-1,26
 11 366 11 366 15 398.5 c 128,-1,27
 19 431 19 431 26.5 453 c 128,-1,28
 34 475 34 475 48 498.5 c 128,-1,29
 62 522 62 522 81.5 535.5 c 0,30,31
 127 567 127 567 199 567 c 2,32,-1
 336 567 l 1,33,-1
 466 575 l 1,34,-1
 466 0 l 1,17,-1
336 182 m 1,35,-1
 336 450 l 1,36,-1
 237 450 l 2,37,38
 182 450 182 450 160.5 408 c 128,-1,39
 139 366 139 366 139 282.5 c 128,-1,40
 139 199 139 199 159.5 165 c 128,-1,41
 180 131 180 131 237 131 c 1,42,-1
 336 182 l 1,35,-1
EndSplineSet
EndChar

StartChar: aacute
Encoding: 225 225 110
Width: 534
Flags: HMW
HStem: -20 20G<379 466 379 379> -6 137<198 200> 450 117<199 237 237 336> 628 154<243 402>
VStem: 9 130<228.5 333.5 228.5 351> 336 130<182 450 450 450 567 567>
LayerCount: 2
Fore
SplineSet
402 782 m 1,0,-1
 328 676 l 2,1,2
 294 628 294 628 251 628 c 0,3,4
 223 628 223 628 223 654 c 0,5,6
 223 664 223 664 227 676 c 2,7,-1
 265 782 l 1,8,-1
 402 782 l 1,0,-1
466 0 m 1,9,-1
 379 0 l 1,10,-1
 339 69 l 1,11,-1
 200 -6 l 1,12,13
 84.2409638554 -6 84.2409638554 -6 44 77.5 c 0,14,15
 24 119 24 119 16.5 166.5 c 128,-1,16
 9 214 9 214 9 265.5 c 128,-1,17
 9 317 9 317 10 341.5 c 128,-1,18
 11 366 11 366 15 398.5 c 128,-1,19
 19 431 19 431 26.5 453 c 128,-1,20
 34 475 34 475 48 498.5 c 128,-1,21
 62 522 62 522 81.5 535.5 c 0,22,23
 127 567 127 567 199 567 c 2,24,-1
 336 567 l 1,25,-1
 466 575 l 1,26,-1
 466 0 l 1,9,-1
336 182 m 1,27,-1
 336 450 l 1,28,-1
 237 450 l 2,29,30
 182 450 182 450 160.5 408 c 128,-1,31
 139 366 139 366 139 282.5 c 128,-1,32
 139 199 139 199 159.5 165 c 128,-1,33
 180 131 180 131 237 131 c 1,34,-1
 336 182 l 1,27,-1
EndSplineSet
EndChar

StartChar: adieresis
Encoding: 228 228 111
Width: 534
Flags: HMW
HStem: -20 20G<379 466 379 379> -6 137<198 200> 450 117<199 237 237 336> 627 134<129.5 166.5 355.5 392.5>
VStem: 9 130<228.5 333.5 228.5 351> 81 134<665.5 722.5> 307 134<665.5 722.5> 336 130<182 450 450 450 567 567>
LayerCount: 2
Fore
SplineSet
441 694 m 128,-1,1
 441 655 441 655 423.5 641 c 128,-1,2
 406 627 406 627 374 627 c 128,-1,3
 342 627 342 627 324.5 641 c 128,-1,4
 307 655 307 655 307 694 c 128,-1,5
 307 733 307 733 324.5 747 c 128,-1,6
 342 761 342 761 374 761 c 128,-1,7
 406 761 406 761 423.5 747 c 128,-1,0
 441 733 441 733 441 694 c 128,-1,1
215 694 m 128,-1,9
 215 655 215 655 197.5 641 c 128,-1,10
 180 627 180 627 148 627 c 128,-1,11
 116 627 116 627 98.5 641 c 128,-1,12
 81 655 81 655 81 694 c 128,-1,13
 81 733 81 733 98.5 747 c 128,-1,14
 116 761 116 761 148 761 c 128,-1,15
 180 761 180 761 197.5 747 c 128,-1,8
 215 733 215 733 215 694 c 128,-1,9
466 0 m 1,16,-1
 379 0 l 1,17,-1
 339 69 l 1,18,-1
 200 -6 l 1,19,20
 84.2409638554 -6 84.2409638554 -6 44 77.5 c 0,21,22
 24 119 24 119 16.5 166.5 c 128,-1,23
 9 214 9 214 9 265.5 c 128,-1,24
 9 317 9 317 10 341.5 c 128,-1,25
 11 366 11 366 15 398.5 c 128,-1,26
 19 431 19 431 26.5 453 c 128,-1,27
 34 475 34 475 48 498.5 c 128,-1,28
 62 522 62 522 81.5 535.5 c 0,29,30
 127 567 127 567 199 567 c 2,31,-1
 336 567 l 1,32,-1
 466 575 l 1,33,-1
 466 0 l 1,16,-1
336 182 m 1,34,-1
 336 450 l 1,35,-1
 237 450 l 2,36,37
 182 450 182 450 160.5 408 c 128,-1,38
 139 366 139 366 139 282.5 c 128,-1,39
 139 199 139 199 159.5 165 c 128,-1,40
 180 131 180 131 237 131 c 1,41,-1
 336 182 l 1,34,-1
EndSplineSet
EndChar

StartChar: atilde
Encoding: 227 227 112
Width: 534
Flags: HMW
HStem: -20 20G<379 466 379 379> -6 137<198 200> 450 117<199 237 237 336> 615 86<323.5 346 323.5 347> 656 87<180.5 201.5>
VStem: 9 130<228.5 333.5 228.5 351> 336 130<182 450 450 450 567 567>
LayerCount: 2
Fore
SplineSet
395 724 m 1,0,-1
 441 674 l 1,1,2
 382 615 382 615 328 615 c 0,3,4
 291 615 291 615 255.5 635.5 c 128,-1,5
 220 656 220 656 188.5 656 c 128,-1,6
 157 656 157 656 130 632 c 1,7,-1
 80 684 l 1,8,9
 113 717 113 717 138 730 c 128,-1,10
 163 743 163 743 197 743 c 128,-1,11
 231 743 231 743 266.5 722 c 128,-1,12
 302 701 302 701 336.5 701 c 128,-1,13
 371 701 371 701 395 724 c 1,0,-1
466 0 m 1,14,-1
 379 0 l 1,15,-1
 339 69 l 1,16,-1
 200 -6 l 1,17,18
 84.2409638554 -6 84.2409638554 -6 44 77.5 c 0,19,20
 24 119 24 119 16.5 166.5 c 128,-1,21
 9 214 9 214 9 265.5 c 128,-1,22
 9 317 9 317 10 341.5 c 128,-1,23
 11 366 11 366 15 398.5 c 128,-1,24
 19 431 19 431 26.5 453 c 128,-1,25
 34 475 34 475 48 498.5 c 128,-1,26
 62 522 62 522 81.5 535.5 c 0,27,28
 127 567 127 567 199 567 c 2,29,-1
 336 567 l 1,30,-1
 466 575 l 1,31,-1
 466 0 l 1,14,-1
336 182 m 1,32,-1
 336 450 l 1,33,-1
 237 450 l 2,34,35
 182 450 182 450 160.5 408 c 128,-1,36
 139 366 139 366 139 282.5 c 128,-1,37
 139 199 139 199 159.5 165 c 128,-1,38
 180 131 180 131 237 131 c 1,39,-1
 336 182 l 1,32,-1
EndSplineSet
EndChar

StartChar: aring
Encoding: 229 229 113
Width: 534
Flags: HMW
HStem: -20 20G<379 466 379 379> -6 137<198 200> 450 117<199 237 237 336> 584 72<245 277 245 297> 773 73<245 277>
VStem: 9 130<228.5 333.5 228.5 351> 130 73<689 741 689 766> 319 73<689 741> 336 130<182 450 450 450 567 567>
LayerCount: 2
Fore
SplineSet
392 715 m 128,-1,1
 392 584 392 584 261 584 c 128,-1,2
 130 584 130 584 130 715 c 128,-1,3
 130 846 130 846 261 846 c 128,-1,0
 392 846 392 846 392 715 c 128,-1,1
319 715 m 128,-1,5
 319 751 319 751 304.5 762 c 128,-1,6
 290 773 290 773 261 773 c 128,-1,7
 232 773 232 773 217.5 762 c 128,-1,8
 203 751 203 751 203 715 c 128,-1,9
 203 679 203 679 218 667.5 c 128,-1,10
 233 656 233 656 261 656 c 128,-1,11
 289 656 289 656 304 667.5 c 128,-1,4
 319 679 319 679 319 715 c 128,-1,5
466 0 m 1,12,-1
 379 0 l 1,13,-1
 339 69 l 1,14,-1
 200 -6 l 1,15,16
 84.2409638554 -6 84.2409638554 -6 44 77.5 c 0,17,18
 24 119 24 119 16.5 166.5 c 128,-1,19
 9 214 9 214 9 265.5 c 128,-1,20
 9 317 9 317 10 341.5 c 128,-1,21
 11 366 11 366 15 398.5 c 128,-1,22
 19 431 19 431 26.5 453 c 128,-1,23
 34 475 34 475 48 498.5 c 128,-1,24
 62 522 62 522 81.5 535.5 c 0,25,26
 127 567 127 567 199 567 c 2,27,-1
 336 567 l 1,28,-1
 466 575 l 1,29,-1
 466 0 l 1,12,-1
336 182 m 1,30,-1
 336 450 l 1,31,-1
 237 450 l 2,32,33
 182 450 182 450 160.5 408 c 128,-1,34
 139 366 139 366 139 282.5 c 128,-1,35
 139 199 139 199 159.5 165 c 128,-1,36
 180 131 180 131 237 131 c 1,37,-1
 336 182 l 1,30,-1
EndSplineSet
EndChar

StartChar: ccedilla
Encoding: 231 231 114
Width: 482
Flags: HMW
HStem: -180 52<220 236.5 220 258.5> 375 204<222.5 481 222.5 363> 462 117<222.5 302>
VStem: 31 130<240.5 262 262 314 221 335> 267 66<-110 -87> 363 118<375 402.5>
LayerCount: 2
Fore
SplineSet
365 209 m 1,0,-1
 483 210 l 1,1,2
 482 202 482 202 481 181 c 128,-1,3
 480 160 480 160 479.5 152.5 c 128,-1,4
 479 145 479 145 477 129 c 128,-1,5
 475 113 475 113 472.5 105.5 c 128,-1,6
 470 98 470 98 466 86.5 c 0,7,8
 458.8 65.8 458.8 65.8 443 50 c 0,9,10
 394 -1 394 -1 293 -12 c 1,11,-1
 285 -33 l 1,12,13
 333 -46 333 -46 333 -88.5 c 128,-1,14
 333 -131 333 -131 304.5 -155.5 c 128,-1,15
 276 -180 276 -180 217 -180 c 0,16,17
 204 -180 204 -180 170 -176 c 1,18,-1
 191 -125 l 1,19,20
 209 -128 209 -128 226 -128 c 0,21,22
 267 -128 267 -128 267 -97 c 0,23,24
 267 -63 267 -63 209 -63 c 1,25,-1
 229 -12 l 1,26,27
 138 -2 138 -2 90 50 c 1,28,29
 31 112 31 112 31 282.5 c 128,-1,30
 31 453 31 453 90 515 c 0,31,32
 116 543 116 543 161 561 c 128,-1,33
 206 579 206 579 261 579 c 0,34,35
 369 579 369 579 425 525 c 128,-1,36
 481 471 481 471 481 375 c 1,37,-1
 363 375 l 1,38,39
 363 419 363 419 341 440.5 c 128,-1,40
 319 462 319 462 261 462 c 0,41,42
 210 462 210 462 183.5 435.5 c 0,43,44
 165.1875 417.1875 165.1875 417.1875 162 363 c 0,45,46
 161 346 161 346 161 314 c 2,47,-1
 161 231.5 l 2,48,49
 161 190 161 190 165 178 c 128,-1,50
 169 166 169 166 173.5 152 c 128,-1,51
 178 138 178 138 185 131 c 128,-1,52
 192 124 192 124 202.5 116.5 c 0,53,54
 221.4 103 221.4 103 258.7 103 c 128,-1,55
 296 103 296 103 317.5 109.5 c 128,-1,56
 339 116 339 116 348.5 132 c 128,-1,57
 358 148 358 148 361 163.5 c 128,-1,58
 364 179 364 179 365 209 c 1,0,-1
EndSplineSet
EndChar

StartChar: egrave
Encoding: 232 232 115
Width: 548
Flags: HMW
HStem: -13 108<290 290> -13 212 255 89<171 385 171 501 171 385> 475 103<253 318.5> 628 154<129 288>
VStem: 39 132<202.5 255 344 400> 385 118<344 399>
LayerCount: 2
Fore
SplineSet
501 255 m 1,0,-1
 171 255 l 1,1,2
 171 168 171 168 194 131.5 c 128,-1,3
 217 95 217 95 291 95 c 0,4,5
 343 95 343 95 364 120.5 c 128,-1,6
 385 146 385 146 385 199 c 1,7,-1
 502 199 l 1,8,9
 502 86 502 86 446.053921569 36.4901960784 c 128,-1,10
 390.107843137 -13.0196078431 390.107843137 -13.0196078431 293.866013072 -13.0196078431 c 0,11,12
 199.982570806 -13.0196078431 199.982570806 -13.0196078431 146.491285403 14.4901960784 c 128,-1,13
 93 42 93 42 66 111.5 c 128,-1,14
 39 181 39 181 39 314 c 128,-1,15
 39 447 39 447 100 512.5 c 128,-1,16
 161 578 161 578 286 578 c 0,17,18
 503 578 503 578 503 337 c 0,19,20
 503 311 503 311 501 255 c 1,0,-1
171 344 m 1,21,-1
 385 344 l 1,22,23
 385 423 385 423 362 449 c 128,-1,24
 339 475 339 475 284.5 475 c 128,-1,25
 230 475 230 475 200.5 448 c 128,-1,26
 171 421 171 421 171 344 c 1,21,-1
203 676 m 2,27,-1
 129 782 l 1,28,-1
 266 782 l 1,29,-1
 304 676 l 2,30,31
 308 664 308 664 308 654 c 0,32,33
 308 628 308 628 280 628 c 0,34,35
 237 628 237 628 203 676 c 2,27,-1
EndSplineSet
EndChar

StartChar: ecircumflex
Encoding: 234 234 116
Width: 548
Flags: HMW
HStem: -13 108<290 290> -13 212 255 89<171 385 171 501 171 385> 475 103<253 318.5> 763 20G<225 329 329 329>
VStem: 39 132<202.5 255 344 400> 385 118<344 399>
LayerCount: 2
Fore
SplineSet
501 255 m 1,0,-1
 171 255 l 1,1,2
 171 168 171 168 194 131.5 c 128,-1,3
 217 95 217 95 291 95 c 0,4,5
 343 95 343 95 364 120.5 c 128,-1,6
 385 146 385 146 385 199 c 1,7,-1
 502 199 l 1,8,9
 502 86 502 86 446.053921569 36.4901960784 c 128,-1,10
 390.107843137 -13.0196078431 390.107843137 -13.0196078431 293.866013072 -13.0196078431 c 0,11,12
 199.982570806 -13.0196078431 199.982570806 -13.0196078431 146.491285403 14.4901960784 c 128,-1,13
 93 42 93 42 66 111.5 c 128,-1,14
 39 181 39 181 39 314 c 128,-1,15
 39 447 39 447 100 512.5 c 128,-1,16
 161 578 161 578 286 578 c 0,17,18
 503 578 503 578 503 337 c 0,19,20
 503 311 503 311 501 255 c 1,0,-1
171 344 m 1,21,-1
 385 344 l 1,22,23
 385 423 385 423 362 449 c 128,-1,24
 339 475 339 475 284.5 475 c 128,-1,25
 230 475 230 475 200.5 448 c 128,-1,26
 171 421 171 421 171 344 c 1,21,-1
277 718 m 1,27,-1
 232 662 l 2,28,29
 193 614 193 614 155 614 c 0,30,31
 142 614 142 614 134 623 c 128,-1,32
 126 632 126 632 126 643 c 128,-1,33
 126 654 126 654 131 662 c 2,34,-1
 225 783 l 1,35,-1
 329 783 l 1,36,-1
 423 662 l 2,37,38
 428 654 428 654 428 643.5 c 128,-1,39
 428 633 428 633 419.5 623.5 c 128,-1,40
 411 614 411 614 399 614 c 0,41,42
 361 614 361 614 322 662 c 2,43,-1
 277 718 l 1,27,-1
EndSplineSet
EndChar

StartChar: eacute
Encoding: 233 233 117
Width: 548
Flags: HMW
HStem: -13 108<290 290> -13 212 255 89<171 385 171 501 171 385> 475 103<253 318.5> 628 154<269 428>
VStem: 39 132<202.5 255 344 400> 385 118<344 399>
LayerCount: 2
Fore
SplineSet
501 255 m 1,0,-1
 171 255 l 1,1,2
 171 168 171 168 194 131.5 c 128,-1,3
 217 95 217 95 291 95 c 0,4,5
 343 95 343 95 364 120.5 c 128,-1,6
 385 146 385 146 385 199 c 1,7,-1
 502 199 l 1,8,9
 502 86 502 86 446.053921569 36.4901960784 c 128,-1,10
 390.107843137 -13.0196078431 390.107843137 -13.0196078431 293.866013072 -13.0196078431 c 0,11,12
 199.982570806 -13.0196078431 199.982570806 -13.0196078431 146.491285403 14.4901960784 c 128,-1,13
 93 42 93 42 66 111.5 c 128,-1,14
 39 181 39 181 39 314 c 128,-1,15
 39 447 39 447 100 512.5 c 128,-1,16
 161 578 161 578 286 578 c 0,17,18
 503 578 503 578 503 337 c 0,19,20
 503 311 503 311 501 255 c 1,0,-1
171 344 m 1,21,-1
 385 344 l 1,22,23
 385 423 385 423 362 449 c 128,-1,24
 339 475 339 475 284.5 475 c 128,-1,25
 230 475 230 475 200.5 448 c 128,-1,26
 171 421 171 421 171 344 c 1,21,-1
428 782 m 1,27,-1
 354 676 l 2,28,29
 320 628 320 628 277 628 c 0,30,31
 249 628 249 628 249 654 c 0,32,33
 249 664 249 664 253 676 c 2,34,-1
 291 782 l 1,35,-1
 428 782 l 1,27,-1
EndSplineSet
EndChar

StartChar: edieresis
Encoding: 235 235 118
Width: 548
Flags: HMW
HStem: -13 108<290 290> -13 212 255 89<171 385 171 501 171 385> 475 103<253 318.5> 627 134<145.5 182.5 371.5 408.5>
VStem: 39 132<202.5 255 344 400> 97 134<665.5 722.5> 323 134<665.5 722.5> 385 72 385 118<344 399>
LayerCount: 2
Fore
SplineSet
501 255 m 1,0,-1
 171 255 l 1,1,2
 171 168 171 168 194 131.5 c 128,-1,3
 217 95 217 95 291 95 c 0,4,5
 343 95 343 95 364 120.5 c 128,-1,6
 385 146 385 146 385 199 c 1,7,-1
 502 199 l 1,8,9
 502 86 502 86 446.053921569 36.4901960784 c 128,-1,10
 390.107843137 -13.0196078431 390.107843137 -13.0196078431 293.866013072 -13.0196078431 c 0,11,12
 199.982570806 -13.0196078431 199.982570806 -13.0196078431 146.491285403 14.4901960784 c 128,-1,13
 93 42 93 42 66 111.5 c 128,-1,14
 39 181 39 181 39 314 c 128,-1,15
 39 447 39 447 100 512.5 c 128,-1,16
 161 578 161 578 286 578 c 0,17,18
 503 578 503 578 503 337 c 0,19,20
 503 311 503 311 501 255 c 1,0,-1
171 344 m 1,21,-1
 385 344 l 1,22,23
 385 423 385 423 362 449 c 128,-1,24
 339 475 339 475 284.5 475 c 128,-1,25
 230 475 230 475 200.5 448 c 128,-1,26
 171 421 171 421 171 344 c 1,21,-1
457 694 m 128,-1,28
 457 655 457 655 439.5 641 c 128,-1,29
 422 627 422 627 390 627 c 128,-1,30
 358 627 358 627 340.5 641 c 128,-1,31
 323 655 323 655 323 694 c 128,-1,32
 323 733 323 733 340.5 747 c 128,-1,33
 358 761 358 761 390 761 c 128,-1,34
 422 761 422 761 439.5 747 c 128,-1,27
 457 733 457 733 457 694 c 128,-1,28
231 694 m 128,-1,36
 231 655 231 655 213.5 641 c 128,-1,37
 196 627 196 627 164 627 c 128,-1,38
 132 627 132 627 114.5 641 c 128,-1,39
 97 655 97 655 97 694 c 128,-1,40
 97 733 97 733 114.5 747 c 128,-1,41
 132 761 132 761 164 761 c 128,-1,42
 196 761 196 761 213.5 747 c 128,-1,35
 231 733 231 733 231 694 c 128,-1,36
EndSplineSet
EndChar

StartChar: hbar
Encoding: 295 295 119
Width: 587
Flags: HMW
HStem: 0 21G<76 206 76 76 402 532 402 402> 594 87<-1 76 -1 76 206 295> 732 20G<76 206 206 206>
VStem: 76 130<0 401 503 594 681 752> 402 130<0 358 358 387 0 392.5>
LayerCount: 2
Fore
SplineSet
295 594 m 1,0,-1
 206 594 l 1,1,-1
 206 503 l 1,2,-1
 371 577 l 1,3,4
 459 577 459 577 495.5 527 c 128,-1,5
 532 477 532 477 532 387 c 2,6,-1
 532 0 l 1,7,-1
 402 0 l 1,8,-1
 402 358 l 2,9,10
 402 450 402 450 330 450 c 1,11,-1
 206 401 l 1,12,-1
 206 0 l 1,13,-1
 76 0 l 1,14,-1
 76 594 l 1,15,-1
 -1 594 l 1,16,-1
 -1 681 l 1,17,-1
 76 681 l 1,18,-1
 76 752 l 1,19,-1
 206 752 l 1,20,-1
 206 681 l 1,21,-1
 295 681 l 1,22,-1
 295 594 l 1,0,-1
EndSplineSet
EndChar

StartChar: dotlessi
Encoding: 305 305 120
Width: 275
Flags: HMW
HStem: 0 21G<73 203 73 73> 501 20G<73 203 203 203>
VStem: 73 130<0 521>
LayerCount: 2
Fore
SplineSet
203 0 m 1,0,-1
 73 0 l 1,1,-1
 73 521 l 1,2,-1
 203 521 l 1,3,-1
 203 0 l 1,0,-1
EndSplineSet
EndChar

StartChar: igrave
Encoding: 236 236 121
Width: 275
Flags: HMW
HStem: 0 21G<73 203 73 73> 501 20G<73 203 203 203> 628 154<17 176>
VStem: 73 130<0 521>
LayerCount: 2
Fore
SplineSet
203 0 m 1,0,-1
 73 0 l 1,1,-1
 73 521 l 1,2,-1
 203 521 l 1,3,-1
 203 0 l 1,0,-1
91 676 m 2,4,-1
 17 782 l 1,5,-1
 154 782 l 1,6,-1
 192 676 l 2,7,8
 196 664 196 664 196 654 c 0,9,10
 196 628 196 628 168 628 c 0,11,12
 125 628 125 628 91 676 c 2,4,-1
EndSplineSet
EndChar

StartChar: icircumflex
Encoding: 238 238 122
Width: 275
Flags: HMW
HStem: 0 21G<73 203 73 73> 501 20G<73 203 203 203> 763 20G<88 192 192 192>
VStem: 73 130<0 521>
LayerCount: 2
Fore
SplineSet
203 0 m 1,0,-1
 73 0 l 1,1,-1
 73 521 l 1,2,-1
 203 521 l 1,3,-1
 203 0 l 1,0,-1
140 718 m 1,4,-1
 95 662 l 2,5,6
 56 614 56 614 18 614 c 0,7,8
 5 614 5 614 -3 623 c 128,-1,9
 -11 632 -11 632 -11 643 c 0,10,11
 -11 654 -11 654 -6 662 c 2,12,-1
 88 783 l 1,13,-1
 192 783 l 1,14,-1
 286 662 l 2,15,16
 291 654 291 654 291 643.5 c 0,17,18
 291 633 291 633 282.5 623.5 c 128,-1,19
 274 614 274 614 262 614 c 0,20,21
 224 614 224 614 185 662 c 2,22,-1
 140 718 l 1,4,-1
EndSplineSet
EndChar

StartChar: iacute
Encoding: 237 237 123
Width: 275
Flags: HMW
HStem: 0 21G<73 203 73 73> 501 20G<73 203 203 203> 628 154<106 265>
VStem: 73 130<0 521>
LayerCount: 2
Fore
SplineSet
203 0 m 1,0,-1
 73 0 l 1,1,-1
 73 521 l 1,2,-1
 203 521 l 1,3,-1
 203 0 l 1,0,-1
265 782 m 1,4,-1
 191 676 l 2,5,6
 157 628 157 628 114 628 c 0,7,8
 86 628 86 628 86 654 c 0,9,10
 86 664 86 664 90 676 c 2,11,-1
 128 782 l 1,12,-1
 265 782 l 1,4,-1
EndSplineSet
EndChar

StartChar: idieresis
Encoding: 239 239 124
Width: 275
Flags: HMW
HStem: 0 21G<73 203 73 73> 501 20G<73 203 203 203> 627 134<5.5 42.5 231.5 268.5>
VStem: -43 134<665.5 722.5> 73 130<0 521> 183 134<665.5 722.5>
LayerCount: 2
Fore
SplineSet
203 0 m 1,0,-1
 73 0 l 1,1,-1
 73 521 l 1,2,-1
 203 521 l 1,3,-1
 203 0 l 1,0,-1
317 694 m 128,-1,5
 317 655 317 655 299.5 641 c 128,-1,6
 282 627 282 627 250 627 c 128,-1,7
 218 627 218 627 200.5 641 c 128,-1,8
 183 655 183 655 183 694 c 128,-1,9
 183 733 183 733 200.5 747 c 128,-1,10
 218 761 218 761 250 761 c 128,-1,11
 282 761 282 761 299.5 747 c 128,-1,4
 317 733 317 733 317 694 c 128,-1,5
91 694 m 128,-1,13
 91 655 91 655 73.5 641 c 128,-1,14
 56 627 56 627 24 627 c 128,-1,15
 -8 627 -8 627 -25.5 641 c 128,-1,16
 -43 655 -43 655 -43 694 c 128,-1,17
 -43 733 -43 733 -25.5 747 c 128,-1,18
 -8 761 -8 761 24 761 c 128,-1,19
 56 761 56 761 73.5 747 c 128,-1,12
 91 733 91 733 91 694 c 128,-1,13
EndSplineSet
EndChar

StartChar: itilde
Encoding: 297 297 125
Width: 275
Flags: HMW
HStem: 0 21G<73 203 73 73> 501 20G<73 203 203 203> 615 86<200.5 223 200.5 224> 656 87<57.5 78.5>
VStem: 73 130<0 521>
LayerCount: 2
Fore
SplineSet
272 724 m 1,0,-1
 318 674 l 1,1,2
 259 615 259 615 205 615 c 0,3,4
 168 615 168 615 132.5 635.5 c 0,5,6
 97 656 97 656 65.5 656 c 0,7,8
 34 656 34 656 7 632 c 1,9,-1
 -43 684 l 1,10,11
 -10 717 -10 717 15 730 c 128,-1,12
 40 743 40 743 74 743 c 0,13,14
 108 743 108 743 143.5 722 c 0,15,16
 179 701 179 701 213.5 701 c 0,17,18
 248 701 248 701 272 724 c 1,0,-1
203 0 m 1,19,-1
 73 0 l 1,20,-1
 73 521 l 1,21,-1
 203 521 l 1,22,-1
 203 0 l 1,19,-1
EndSplineSet
EndChar

StartChar: ij
Encoding: 307 307 126
Width: 550
Flags: HMW
HStem: -170 110<252 302 302 318.5 252 326 252 302> -20 20G<73 203 73 73> 638 151<108 170 383 445>
VStem: 73 130<0 550> 348 130<-13 550>
LayerCount: 2
Fore
SplineSet
478 550 m 1,0,-1
 478 -21 l 2,1,2
 478 -82 478 -82 439.5 -126 c 128,-1,3
 401 -170 401 -170 326 -170 c 2,4,-1
 252 -170 l 1,5,-1
 252 -60 l 1,6,-1
 302 -60 l 2,7,8
 348 -60 348 -60 348 -13 c 2,9,-1
 348 550 l 1,10,-1
 478 550 l 1,0,-1
474.5 774.5 m 128,-1,12
 489 760 489 760 489 713.5 c 128,-1,13
 489 667 489 667 474.5 652.5 c 128,-1,14
 460 638 460 638 414 638 c 128,-1,15
 368 638 368 638 353 653 c 128,-1,16
 338 668 338 668 338 714 c 128,-1,17
 338 760 338 760 352.5 774.5 c 128,-1,18
 367 789 367 789 413.5 789 c 128,-1,11
 460 789 460 789 474.5 774.5 c 128,-1,12
200 774.5 m 128,-1,20
 214 760 214 760 214 713.5 c 128,-1,21
 214 667 214 667 199.5 652.5 c 128,-1,22
 185 638 185 638 138.5 638 c 128,-1,23
 92 638 92 638 77.5 653 c 128,-1,24
 63 668 63 668 63 714 c 128,-1,25
 63 760 63 760 77.5 774.5 c 128,-1,26
 92 789 92 789 139 789 c 128,-1,19
 186 789 186 789 200 774.5 c 128,-1,20
203 0 m 1,27,-1
 73 0 l 1,28,-1
 73 550 l 1,29,-1
 203 550 l 1,30,-1
 203 0 l 1,27,-1
EndSplineSet
EndChar

StartChar: jcircumflex
Encoding: 309 309 127
Width: 275
Flags: HMW
HStem: -170 110<-23 27 27 43.5 -23 51 -23 27> 763 20G<86 190 190 190>
VStem: 73 130<-13 550>
LayerCount: 2
Fore
SplineSet
138 718 m 1,0,-1
 93 662 l 2,1,2
 54 614 54 614 16 614 c 0,3,4
 3 614 3 614 -5 623 c 128,-1,5
 -13 632 -13 632 -13 643 c 0,6,7
 -13 654 -13 654 -8 662 c 2,8,-1
 86 783 l 1,9,-1
 190 783 l 1,10,-1
 284 662 l 2,11,12
 289 654 289 654 289 643.5 c 0,13,14
 289 633 289 633 280.5 623.5 c 128,-1,15
 272 614 272 614 260 614 c 0,16,17
 222 614 222 614 183 662 c 2,18,-1
 138 718 l 1,0,-1
203 550 m 1,19,-1
 203 -21 l 2,20,21
 203 -82 203 -82 164.5 -126 c 128,-1,22
 126 -170 126 -170 51 -170 c 2,23,-1
 -23 -170 l 1,24,-1
 -23 -60 l 1,25,-1
 27 -60 l 2,26,27
 73 -60 73 -60 73 -13 c 2,28,-1
 73 550 l 1,29,-1
 203 550 l 1,19,-1
EndSplineSet
EndChar

StartChar: kcommaaccent
Encoding: 311 311 128
Width: 559
Flags: HMW
HStem: -327 21G<223 223> -20 20G<71 201 71 71 408 564 408 408> 732 20G<71 201 201 201>
VStem: 71 130<0 121 277 752> 223 133<-187.5 -145 -145 -60 -187.5 -60>
LayerCount: 2
Fore
SplineSet
356 -60 m 1,0,-1
 356 -145 l 2,1,2
 356 -204 356 -204 313.5 -256 c 128,-1,3
 271 -308 271 -308 223 -327 c 1,4,-1
 223 -60 l 1,5,-1
 356 -60 l 1,0,-1
564 0 m 1,6,-1
 408 0 l 1,7,-1
 258 202 l 1,8,-1
 201 121 l 1,9,-1
 201 0 l 1,10,-1
 71 0 l 1,11,-1
 71 752 l 1,12,-1
 201 752 l 1,13,-1
 201 277 l 1,14,-1
 383 548 l 1,15,-1
 530 548 l 1,16,-1
 343 292 l 1,17,-1
 564 0 l 1,6,-1
EndSplineSet
EndChar

StartChar: kgreenlandic
Encoding: 312 312 129
Width: 559
Flags: HMW
HStem: 0 21G<71 201 71 71 408 564 408 408> 506 20G<392 559 559 559> 551 20G<71 201 201 201>
VStem: 71 130<0 82 277 571>
LayerCount: 2
Fore
SplineSet
564 0 m 1,0,-1
 408 0 l 1,1,-1
 265 195 l 1,2,3
 245.125 173.1375 245.125 173.1375 234.5625 153.06875 c 0,4,5
 207.636363636 101.909090909 207.636363636 101.909090909 201 82 c 1,6,-1
 201 0 l 1,7,-1
 71 0 l 1,8,-1
 71 571 l 1,9,-1
 201 571 l 1,10,-1
 201 277 l 1,11,12
 223 335 223 335 276.5 402.5 c 128,-1,13
 330 470 330 470 392 526 c 1,14,-1
 559 526 l 1,15,16
 499 486 499 486 432.5 415.5 c 128,-1,17
 366 345 366 345 344 301 c 1,18,-1
 564 0 l 1,0,-1
EndSplineSet
EndChar

StartChar: ldot
Encoding: 320 320 130
Width: 462
Flags: HMW
HStem: -1 21G<68 68> 322 163<311.5 378.5> 732 20G<68 198 198 198>
VStem: 68 130<0 0 0 752> 263 163<370.5 437.5>
LayerCount: 2
Fore
SplineSet
426 404 m 128,-1,1
 426 354 426 354 410.5 338 c 128,-1,2
 395 322 395 322 345 322 c 128,-1,3
 295 322 295 322 279 338 c 128,-1,4
 263 354 263 354 263 404 c 128,-1,5
 263 454 263 454 279 469.5 c 128,-1,6
 295 485 295 485 345 485 c 128,-1,7
 395 485 395 485 410.5 469.5 c 128,-1,0
 426 454 426 454 426 404 c 128,-1,1
198 0 m 1,8,-1
 68 -1 l 1,9,-1
 68 752 l 1,10,-1
 198 752 l 1,11,-1
 198 0 l 1,8,-1
EndSplineSet
EndChar

StartChar: lslash
Encoding: 322 322 131
Width: 308
Flags: HMW
HStem: -1 21G<84 84> 732 20G<84 214 214 214>
VStem: 30 184<289 398 398 398> 84 130<0 0 0 322 322 322 510 752> 84 190<-1 547 322 547 438 547 438 752>
LayerCount: 2
Fore
SplineSet
214 0 m 1,0,-1
 84 -1 l 1,1,-1
 84 322 l 1,2,-1
 30 289 l 1,3,-1
 30 398 l 1,4,-1
 84 432 l 1,5,-1
 84 752 l 1,6,-1
 214 752 l 1,7,-1
 214 510 l 1,8,-1
 274 547 l 1,9,-1
 274 438 l 1,10,-1
 214 400 l 1,11,-1
 214 0 l 1,0,-1
EndSplineSet
EndChar

StartChar: nacute
Encoding: 324 324 132
Width: 573
Flags: HMW
HStem: 0 21G<63 193 63 63 386 516 386 386> 628 154<253 412>
VStem: 63 130<0 401 0 571> 386 130<0 365 365 383>
LayerCount: 2
Fore
SplineSet
412 782 m 1,0,-1
 338 676 l 2,1,2
 304 628 304 628 261 628 c 0,3,4
 233 628 233 628 233 654 c 0,5,6
 233 664 233 664 237 676 c 2,7,-1
 275 782 l 1,8,-1
 412 782 l 1,0,-1
516 0 m 1,9,-1
 386 0 l 1,10,-1
 386 365 l 2,11,12
 386 414 386 414 366 432 c 128,-1,13
 346 450 346 450 310 450 c 1,14,-1
 193 401 l 1,15,-1
 193 0 l 1,16,-1
 63 0 l 1,17,-1
 63 571 l 1,18,-1
 160 571 l 1,19,-1
 190 503 l 1,20,-1
 350 577 l 1,21,22
 417 577 417 577 466.5 527.5 c 0,23,24
 516 478 516 478 516 383 c 2,25,-1
 516 0 l 1,9,-1
EndSplineSet
EndChar

StartChar: ntilde
Encoding: 241 241 133
Width: 573
Flags: HMW
HStem: 0 21G<63 193 63 63 386 516 386 386> 623 86<352.5 375 352.5 376> 664 87<209.5 230.5>
VStem: 63 130<0 401 0 571> 386 130<0 365 365 383>
LayerCount: 2
Fore
SplineSet
516 0 m 1,0,-1
 386 0 l 1,1,-1
 386 365 l 2,2,3
 386 414 386 414 366 432 c 128,-1,4
 346 450 346 450 310 450 c 1,5,-1
 193 401 l 1,6,-1
 193 0 l 1,7,-1
 63 0 l 1,8,-1
 63 571 l 1,9,-1
 160 571 l 1,10,-1
 190 503 l 1,11,-1
 350 577 l 1,12,13
 417 577 417 577 466.5 527.5 c 0,14,15
 516 478 516 478 516 383 c 2,16,-1
 516 0 l 1,0,-1
424 732 m 1,17,-1
 470 682 l 1,18,19
 411 623 411 623 357 623 c 0,20,21
 320 623 320 623 284.5 643.5 c 0,22,23
 249 664 249 664 217.5 664 c 0,24,25
 186 664 186 664 159 640 c 1,26,-1
 109 692 l 1,27,28
 142 725 142 725 167 738 c 128,-1,29
 192 751 192 751 226 751 c 0,30,31
 260 751 260 751 295.5 730 c 0,32,33
 331 709 331 709 365.5 709 c 0,34,35
 400 709 400 709 424 732 c 1,17,-1
EndSplineSet
EndChar

StartChar: ograve
Encoding: 242 242 134
Width: 543
Flags: HMW
HStem: -14 117<221.5 327 221.5 371.5> 462 117<223 327> 628 154<120 279>
VStem: 32 130<221 262 262 314 221 371> 383 130<258 310 310 356>
LayerCount: 2
Fore
SplineSet
383 258 m 2,0,-1
 383 310 l 2,1,2
 383 414.695652174 383 414.695652174 358.5 436 c 0,3,4
 328.6 462 328.6 462 266.8 462 c 128,-1,5
 205 462 205 462 183.5 425.5 c 128,-1,6
 162 389 162 389 162 314 c 2,7,-1
 162 262 l 2,8,9
 162 195.5 162 195.5 179 153 c 0,10,11
 199 103 199 103 272 103 c 0,12,13
 331.28 103 331.28 103 359 134.5 c 0,14,15
 378.611620795 156.785932722 378.611620795 156.785932722 382 211 c 0,16,17
 383 227 383 227 383 258 c 2,0,-1
513 288 m 0,18,19
 513 103.018518519 513 103.018518519 443 39.5 c 0,20,21
 384.040816327 -14 384.040816327 -14 272 -14 c 0,22,23
 129.5 -14 129.5 -14 78.5 70 c 0,24,25
 32 146.588235294 32 146.588235294 32 288 c 0,26,27
 32 420.235294118 32 420.235294118 78.5 495 c 0,28,29
 130.743902439 579 130.743902439 579 268.37195122 579 c 128,-1,30
 406 579 406 579 459.5 505.5 c 128,-1,31
 513 432 513 432 513 288 c 0,18,19
194 676 m 2,32,-1
 120 782 l 1,33,-1
 257 782 l 1,34,-1
 295 676 l 2,35,36
 299 664 299 664 299 654 c 0,37,38
 299 628 299 628 271 628 c 0,39,40
 228 628 228 628 194 676 c 2,32,-1
EndSplineSet
EndChar

StartChar: ocircumflex
Encoding: 244 244 135
Width: 543
Flags: HMW
HStem: -14 117<219.5 325 219.5 369.5> 462 117<221 325> 763 20G<220 324 324 324>
VStem: 30 130<221 262 262 314 221 371> 381 130<258 310 310 356>
LayerCount: 2
Fore
SplineSet
381 258 m 2,0,-1
 381 310 l 2,1,2
 381 414.695652174 381 414.695652174 356.5 436 c 0,3,4
 326.6 462 326.6 462 264.8 462 c 128,-1,5
 203 462 203 462 181.5 425.5 c 128,-1,6
 160 389 160 389 160 314 c 2,7,-1
 160 262 l 2,8,9
 160 195.5 160 195.5 177 153 c 0,10,11
 197 103 197 103 270 103 c 0,12,13
 329.28 103 329.28 103 357 134.5 c 0,14,15
 376.611620795 156.785932722 376.611620795 156.785932722 380 211 c 0,16,17
 381 227 381 227 381 258 c 2,0,-1
511 288 m 0,18,19
 511 103.018518519 511 103.018518519 441 39.5 c 0,20,21
 382.040816327 -14 382.040816327 -14 270 -14 c 0,22,23
 127.5 -14 127.5 -14 76.5 70 c 0,24,25
 30 146.588235294 30 146.588235294 30 288 c 0,26,27
 30 420.235294118 30 420.235294118 76.5 495 c 0,28,29
 128.743902439 579 128.743902439 579 266.37195122 579 c 128,-1,30
 404 579 404 579 457.5 505.5 c 128,-1,31
 511 432 511 432 511 288 c 0,18,19
272 718 m 1,32,-1
 227 662 l 2,33,34
 188 614 188 614 150 614 c 0,35,36
 137 614 137 614 129 623 c 128,-1,37
 121 632 121 632 121 643 c 128,-1,38
 121 654 121 654 126 662 c 2,39,-1
 220 783 l 1,40,-1
 324 783 l 1,41,-1
 418 662 l 2,42,43
 423 654 423 654 423 643.5 c 128,-1,44
 423 633 423 633 414.5 623.5 c 128,-1,45
 406 614 406 614 394 614 c 0,46,47
 356 614 356 614 317 662 c 2,48,-1
 272 718 l 1,32,-1
EndSplineSet
EndChar

StartChar: oacute
Encoding: 243 243 136
Width: 543
Flags: HMW
HStem: -14 117<222.5 328 222.5 372.5> 462 117<224 328> 628 154<264 423>
VStem: 33 130<221 262 262 314 221 371> 384 130<258 310 310 356>
LayerCount: 2
Fore
SplineSet
384 258 m 2,0,-1
 384 310 l 2,1,2
 384 414.695652174 384 414.695652174 359.5 436 c 0,3,4
 329.6 462 329.6 462 267.8 462 c 128,-1,5
 206 462 206 462 184.5 425.5 c 128,-1,6
 163 389 163 389 163 314 c 2,7,-1
 163 262 l 2,8,9
 163 195.5 163 195.5 180 153 c 0,10,11
 200 103 200 103 273 103 c 0,12,13
 332.28 103 332.28 103 360 134.5 c 0,14,15
 379.611620795 156.785932722 379.611620795 156.785932722 383 211 c 0,16,17
 384 227 384 227 384 258 c 2,0,-1
514 288 m 0,18,19
 514 103.018518519 514 103.018518519 444 39.5 c 0,20,21
 385.040816327 -14 385.040816327 -14 273 -14 c 0,22,23
 130.5 -14 130.5 -14 79.5 70 c 0,24,25
 33 146.588235294 33 146.588235294 33 288 c 0,26,27
 33 420.235294118 33 420.235294118 79.5 495 c 0,28,29
 131.743902439 579 131.743902439 579 269.37195122 579 c 128,-1,30
 407 579 407 579 460.5 505.5 c 128,-1,31
 514 432 514 432 514 288 c 0,18,19
423 782 m 1,32,-1
 349 676 l 2,33,34
 315 628 315 628 272 628 c 0,35,36
 244 628 244 628 244 654 c 0,37,38
 244 664 244 664 248 676 c 2,39,-1
 286 782 l 1,40,-1
 423 782 l 1,32,-1
EndSplineSet
EndChar

StartChar: odieresis
Encoding: 246 246 137
Width: 543
Flags: HMW
HStem: -14 117<221.5 327 221.5 371.5> 462 117<223 327> 627 134<140.5 177.5 366.5 403.5>
VStem: 32 130<221 262 262 314 221 371> 92 134<665.5 722.5> 318 134<665.5 722.5> 383 130<258 310 310 356>
LayerCount: 2
Fore
SplineSet
383 258 m 2,0,-1
 383 310 l 2,1,2
 383 414.695652174 383 414.695652174 358.5 436 c 0,3,4
 328.6 462 328.6 462 266.8 462 c 128,-1,5
 205 462 205 462 183.5 425.5 c 128,-1,6
 162 389 162 389 162 314 c 2,7,-1
 162 262 l 2,8,9
 162 195.5 162 195.5 179 153 c 0,10,11
 199 103 199 103 272 103 c 0,12,13
 331.28 103 331.28 103 359 134.5 c 0,14,15
 378.611620795 156.785932722 378.611620795 156.785932722 382 211 c 0,16,17
 383 227 383 227 383 258 c 2,0,-1
513 288 m 0,18,19
 513 103.018518519 513 103.018518519 443 39.5 c 0,20,21
 384.040816327 -14 384.040816327 -14 272 -14 c 0,22,23
 129.5 -14 129.5 -14 78.5 70 c 0,24,25
 32 146.588235294 32 146.588235294 32 288 c 0,26,27
 32 420.235294118 32 420.235294118 78.5 495 c 0,28,29
 130.743902439 579 130.743902439 579 268.37195122 579 c 128,-1,30
 406 579 406 579 459.5 505.5 c 128,-1,31
 513 432 513 432 513 288 c 0,18,19
452 694 m 128,-1,33
 452 655 452 655 434.5 641 c 128,-1,34
 417 627 417 627 385 627 c 128,-1,35
 353 627 353 627 335.5 641 c 128,-1,36
 318 655 318 655 318 694 c 128,-1,37
 318 733 318 733 335.5 747 c 128,-1,38
 353 761 353 761 385 761 c 128,-1,39
 417 761 417 761 434.5 747 c 128,-1,32
 452 733 452 733 452 694 c 128,-1,33
226 694 m 128,-1,41
 226 655 226 655 208.5 641 c 128,-1,42
 191 627 191 627 159 627 c 128,-1,43
 127 627 127 627 109.5 641 c 128,-1,44
 92 655 92 655 92 694 c 128,-1,45
 92 733 92 733 109.5 747 c 128,-1,46
 127 761 127 761 159 761 c 128,-1,47
 191 761 191 761 208.5 747 c 128,-1,40
 226 733 226 733 226 694 c 128,-1,41
EndSplineSet
EndChar

StartChar: otilde
Encoding: 245 245 138
Width: 543
Flags: HMW
HStem: -14 117<221.5 327 221.5 371.5> 462 117<223 327> 625 86<334.5 357 334.5 358> 666 87<191.5 212.5>
VStem: 32 130<221 262 262 314 221 371> 383 130<258 310 310 356>
LayerCount: 2
Fore
SplineSet
383 258 m 2,0,-1
 383 310 l 2,1,2
 383 414.695652174 383 414.695652174 358.5 436 c 0,3,4
 328.6 462 328.6 462 266.8 462 c 128,-1,5
 205 462 205 462 183.5 425.5 c 128,-1,6
 162 389 162 389 162 314 c 2,7,-1
 162 262 l 2,8,9
 162 195.5 162 195.5 179 153 c 0,10,11
 199 103 199 103 272 103 c 0,12,13
 331.28 103 331.28 103 359 134.5 c 0,14,15
 378.611620795 156.785932722 378.611620795 156.785932722 382 211 c 0,16,17
 383 227 383 227 383 258 c 2,0,-1
513 288 m 0,18,19
 513 103.018518519 513 103.018518519 443 39.5 c 0,20,21
 384.040816327 -14 384.040816327 -14 272 -14 c 0,22,23
 129.5 -14 129.5 -14 78.5 70 c 0,24,25
 32 146.588235294 32 146.588235294 32 288 c 0,26,27
 32 420.235294118 32 420.235294118 78.5 495 c 0,28,29
 130.743902439 579 130.743902439 579 268.37195122 579 c 128,-1,30
 406 579 406 579 459.5 505.5 c 128,-1,31
 513 432 513 432 513 288 c 0,18,19
406 734 m 1,32,-1
 452 684 l 1,33,34
 393 625 393 625 339 625 c 0,35,36
 302 625 302 625 266.5 645.5 c 128,-1,37
 231 666 231 666 199.5 666 c 128,-1,38
 168 666 168 666 141 642 c 1,39,-1
 91 694 l 1,40,41
 124 727 124 727 149 740 c 128,-1,42
 174 753 174 753 208 753 c 128,-1,43
 242 753 242 753 277.5 732 c 128,-1,44
 313 711 313 711 347.5 711 c 128,-1,45
 382 711 382 711 406 734 c 1,32,-1
EndSplineSet
EndChar

StartChar: oslash
Encoding: 248 248 139
Width: 543
Flags: HMW
HStem: -45 21G<83 180 83 83> -14 117<267.5 326 267.5 370.5> 462 117<222 281> 562 20G<381 478 478 478>
VStem: 31 130<241.5 262 262 314 241.5 371> 382 130<258 310 310 322>
LayerCount: 2
Fore
SplineSet
442 39.5 m 0,0,1
 383.040816327 -14 383.040816327 -14 271 -14 c 0,2,3
 235 -14 235 -14 198 -7 c 1,4,-1
 180 -45 l 1,5,-1
 83 -45 l 1,6,-1
 117 27 l 1,7,8
 31 92 31 92 31 288 c 0,9,10
 31 420.235294118 31 420.235294118 77.5 495 c 0,11,12
 129.743902439 579 129.743902439 579 271 579 c 0,13,14
 330 579 330 579 372 564 c 1,15,-1
 381 582 l 1,16,-1
 478 582 l 1,17,-1
 447 517 l 1,18,19
 512 449 512 449 512 276.009259259 c 128,-1,20
 512 103.018518519 512 103.018518519 442 39.5 c 0,0,1
161 314 m 2,21,-1
 161 262 l 2,22,23
 161 187 161 187 177 153 c 1,24,-1
 321 456 l 1,25,26
 300 462 300 462 271 462 c 0,27,28
 204 462 204 462 182.5 425.5 c 128,-1,29
 161 389 161 389 161 314 c 2,21,-1
382 258 m 2,30,-1
 382 310 l 2,31,32
 382 356 382 356 380 375 c 1,33,-1
 251 104 l 1,34,35
 257 103 257 103 280 103 c 128,-1,36
 303 103 303 103 325 112.5 c 128,-1,37
 347 122 347 122 358 134.5 c 128,-1,38
 369 147 369 147 374.5 171 c 0,39,40
 382 203.727272727 382 203.727272727 382 258 c 2,30,-1
EndSplineSet
EndChar

StartChar: rcaron
Encoding: 345 345 140
Width: 390
Flags: HMW
HStem: 0 21G<53 183 53 53> 762 20G<64.5 85 305 326>
VStem: 53 130<0 404 0 571>
LayerCount: 2
Fore
SplineSet
195 678 m 1,0,-1
 240 734 l 2,1,2
 279 782 279 782 317 782 c 0,3,4
 330 782 330 782 338 773 c 128,-1,5
 346 764 346 764 346 753 c 0,6,7
 346 742 346 742 341 734 c 2,8,-1
 247 613 l 1,9,-1
 143 613 l 1,10,-1
 49 734 l 2,11,12
 44 742 44 742 44 752.5 c 0,13,14
 44 763 44 763 52.5 772.5 c 128,-1,15
 61 782 61 782 73 782 c 0,16,17
 111 782 111 782 150 734 c 2,18,-1
 195 678 l 1,0,-1
376 569 m 1,19,-1
 340 441 l 1,20,21
 324.518518519 446.975308642 324.518518519 446.975308642 305.86495961 446.975308642 c 0,22,23
 255.839506173 446.975308642 255.839506173 446.975308642 183 404 c 1,24,-1
 183 0 l 1,25,-1
 53 0 l 1,26,-1
 53 571 l 1,27,-1
 150 571 l 1,28,-1
 180 521 l 1,29,-1
 318 578 l 1,30,31
 328.263157895 579.315789474 328.263157895 579.315789474 345.131578947 579.315789474 c 0,32,33
 362 579.315789474 362 579.315789474 376 569 c 1,19,-1
EndSplineSet
EndChar

StartChar: rcommaaccent
Encoding: 343 343 141
Width: 390
Flags: HMW
HStem: -326 21G<55 55> -59 59<55 183 53 188 53 188>
VStem: 53 130<0 404 0 571>
LayerCount: 2
Fore
SplineSet
376 569 m 1,0,-1
 340 441 l 1,1,2
 324.518518519 446.975308642 324.518518519 446.975308642 305.86495961 446.975308642 c 0,3,4
 255.839506173 446.975308642 255.839506173 446.975308642 183 404 c 1,5,-1
 183 0 l 1,6,-1
 53 0 l 1,7,-1
 53 571 l 1,8,-1
 150 571 l 1,9,-1
 180 521 l 1,10,-1
 318 578 l 1,11,12
 328.263157895 579.315789474 328.263157895 579.315789474 345.131578947 579.315789474 c 0,13,14
 362 579.315789474 362 579.315789474 376 569 c 1,0,-1
188 -59 m 1,15,-1
 188 -144 l 2,16,17
 188 -203 188 -203 145.5 -255 c 128,-1,18
 103 -307 103 -307 55 -326 c 1,19,-1
 55 -59 l 1,20,-1
 188 -59 l 1,15,-1
EndSplineSet
EndChar

StartChar: scaron
Encoding: 353 353 142
Width: 501
Flags: HMW
HStem: -8 102<222.5 279 222.5 312.5> -8 175 395 184 470 109<221 277> 762 20G<119.5 140 360 381>
VStem: 39 117 343 124
LayerCount: 2
Fore
SplineSet
471 152 m 1,0,1
 468 74 468 74 407 33 c 128,-1,2
 346 -8 346 -8 257 -8 c 0,3,4
 130.459459459 -8 130.459459459 -8 82.5 37.5 c 0,5,6
 38 79.7179487179 38 79.7179487179 38 165 c 1,7,-1
 156 170 l 1,8,9
 157 125 157 125 180 109.5 c 128,-1,10
 203 94 203 94 257 94 c 0,11,12
 343 94 343 94 343 156 c 0,13,14
 343 220 343 220 279 229 c 2,15,-1
 178 242 l 2,16,17
 39 259 39 259 39 413 c 0,18,19
 39 491 39 491 101 535 c 128,-1,20
 163 579 163 579 254 579 c 0,21,22
 336.243243243 579 336.243243243 579 396 545.5 c 0,23,24
 467 505.696969697 467 505.696969697 467 398 c 1,25,-1
 354 393 l 1,26,27
 347 470 347 470 253 470 c 0,28,29
 209 470 209 470 187 452.5 c 128,-1,30
 165 435 165 435 165 413 c 0,31,32
 165 357 165 357 213 350 c 2,33,-1
 335 333 l 2,34,35
 471 315 471 315 471 152 c 1,0,1
250 678 m 1,36,-1
 295 734 l 2,37,38
 334 782 334 782 372 782 c 0,39,40
 385 782 385 782 393 773 c 128,-1,41
 401 764 401 764 401 753 c 128,-1,42
 401 742 401 742 396 734 c 2,43,-1
 302 613 l 1,44,-1
 198 613 l 1,45,-1
 104 734 l 2,46,47
 99 742 99 742 99 752.5 c 128,-1,48
 99 763 99 763 107.5 772.5 c 128,-1,49
 116 782 116 782 128 782 c 0,50,51
 166 782 166 782 205 734 c 2,52,-1
 250 678 l 1,36,-1
EndSplineSet
EndChar

StartChar: ugrave
Encoding: 249 249 143
Width: 573
Flags: HMW
HStem: -20 20G<403 500 403 403> -6 21G<187 213> 628 154<135 294>
VStem: 47 130<188 216 216 571> 370 130<184 571>
LayerCount: 2
Fore
SplineSet
500 0 m 1,0,-1
 403 0 l 1,1,-1
 373 68 l 1,2,-1
 213 -6 l 1,3,4
 146 -6 146 -6 96.5 43.5 c 0,5,6
 47 93 47 93 47 188 c 2,7,-1
 47 571 l 1,8,-1
 177 571 l 1,9,-1
 177 216 l 2,10,11
 177 121 177 121 253 121 c 1,12,-1
 370 184 l 1,13,-1
 370 571 l 1,14,-1
 500 571 l 1,15,-1
 500 0 l 1,0,-1
209 676 m 2,16,-1
 135 782 l 1,17,-1
 272 782 l 1,18,-1
 310 676 l 2,19,20
 314 664 314 664 314 654 c 0,21,22
 314 628 314 628 286 628 c 0,23,24
 243 628 243 628 209 676 c 2,16,-1
EndSplineSet
EndChar

StartChar: ucircumflex
Encoding: 251 251 144
Width: 573
Flags: HMW
HStem: -20 20G<403 500 403 403> -6 21G<187 213> 763 20G<231 335 335 335>
VStem: 47 130<188 216 216 571> 370 130<184 571>
LayerCount: 2
Fore
SplineSet
500 0 m 1,0,-1
 403 0 l 1,1,-1
 373 68 l 1,2,-1
 213 -6 l 1,3,4
 146 -6 146 -6 96.5 43.5 c 0,5,6
 47 93 47 93 47 188 c 2,7,-1
 47 571 l 1,8,-1
 177 571 l 1,9,-1
 177 216 l 2,10,11
 177 121 177 121 253 121 c 1,12,-1
 370 184 l 1,13,-1
 370 571 l 1,14,-1
 500 571 l 1,15,-1
 500 0 l 1,0,-1
283 718 m 1,16,-1
 238 662 l 2,17,18
 199 614 199 614 161 614 c 0,19,20
 148 614 148 614 140 623 c 128,-1,21
 132 632 132 632 132 643 c 0,22,23
 132 654 132 654 137 662 c 2,24,-1
 231 783 l 1,25,-1
 335 783 l 1,26,-1
 429 662 l 2,27,28
 434 654 434 654 434 643.5 c 0,29,30
 434 633 434 633 425.5 623.5 c 128,-1,31
 417 614 417 614 405 614 c 0,32,33
 367 614 367 614 328 662 c 2,34,-1
 283 718 l 1,16,-1
EndSplineSet
EndChar

StartChar: uacute
Encoding: 250 250 145
Width: 573
Flags: HMW
HStem: -20 20G<403 500 403 403> -6 21G<187 213> 628 154<275 434>
VStem: 47 130<188 216 216 571> 370 130<184 571>
LayerCount: 2
Fore
SplineSet
500 0 m 1,0,-1
 403 0 l 1,1,-1
 373 68 l 1,2,-1
 213 -6 l 1,3,4
 146 -6 146 -6 96.5 43.5 c 0,5,6
 47 93 47 93 47 188 c 2,7,-1
 47 571 l 1,8,-1
 177 571 l 1,9,-1
 177 216 l 2,10,11
 177 121 177 121 253 121 c 1,12,-1
 370 184 l 1,13,-1
 370 571 l 1,14,-1
 500 571 l 1,15,-1
 500 0 l 1,0,-1
434 782 m 1,16,-1
 360 676 l 2,17,18
 326 628 326 628 283 628 c 0,19,20
 255 628 255 628 255 654 c 0,21,22
 255 664 255 664 259 676 c 2,23,-1
 297 782 l 1,24,-1
 434 782 l 1,16,-1
EndSplineSet
EndChar

StartChar: udieresis
Encoding: 252 252 146
Width: 573
Flags: HMW
HStem: -20 20G<403 500 403 403> -6 21G<187 213> 627 134<151.5 188.5 377.5 414.5>
VStem: 47 130<188 216 216 571> 103 134<665.5 722.5> 329 134<665.5 722.5> 370 130<184 571>
LayerCount: 2
Fore
SplineSet
500 0 m 1,0,-1
 403 0 l 1,1,-1
 373 68 l 1,2,-1
 213 -6 l 1,3,4
 146 -6 146 -6 96.5 43.5 c 0,5,6
 47 93 47 93 47 188 c 2,7,-1
 47 571 l 1,8,-1
 177 571 l 1,9,-1
 177 216 l 2,10,11
 177 121 177 121 253 121 c 1,12,-1
 370 184 l 1,13,-1
 370 571 l 1,14,-1
 500 571 l 1,15,-1
 500 0 l 1,0,-1
463 694 m 128,-1,17
 463 655 463 655 445.5 641 c 128,-1,18
 428 627 428 627 396 627 c 128,-1,19
 364 627 364 627 346.5 641 c 128,-1,20
 329 655 329 655 329 694 c 128,-1,21
 329 733 329 733 346.5 747 c 128,-1,22
 364 761 364 761 396 761 c 128,-1,23
 428 761 428 761 445.5 747 c 128,-1,16
 463 733 463 733 463 694 c 128,-1,17
237 694 m 128,-1,25
 237 655 237 655 219.5 641 c 128,-1,26
 202 627 202 627 170 627 c 128,-1,27
 138 627 138 627 120.5 641 c 128,-1,28
 103 655 103 655 103 694 c 128,-1,29
 103 733 103 733 120.5 747 c 128,-1,30
 138 761 138 761 170 761 c 128,-1,31
 202 761 202 761 219.5 747 c 128,-1,24
 237 733 237 733 237 694 c 128,-1,25
EndSplineSet
EndChar

StartChar: yacute
Encoding: 253 253 147
Width: 538
Flags: HMW
HStem: -171 117<81 121 121 139.5 81 142 81 121> 628 154<256 415>
LayerCount: 2
Fore
SplineSet
510 571 m 1,0,-1
 293 -64 l 2,1,2
 278 -107 278 -107 254 -131 c 0,3,4
 214 -171 214 -171 142 -171 c 2,5,-1
 81 -171 l 1,6,-1
 81 -54 l 1,7,-1
 121 -54 l 2,8,9
 149 -54 149 -54 162.5 -44.5 c 128,-1,10
 176 -35 176 -35 186 -7 c 2,11,-1
 196 21 l 1,12,-1
 24 571 l 1,13,-1
 161 571 l 1,14,-1
 263 174 l 1,15,-1
 373 571 l 1,16,-1
 510 571 l 1,0,-1
415 782 m 1,17,-1
 341 676 l 2,18,19
 307 628 307 628 264 628 c 0,20,21
 236 628 236 628 236 654 c 0,22,23
 236 664 236 664 240 676 c 2,24,-1
 278 782 l 1,25,-1
 415 782 l 1,17,-1
EndSplineSet
EndChar

StartChar: ydieresis
Encoding: 255 255 148
Width: 494
Flags: HMW
HStem: -171 117<61 101 101 119.5 61 122 61 101> 627 134<112.5 149.5 338.5 375.5>
VStem: 64 134<665.5 722.5> 290 134<665.5 722.5>
LayerCount: 2
Fore
SplineSet
490 571 m 1,0,-1
 273 -64 l 2,1,2
 258 -107 258 -107 234 -131 c 0,3,4
 194 -171 194 -171 122 -171 c 2,5,-1
 61 -171 l 1,6,-1
 61 -54 l 1,7,-1
 101 -54 l 2,8,9
 129 -54 129 -54 142.5 -44.5 c 128,-1,10
 156 -35 156 -35 166 -7 c 2,11,-1
 176 21 l 1,12,-1
 4 571 l 1,13,-1
 141 571 l 1,14,-1
 243 174 l 1,15,-1
 353 571 l 1,16,-1
 490 571 l 1,0,-1
424 694 m 128,-1,18
 424 655 424 655 406.5 641 c 128,-1,19
 389 627 389 627 357 627 c 128,-1,20
 325 627 325 627 307.5 641 c 128,-1,21
 290 655 290 655 290 694 c 128,-1,22
 290 733 290 733 307.5 747 c 128,-1,23
 325 761 325 761 357 761 c 128,-1,24
 389 761 389 761 406.5 747 c 128,-1,17
 424 733 424 733 424 694 c 128,-1,18
198 694 m 128,-1,26
 198 655 198 655 180.5 641 c 128,-1,27
 163 627 163 627 131 627 c 128,-1,28
 99 627 99 627 81.5 641 c 128,-1,29
 64 655 64 655 64 694 c 128,-1,30
 64 733 64 733 81.5 747 c 128,-1,31
 99 761 99 761 131 761 c 128,-1,32
 163 761 163 761 180.5 747 c 128,-1,25
 198 733 198 733 198 694 c 128,-1,26
EndSplineSet
EndChar

StartChar: zcaron
Encoding: 382 382 149
Width: 478
Flags: HMW
HStem: 0 112<88 434 160 434 160 434> 459 112<50 278 50 434> 762 20G<111.5 132 352 373>
LayerCount: 2
Fore
SplineSet
434 0 m 1,0,-1
 123 0 l 2,1,2
 72 0 72 0 44.5 21.5 c 128,-1,3
 17 43 17 43 17 82 c 0,4,5
 17 121 17 121 50 164 c 2,6,-1
 278 459 l 1,7,-1
 50 459 l 1,8,-1
 50 571 l 1,9,-1
 434 571 l 1,10,-1
 434 472 l 1,11,-1
 160 112 l 1,12,-1
 434 112 l 1,13,-1
 434 0 l 1,0,-1
242 678 m 1,14,-1
 287 734 l 2,15,16
 326 782 326 782 364 782 c 0,17,18
 377 782 377 782 385 773 c 128,-1,19
 393 764 393 764 393 753 c 0,20,21
 393 742 393 742 388 734 c 2,22,-1
 294 613 l 1,23,-1
 190 613 l 1,24,-1
 96 734 l 2,25,26
 91 742 91 742 91 752.5 c 0,27,28
 91 763 91 763 99.5 772.5 c 128,-1,29
 108 782 108 782 120 782 c 0,30,31
 158 782 158 782 197 734 c 2,32,-1
 242 678 l 1,14,-1
EndSplineSet
EndChar

StartChar: at
Encoding: 64 64 150
Width: 866
Flags: HMW
HStem: -169 59<331.5 457> 6 57<648 716 648 740> 41 106<384 421.5> 424 99<388 535 435 506> 658 60<318 551.5>
VStem: 28 60<174.5 423.5 174.5 451.5> 209 107<221.5 327 221.5 376.5> 506 101<304 424 424 424> 522 85<107.5 206> 779 59<258 460>
LayerCount: 2
Fore
SplineSet
838 348 m 0,0,1
 838 6 838 6 681 6 c 0,2,3
 635 6 635 6 601 19 c 128,-1,4
 567 32 567 32 551.5 52 c 0,5,6
 522 90.064516129 522 90.064516129 522 128 c 0,7,8
 522 144 522 144 524 166 c 1,9,10
 502 97 502 97 470.5 69 c 128,-1,11
 439 41 439 41 391 41 c 0,12,13
 306 41 306 41 257.5 101 c 128,-1,14
 209 161 209 161 209 277 c 0,15,16
 209 422 209 422 259.5 472.5 c 128,-1,17
 310 523 310 523 435 523 c 2,18,-1
 535 523 l 1,19,-1
 607 529 l 1,20,-1
 607 206 l 2,21,22
 607 131 607 131 621 97 c 128,-1,23
 635 63 635 63 681 63 c 0,24,25
 779 63 779 63 779 347 c 0,26,27
 779 515 779 515 697 586.5 c 128,-1,28
 615 658 615 658 436 658 c 128,-1,29
 257 658 257 658 172.5 572 c 128,-1,30
 88 486 88 486 88 297 c 128,-1,31
 88 108 88 108 181.5 -1 c 128,-1,32
 275 -110 275 -110 464 -110 c 1,33,-1
 457 -169 l 1,34,35
 361 -169 361 -169 286 -144 c 128,-1,36
 211 -119 211 -119 163 -77.5 c 128,-1,37
 115 -36 115 -36 84 23.5 c 0,38,39
 28 130.983870968 28 130.983870968 28 286 c 0,40,41
 28 529.5 28 529.5 136 626.5 c 0,42,43
 190 675 190 675 261 696.5 c 128,-1,44
 332 718 332 718 429 718 c 0,45,46
 638 718 638 718 738 634.5 c 128,-1,47
 838 551 838 551 838 348 c 0,0,1
506 424 m 1,48,-1
 435 424 l 2,49,50
 365 424 365 424 340.5 390.5 c 128,-1,51
 316 357 316 357 316 279 c 128,-1,52
 316 201 316 201 340.5 174 c 128,-1,53
 365 147 365 147 416 147 c 0,54,55
 448 147 448 147 477 194 c 128,-1,56
 506 241 506 241 506 304 c 2,57,-1
 506 424 l 1,48,-1
EndSplineSet
EndChar

StartChar: registered
Encoding: 174 174 151
Width: 844
Flags: HMW
HStem: -6 40<307 537 307 547> 472 85<392.5 401 401 437> 678 40<307 532>
VStem: 60 50<241 471 241 481> 284 94<160 300 160 380 380 447> 481 93<413.5 440> 744 40<241 466>
LayerCount: 2
Fore
SplineSet
784 356 m 128,-1,1
 784 168 784 168 697 81 c 128,-1,2
 610 -6 610 -6 422 -6 c 128,-1,3
 234 -6 234 -6 147 81 c 128,-1,4
 60 168 60 168 60 356 c 128,-1,5
 60 544 60 544 147 631 c 128,-1,6
 234 718 234 718 422 718 c 128,-1,7
 610 718 610 718 697 631 c 128,-1,0
 784 544 784 544 784 356 c 128,-1,1
669 109 m 128,-1,9
 744 184 744 184 744 352.5 c 128,-1,10
 744 521 744 521 665.5 599.5 c 128,-1,11
 587 678 587 678 419 678 c 128,-1,12
 251 678 251 678 180.5 604 c 128,-1,13
 110 530 110 530 110 356 c 128,-1,14
 110 182 110 182 180.5 108 c 128,-1,15
 251 34 251 34 422.5 34 c 128,-1,8
 594 34 594 34 669 109 c 128,-1,9
596 160 m 1,16,-1
 489 160 l 1,17,-1
 415 300 l 1,18,-1
 378 300 l 1,19,-1
 378 160 l 1,20,-1
 284 160 l 1,21,-1
 284 466 l 2,22,23
 284 514 284 514 306 535.5 c 128,-1,24
 328 557 328 557 380 557 c 2,25,-1
 442 557 l 2,26,27
 503 557 503 557 538.5 520 c 128,-1,28
 574 483 574 483 574 435 c 0,29,30
 574 345.586206897 574 345.586206897 508 316 c 1,31,32
 561 223 561 223 596 160 c 1,16,-1
469 393.5 m 128,-1,34
 481 407 481 407 481 427 c 128,-1,35
 481 447 481 447 469 459.5 c 128,-1,36
 457 472 457 472 437 472 c 2,37,-1
 401 472 l 2,38,39
 378 472 378 472 378 447 c 2,40,-1
 378 380 l 1,41,-1
 437 380 l 2,42,33
 457 380 457 380 469 393.5 c 128,-1,34
EndSplineSet
EndChar

StartChar: copyright
Encoding: 169 169 152
Width: 844
Flags: HMW
HStem: -6 40<307 537 307 547> 147 88<398.5 453 398.5 476.5> 147 174<365.5 581> 412 153<365.5 580 365.5 490> 477 88<398 448.5> 678 40<307 532>
VStem: 60 50<241 471 241 481> 268 97<333 334 334 366 366 368 310 422> 491 90<264.5 321> 744 40<241 466>
LayerCount: 2
Fore
SplineSet
491 321 m 1,0,-1
 581 321 l 1,1,2
 581 237 581 237 541 192 c 128,-1,3
 501 147 501 147 429 147 c 0,4,5
 268 147 268 147 268 333 c 2,6,-1
 268 366 l 2,7,8
 268 459 268 459 304 512 c 128,-1,9
 340 565 340 565 429 565 c 0,10,11
 496 565 496 565 538 525.5 c 128,-1,12
 580 486 580 486 580 412 c 1,13,-1
 490 412 l 1,14,15
 479 477 479 477 429 477 c 0,16,17
 384.194444444 477 384.194444444 477 373.5 442 c 0,18,19
 365 414.181818182 365 414.181818182 365 368 c 2,20,-1
 365 334 l 2,21,22
 365 259.888888889 365 259.888888889 393.5 243 c 0,23,24
 407 235 407 235 434.5 235 c 128,-1,25
 462 235 462 235 475 256 c 128,-1,26
 488 277 488 277 491 321 c 1,0,-1
784 356 m 128,-1,28
 784 168 784 168 697 81 c 128,-1,29
 610 -6 610 -6 422 -6 c 128,-1,30
 234 -6 234 -6 147 81 c 128,-1,31
 60 168 60 168 60 356 c 128,-1,32
 60 544 60 544 147 631 c 128,-1,33
 234 718 234 718 422 718 c 128,-1,34
 610 718 610 718 697 631 c 128,-1,27
 784 544 784 544 784 356 c 128,-1,28
669 109 m 128,-1,36
 744 184 744 184 744 352.5 c 128,-1,37
 744 521 744 521 665.5 599.5 c 128,-1,38
 587 678 587 678 419 678 c 128,-1,39
 251 678 251 678 180.5 604 c 128,-1,40
 110 530 110 530 110 356 c 128,-1,41
 110 182 110 182 180.5 108 c 128,-1,42
 251 34 251 34 422.5 34 c 128,-1,35
 594 34 594 34 669 109 c 128,-1,36
EndSplineSet
EndChar

StartChar: paragraph
Encoding: 182 182 153
Width: 668
Flags: HMW
HStem: -198 21G<225 355 225 225 425 481> 645 20G<246 355 355 355 425 483>
VStem: 225 130<-198 211 211 211> 425 130<-138.5 -86 -86 561>
LayerCount: 2
Fore
SplineSet
355 665 m 1,0,-1
 355 -198 l 1,1,-1
 225 -198 l 1,2,-1
 225 211 l 1,3,4
 109 211 109 211 67 262 c 128,-1,5
 25 313 25 313 25 432 c 0,6,7
 25 497 25 497 33 537 c 128,-1,8
 41 577 41 577 64.5 608 c 128,-1,9
 88 639 88 639 132 652 c 128,-1,10
 176 665 176 665 246 665 c 2,11,-1
 355 665 l 1,0,-1
425 -198 m 1,12,-1
 425 665 l 1,13,14
 507 665 507 665 531 643 c 128,-1,15
 555 621 555 621 555 561 c 2,16,-1
 555 -86 l 2,17,18
 555 -163 555 -163 533 -180.5 c 128,-1,19
 511 -198 511 -198 425 -198 c 1,12,-1
EndSplineSet
EndChar

StartChar: section
Encoding: 167 167 154
Width: 531
Flags: HMW
HStem: -63 123<214.5 268.5 214.5 339.5> -63 235<-5 339.5> 552 192 623 121<273 316.5>
VStem: -5 120<138 172> 387 135<204 215 215 242>
LayerCount: 2
Fore
SplineSet
522 210 m 0,0,1
 522 88 522 88 451 12.5 c 128,-1,2
 380 -63 380 -63 251 -63 c 0,3,4
 73.618556701 -63 73.618556701 -63 20.5 51.5 c 0,5,6
 -2 100 -2 100 -5 172 c 1,7,-1
 115 172 l 1,8,9
 115 122 115 122 155 91 c 128,-1,10
 195 60 195 60 249.5 60 c 128,-1,11
 304 60 304 60 338 88 c 1,12,13
 273 104 273 104 229 135 c 0,14,15
 128 207 128 207 79.5 299 c 128,-1,16
 31 391 31 391 31 488 c 0,17,18
 31 615 31 615 101 679.5 c 128,-1,19
 171 744 171 744 292 744 c 0,20,21
 350.4 744 350.4 744 391.2 727 c 128,-1,22
 432 710 432 710 455 690.5 c 128,-1,23
 478 671 478 671 496.5 636.5 c 128,-1,24
 515 602 515 602 522 557 c 1,25,-1
 403 548 l 1,26,27
 403 587 403 587 369.5 605 c 128,-1,28
 336 623 336 623 283.5 623 c 128,-1,29
 231 623 231 623 200 595 c 1,30,31
 326 546 326 546 391 491 c 128,-1,32
 456 436 456 436 489 369 c 128,-1,33
 522 302 522 302 522 210 c 0,0,1
302 246 m 1,34,35
 339 216 339 216 387 204 c 1,36,-1
 387 215 l 2,37,38
 387 328 387 328 312 393 c 0,39,40
 255 442 255 442 166 472 c 1,41,42
 177 343 177 343 302 246 c 1,34,35
EndSplineSet
EndChar

StartChar: asterisk
Encoding: 42 42 155
Width: 494
Flags: HMW
HStem: 333 21G<210 210> 700 20G<242 242>
LayerCount: 2
Fore
SplineSet
440 461 m 1,0,-1
 390 385 l 1,1,-1
 277 452 l 1,2,-1
 264 448 l 1,3,-1
 210 333 l 1,4,-1
 124 369 l 1,5,-1
 194 492 l 1,6,-1
 53 512 l 1,7,-1
 74 601 l 1,8,-1
 192 576 l 1,9,-1
 152 694 l 1,10,-1
 242 720 l 1,11,-1
 272 598 l 1,12,-1
 357 682 l 1,13,-1
 423 618 l 1,14,-1
 313 526 l 1,15,-1
 440 461 l 1,0,-1
EndSplineSet
EndChar

StartChar: dagger
Encoding: 8224 8224 156
Width: 579
Flags: HMW
HStem: 0 21G<224 354 224 224> 410 117<67 193 67 197 67 193 377 512> 692 20G<224 354 354 354>
VStem: 224 130<0 380 0 380 552 712>
LayerCount: 2
Fore
SplineSet
512 410 m 1,0,-1
 377 410 l 1,1,-1
 344 420 l 1,2,-1
 354 380 l 1,3,-1
 354 0 l 1,4,-1
 224 0 l 1,5,-1
 224 380 l 1,6,-1
 234 420 l 1,7,-1
 197 410 l 1,8,-1
 67 410 l 1,9,-1
 67 527 l 1,10,-1
 193 527 l 1,11,-1
 234 517 l 1,12,-1
 224 552 l 1,13,-1
 224 712 l 1,14,-1
 354 712 l 1,15,-1
 354 550 l 1,16,-1
 344 517 l 1,17,-1
 377 527 l 1,18,-1
 512 527 l 1,19,-1
 512 410 l 1,0,-1
EndSplineSet
EndChar

StartChar: daggerdbl
Encoding: 8225 8225 157
Width: 579
Flags: HMW
HStem: -191 21G<224 354 224 224> -6 117<57 224 57 224 354 522> 410 117<57 224 57 224 354 522> 692 20G<224 354 354 354>
VStem: 224 130<-191 -6 -191 -6 111 410 527 712>
LayerCount: 2
Fore
SplineSet
522 -6 m 1,0,-1
 354 -6 l 1,1,-1
 354 -191 l 1,2,-1
 224 -191 l 1,3,-1
 224 -6 l 1,4,-1
 57 -6 l 1,5,-1
 57 111 l 1,6,-1
 224 111 l 1,7,-1
 224 410 l 1,8,-1
 57 410 l 1,9,-1
 57 527 l 1,10,-1
 224 527 l 1,11,-1
 224 712 l 1,12,-1
 354 712 l 1,13,-1
 354 527 l 1,14,-1
 522 527 l 1,15,-1
 522 410 l 1,16,-1
 354 410 l 1,17,-1
 354 111 l 1,18,-1
 522 111 l 1,19,-1
 522 -6 l 1,0,-1
EndSplineSet
EndChar

StartChar: ordfeminine
Encoding: 170 170 158
Width: 454
Flags: HMW
HStem: 294 21G<124 163> 478 77<162 176 176 253> 586 138<29 250 29 250> 629 95<168.5 215>
VStem: 23 104<423.5 445.5 423.5 453.5> 253 110<431 478 478 478 555 577 297 582>
LayerCount: 2
Fore
SplineSet
194 629 m 0,0,1
 125 629 125 629 125 586 c 1,2,-1
 29 586 l 1,3,4
 29 724 29 724 194 724 c 0,5,6
 276 724 276 724 319.5 684 c 128,-1,7
 363 644 363 644 363 577 c 2,8,-1
 363 297 l 1,9,-1
 279 297 l 1,10,-1
 259 339 l 1,11,-1
 163 294 l 1,12,13
 102 294 102 294 62.5 328 c 128,-1,14
 23 362 23 362 23 418.5 c 0,15,16
 23 475 23 475 58 515 c 128,-1,17
 93 555 93 555 162 555 c 2,18,-1
 253 555 l 1,19,20
 253 595 253 595 239.5 612 c 128,-1,21
 226 629 226 629 194 629 c 0,0,1
253 431 m 1,22,-1
 253 478 l 1,23,-1
 176 478 l 2,24,25
 152 478 152 478 139.5 465.5 c 128,-1,26
 127 453 127 453 127 435 c 0,27,28
 127 417 127 417 138 403 c 128,-1,29
 149 389 149 389 168 388 c 1,30,-1
 253 431 l 1,22,-1
EndSplineSet
EndChar

StartChar: ordmasculine
Encoding: 186 186 159
Width: 462
Flags: HMW
HStem: 292 94<197.5 261.5 197.5 297> 623 94<200.5 264.5>
VStem: 55 105<470 543.5 470 569.5> 302 105<464.5 538>
LayerCount: 2
Fore
SplineSet
365.5 664 m 128,-1,1
 407 611 407 611 407 505.5 c 128,-1,2
 407 400 407 400 366.5 346 c 128,-1,3
 326 292 326 292 232 292 c 128,-1,4
 138 292 138 292 96.5 344.5 c 128,-1,5
 55 397 55 397 55 502.5 c 128,-1,6
 55 608 55 608 95.5 662.5 c 128,-1,7
 136 717 136 717 230 717 c 128,-1,0
 324 717 324 717 365.5 664 c 128,-1,1
288 413 m 128,-1,9
 302 440 302 440 302 502.5 c 128,-1,10
 302 565 302 565 289.5 594 c 128,-1,11
 277 623 277 623 232.5 623 c 128,-1,12
 188 623 188 623 174 595.5 c 128,-1,13
 160 568 160 568 160 505.5 c 128,-1,14
 160 443 160 443 172.5 414.5 c 128,-1,15
 185 386 185 386 229.5 386 c 128,-1,8
 274 386 274 386 288 413 c 128,-1,9
EndSplineSet
EndChar

StartChar: trademark
Encoding: 8482 8482 160
Width: 924
Flags: HMW
HStem: 285 21G<155 250 155 155 426 521 426 426 765 860 765 765> 627 85<45 155 45 360 250 360 250 250>
VStem: 155 95<285 627 285 627> 426 95<285 537 285 712> 765 95<285 537 537 537>
LayerCount: 2
Fore
SplineSet
860 285 m 1,0,-1
 765 285 l 1,1,-1
 765 537 l 1,2,-1
 685 380 l 2,3,4
 671 354 671 354 642 354 c 0,5,6
 613 354 613 354 601 380 c 1,7,-1
 521 537 l 1,8,-1
 521 285 l 1,9,-1
 426 285 l 1,10,-1
 426 712 l 1,11,-1
 521 712 l 1,12,-1
 625 517 l 2,13,14
 634 501 634 501 643 501 c 128,-1,15
 652 501 652 501 661 518 c 2,16,-1
 765 712 l 1,17,-1
 860 712 l 1,18,-1
 860 285 l 1,0,-1
360 627 m 1,19,-1
 250 627 l 1,20,-1
 250 285 l 1,21,-1
 155 285 l 1,22,-1
 155 627 l 1,23,-1
 45 627 l 1,24,-1
 45 712 l 1,25,-1
 360 712 l 1,26,-1
 360 627 l 1,19,-1
EndSplineSet
EndChar

StartChar: numbersign
Encoding: 35 35 161
Width: 691
Flags: HMW
HStem: 0 21G<128 267 128 128 392 531 392 392> 179 121<62 146 62 139 285 403 549 610> 430 121<86 154 86 162 301 418 565 634> 698 20G<172 311 311 311 436 575 575 575>
VStem: 133 139 150 139 167 139 397 139 414 139 431 139
LayerCount: 2
Fore
SplineSet
62 179 m 1,0,-1
 62 300 l 1,1,-1
 146 300 l 1,2,-1
 154 430 l 1,3,-1
 86 430 l 1,4,-1
 86 551 l 1,5,-1
 162 551 l 1,6,-1
 172 718 l 1,7,-1
 311 718 l 1,8,-1
 301 551 l 1,9,-1
 426 551 l 1,10,-1
 436 718 l 1,11,-1
 575 718 l 1,12,-1
 565 551 l 1,13,-1
 634 551 l 1,14,-1
 634 430 l 1,15,-1
 557 430 l 1,16,-1
 549 300 l 1,17,-1
 610 300 l 1,18,-1
 610 179 l 1,19,-1
 542 179 l 1,20,-1
 531 0 l 1,21,-1
 392 0 l 1,22,-1
 403 179 l 1,23,-1
 278 179 l 1,24,-1
 267 0 l 1,25,-1
 128 0 l 1,26,-1
 139 179 l 1,27,-1
 62 179 l 1,0,-1
293 430 m 1,28,-1
 285 300 l 1,29,-1
 410 300 l 1,30,-1
 418 430 l 1,31,-1
 293 430 l 1,28,-1
EndSplineSet
EndChar

StartChar: zero
Encoding: 48 48 162
Width: 567
Flags: HMW
HStem: -6 124<235.5 332.5 235.5 387.5> 594 124<236.5 330>
VStem: 40 134<337 375 375 419 304 499.5> 392 134<304 335 335 376 221 415 221 415>
LayerCount: 2
Fore
SplineSet
526 376 m 2,0,-1
 526 335 l 2,1,2
 526 261 526 261 521 211 c 128,-1,3
 516 161 516 161 501 117 c 128,-1,4
 486 73 486 73 459 47.5 c 128,-1,5
 432 22 432 22 388.5 8 c 128,-1,6
 345 -6 345 -6 283 -6 c 128,-1,7
 221 -6 221 -6 177.5 8.5 c 128,-1,8
 134 23 134 23 107 48 c 128,-1,9
 80 73 80 73 65 117.5 c 128,-1,10
 50 162 50 162 45 212 c 128,-1,11
 40 262 40 262 40 337 c 2,12,-1
 40 375 l 2,13,14
 40 529 40 529 64.5 602.5 c 0,15,16
 79 646 79 646 106.5 669.5 c 0,17,18
 163.255319149 718 163.255319149 718 283 718 c 0,19,20
 423 718 423 718 474.5 642 c 128,-1,21
 526 566 526 566 526 376 c 2,0,-1
392 304 m 1,22,-1
 392 415 l 1,23,24
 391 514 391 514 370 554 c 128,-1,25
 349 594 349 594 283 594 c 128,-1,26
 217 594 217 594 196 554.5 c 128,-1,27
 175 515 175 515 174 419 c 1,28,-1
 174 304 l 1,29,30
 175 197 175 197 195 157.5 c 128,-1,31
 215 118 215 118 284 118 c 128,-1,32
 353 118 353 118 372 156 c 128,-1,33
 391 194 391 194 392 304 c 1,22,-1
EndSplineSet
EndChar

StartChar: one
Encoding: 49 49 163
Width: 438
Flags: HMW
HStem: 0 21G<189 325 189 189> 693 20G<102 220 220 265.5>
VStem: 102 223
LayerCount: 2
Fore
SplineSet
325 0 m 1,0,-1
 189 0 l 1,1,-1
 189 584 l 1,2,-1
 102 616 l 1,3,-1
 102 713 l 1,4,-1
 220 713 l 2,5,6
 286 713 286 713 305.5 689 c 128,-1,7
 325 665 325 665 325 594 c 2,8,-1
 325 0 l 1,0,-1
EndSplineSet
EndChar

StartChar: two
Encoding: 50 50 164
Width: 548
Flags: HMW
HStem: 0 117<124.5 490 215 490 215 490> 494 224<180.5 184 53 347.5> 601 117<235.5 306.5>
VStem: 53 131<494 524.5 494 555> 355 142<495.5 540>
LayerCount: 2
Fore
SplineSet
490 0 m 1,0,-1
 149 0 l 2,1,2
 105 0 105 0 74 18 c 128,-1,3
 43 36 43 36 43 78 c 0,4,5
 43 113 43 113 68.5 146 c 0,6,7
 77 157 77 157 98 180 c 2,8,-1
 205 299 l 1,9,10
 251 345 251 345 278 382.5 c 128,-1,11
 305 420 305 420 318 439 c 128,-1,12
 331 458 331 458 338 472 c 0,13,14
 355 506 355 506 355 530 c 128,-1,15
 355 554 355 554 336.5 577.5 c 128,-1,16
 318 601 318 601 269.5 601 c 128,-1,17
 221 601 221 601 202.5 573 c 128,-1,18
 184 545 184 545 184 494 c 1,19,-1
 53 494 l 1,20,21
 53 545 53 545 61 581.5 c 128,-1,22
 69 618 69 618 91.5 651 c 0,23,24
 137.181818182 718 137.181818182 718 278 718 c 0,25,26
 383 718 383 718 440 675 c 128,-1,27
 497 632 497 632 497 552 c 0,28,29
 497 503 497 503 474.5 450.5 c 128,-1,30
 452 398 452 398 427 366 c 128,-1,31
 402 334 402 334 368 295 c 128,-1,32
 334 256 334 256 328 248 c 2,33,-1
 215 117 l 1,34,-1
 490 117 l 1,35,-1
 490 0 l 1,0,-1
EndSplineSet
EndChar

StartChar: three
Encoding: 51 51 165
Width: 535
Flags: HMW
HStem: -6 119<229.5 301.5 229.5 341> -6 202<58 341> 494 224<57 337.5 57 337.5> 599 119<232.5 303.5>
VStem: 57 122<494 534.5 494 571.5> 366 130<180 239>
LayerCount: 2
Fore
SplineSet
239 325 m 1,0,-1
 261 435 l 1,1,-1
 323 406 l 1,2,3
 361 454 361 454 361 531 c 0,4,5
 361 551 361 551 337.5 575 c 128,-1,6
 314 599 314 599 264.5 599 c 128,-1,7
 215 599 215 599 197 577 c 128,-1,8
 179 555 179 555 179 494 c 1,9,-1
 57 494 l 1,10,11
 57 609 57 609 109.5 663.5 c 128,-1,12
 162 718 162 718 268 718 c 0,13,14
 486 718 486 718 486 532 c 0,15,16
 486 423 486 423 420 355 c 1,17,18
 496 312 496 312 496 192 c 0,19,20
 496 99 496 99 436.5 46.5 c 128,-1,21
 377 -6 377 -6 270 -6 c 128,-1,22
 163 -6 163 -6 110.5 49 c 128,-1,23
 58 104 58 104 58 196 c 1,24,-1
 185 196 l 1,25,26
 185 179 185 179 189.5 162.5 c 128,-1,27
 194 146 194 146 213 129.5 c 128,-1,28
 232 113 232 113 273.5 113 c 128,-1,29
 315 113 315 113 340.5 139.5 c 128,-1,30
 366 166 366 166 366 199 c 0,31,32
 366 234.055555556 366 234.055555556 353.5 250.027777778 c 128,-1,33
 341 266 341 266 335 273.5 c 128,-1,34
 329 281 329 281 312.5 290 c 128,-1,35
 296 299 296 299 290 302.5 c 128,-1,36
 284 306 284 306 263.5 314.5 c 128,-1,37
 243 323 243 323 239 325 c 1,0,-1
EndSplineSet
EndChar

StartChar: four
Encoding: 52 52 166
Width: 590
Flags: HMW
HStem: 0 21G<346 470 346 346> 153 123<103.5 346 179 346 179 346 470 550> 692 20G<346 470 470 470>
VStem: 346 124<0 153 0 153 276 712>
LayerCount: 2
Fore
SplineSet
550 153 m 1,0,-1
 470 153 l 1,1,-1
 470 0 l 1,2,-1
 346 0 l 1,3,-1
 346 153 l 1,4,-1
 139 153 l 2,5,6
 88 153 88 153 62.5 174.5 c 128,-1,7
 37 196 37 196 37 234 c 0,8,9
 37 254 37 254 54 305 c 128,-1,10
 71 356 71 356 149 567 c 1,11,-1
 288 567 l 1,12,-1
 179 276 l 1,13,-1
 346 276 l 1,14,-1
 346 712 l 1,15,-1
 470 712 l 1,16,-1
 470 276 l 1,17,-1
 550 276 l 1,18,-1
 550 153 l 1,0,-1
EndSplineSet
EndChar

StartChar: five
Encoding: 53 53 167
Width: 551
Flags: HMW
HStem: -6 119<207.5 279.5 207.5 319> -6 202<36 319> 372 105<77 313.5> 589 111<205 454 205 205>
VStem: 36 127<183 196 183 196> 77 128<477 589 477 700 477 700> 344 130<190 256.5>
LayerCount: 2
Fore
SplineSet
77 700 m 1,0,-1
 454 700 l 1,1,-1
 454 589 l 1,2,-1
 205 589 l 1,3,-1
 205 477 l 1,4,5
 359 477 359 477 416.5 414 c 128,-1,6
 474 351 474 351 474 229.5 c 0,7,8
 474 -6 474 -6 246 -6 c 0,9,10
 141 -6 141 -6 88.5 49 c 128,-1,11
 36 104 36 104 36 196 c 1,12,-1
 163 196 l 1,13,14
 163 179 163 179 167.5 162.5 c 128,-1,15
 172 146 172 146 191 129.5 c 128,-1,16
 210 113 210 113 242 113 c 0,17,18
 295 113 295 113 319.5 142.5 c 128,-1,19
 344 172 344 172 344 212 c 128,-1,20
 344 252 344 252 338.5 275 c 128,-1,21
 333 298 333 298 315 322.5 c 0,22,23
 278.632653061 372 278.632653061 372 154 372 c 2,24,-1
 77 372 l 1,25,-1
 77 700 l 1,0,-1
EndSplineSet
EndChar

StartChar: six
Encoding: 54 54 168
Width: 549
Flags: HMW
HStem: -6 122<238.5 317 238.5 341> 330 106<291 330> 493 225<179 502> 594 124<234 319.5>
VStem: 41 134<222 387 387 387 387 499.5> 379 129<188 247>
LayerCount: 2
Fore
SplineSet
502 493 m 1,0,-1
 379 494 l 1,1,2
 372 550 372 550 353 572 c 128,-1,3
 334 594 334 594 284 594 c 0,4,5
 214 594 214 594 195.5 552 c 128,-1,6
 177 510 177 510 175 387 c 1,7,-1
 288 436 l 1,8,9
 406 436 406 436 457 385.5 c 128,-1,10
 508 335 508 335 508 215 c 0,11,12
 508 -6 508 -6 275 -6 c 0,13,14
 160 -6 160 -6 100.5 51.5 c 128,-1,15
 41 109 41 109 41 222 c 2,16,-1
 41 375 l 2,17,18
 41 529 41 529 65.5 602.5 c 0,19,20
 80 646 80 646 107.5 669.5 c 0,21,22
 164.255319149 718 164.255319149 718 284 718 c 0,23,24
 502 718 502 718 502 493 c 1,0,-1
278 116 m 0,25,26
 379 116 379 116 379 214 c 0,27,28
 379 272 379 272 362 301 c 128,-1,29
 345 330 345 330 291 330 c 1,30,-1
 174 267 l 1,31,32
 174 185 174 185 197 150.5 c 128,-1,33
 220 116 220 116 278 116 c 0,25,26
EndSplineSet
EndChar

StartChar: seven
Encoding: 55 55 169
Width: 553
Flags: HMW
HStem: 0 21G<105 245 105 105> 588 125<55 368 55 508>
LayerCount: 2
Fore
SplineSet
508 598 m 1,0,-1
 245 0 l 1,1,-1
 105 0 l 1,2,-1
 368 588 l 1,3,-1
 55 588 l 1,4,-1
 55 713 l 1,5,-1
 508 713 l 1,6,-1
 508 598 l 1,0,-1
EndSplineSet
EndChar

StartChar: eight
Encoding: 56 56 170
Width: 560
Flags: HMW
HStem: -6 123<247.5 317.5 247.5 353> 599 119<257.5 318.5>
VStem: 62 120 62 133<487.5 542 487.5 591.5> 384 124<487 532>
LayerCount: 2
Fore
SplineSet
52 197 m 0,0,1
 52 238 52 238 71 289 c 128,-1,2
 90 340 90 340 115 377 c 1,3,4
 62 428 62 428 62 522 c 0,5,6
 62 718 62 718 280 718 c 0,7,8
 388 718 388 718 448 670 c 128,-1,9
 508 622 508 622 508 521 c 128,-1,10
 508 420 508 420 437 336 c 1,11,12
 508 288 508 288 508 197 c 0,13,14
 508 84 508 84 452 39 c 128,-1,15
 396 -6 396 -6 282.5 -6 c 128,-1,16
 169 -6 169 -6 110.5 45.5 c 128,-1,17
 52 97 52 97 52 197 c 0,0,1
195 510 m 0,18,19
 195 477 195 477 227.5 449 c 128,-1,20
 260 421 260 421 341 383 c 1,21,22
 384 437 384 437 384 506 c 0,23,24
 384 548 384 548 359 573.5 c 128,-1,25
 334 599 334 599 283 599 c 0,26,27
 195 599 195 599 195 510 c 0,18,19
207.5 138 m 128,-1,29
 233 117 233 117 283.5 117 c 128,-1,30
 334 117 334 117 356 136 c 128,-1,31
 378 155 378 155 378 195 c 0,32,33
 378 223 378 223 339 257 c 128,-1,34
 300 291 300 291 218 325 c 1,35,36
 182 270 182 270 182 193 c 0,37,28
 182 159 182 159 207.5 138 c 128,-1,29
EndSplineSet
EndChar

StartChar: nine
Encoding: 57 57 171
Width: 549
Flags: HMW
HStem: -6 119<241.5 313.5 241.5 353> -6 202<70 353> 262 122<236 269> 598 126<239 317.5>
VStem: 41 136<467 526 467 586.5> 70 127<183 196 183 196> 378 130<219 221 221 324 324 324>
LayerCount: 2
Fore
SplineSet
508 506 m 2,0,-1
 508 221 l 2,1,2
 508 108 508 108 449.5 51 c 128,-1,3
 391 -6 391 -6 283 -6 c 0,4,5
 175 -6 175 -6 122.5 49 c 128,-1,6
 70 104 70 104 70 196 c 1,7,-1
 197 196 l 1,8,9
 197 179 197 179 201.5 162.5 c 128,-1,10
 206 146 206 146 225 129.5 c 128,-1,11
 244 113 244 113 276 113 c 0,12,13
 329 113 329 113 353.5 142.5 c 128,-1,14
 378 172 378 172 378 219 c 2,15,-1
 378 324 l 1,16,-1
 269 262 l 1,17,18
 41 262 41 262 41 503 c 0,19,20
 41 624 41 624 98 674 c 128,-1,21
 155 724 155 724 274.5 724 c 0,22,23
 394 724 394 724 451 675.5 c 128,-1,24
 508 627 508 627 508 506 c 2,0,-1
278 598 m 0,25,26
 177 598 177 598 177 500 c 0,27,28
 177 445 177 445 198.5 414.5 c 128,-1,29
 220 384 220 384 275 384 c 1,30,-1
 382 447 l 1,31,32
 382 529 382 529 359 563.5 c 128,-1,33
 336 598 336 598 278 598 c 0,25,26
EndSplineSet
EndChar

StartChar: onesuperior
Encoding: 185 185 172
Width: 292
Flags: HMW
HStem: 282 21G<119 212 119 119> 693 20G<63 148 148 175.5>
VStem: 119 93<282 635 635 635>
LayerCount: 2
Fore
SplineSet
212 282 m 1,0,-1
 119 282 l 1,1,-1
 119 635 l 1,2,-1
 63 654 l 1,3,-1
 63 713 l 1,4,-1
 148 713 l 2,5,6
 188 713 188 713 200 698.5 c 128,-1,7
 212 684 212 684 212 641 c 2,8,-1
 212 282 l 1,0,-1
EndSplineSet
EndChar

StartChar: twosuperior
Encoding: 178 178 173
Width: 358
Flags: HMW
HStem: 296 84<96 310 168 310 168 310> 570 143<124.5 140 49 224> 629 84<162.5 195.5>
VStem: 217 96<583.5 603.5>
LayerCount: 2
Fore
SplineSet
310 296 m 1,0,-1
 112 296 l 2,1,2
 43 296 43 296 43 348 c 0,3,4
 43 375 43 375 71 405 c 2,5,-1
 145 487 l 2,6,7
 217 567 217 567 217 598 c 128,-1,8
 217 629 217 629 179 629 c 0,9,10
 156 629 156 629 148 614 c 128,-1,11
 140 599 140 599 140 570 c 1,12,-1
 49 570 l 1,13,14
 49 638 49 638 76 675.5 c 128,-1,15
 103 713 103 713 174 713 c 0,16,17
 245 713 245 713 279 686.5 c 128,-1,18
 313 660 313 660 313 619.5 c 0,19,20
 313 579 313 579 296.5 544 c 128,-1,21
 280 509 280 509 264 488.5 c 128,-1,22
 248 468 248 468 213.5 430.5 c 128,-1,23
 179 393 179 393 168 380 c 1,24,-1
 310 380 l 1,25,-1
 310 296 l 1,0,-1
EndSplineSet
EndChar

StartChar: threesuperior
Encoding: 179 179 174
Width: 368
Flags: HMW
HStem: 287 85<164.5 197.5 164.5 225> 287 132<137 144 54 225> 568 145<139.5 140 53 223.5> 627 86<165.5 198>
VStem: 53 87<568 591 568 618.5> 227 92<402.5 428.5>
LayerCount: 2
Fore
SplineSet
154 477 m 1,0,-1
 170 557 l 1,1,-1
 210 539 l 1,2,3
 224 565 224 565 224 599 c 0,4,5
 224 607 224 607 213.5 617 c 128,-1,6
 203 627 203 627 180 627 c 0,7,8
 157 627 157 627 148.5 615 c 128,-1,9
 140 603 140 603 140 568 c 1,10,-1
 53 568 l 1,11,12
 53 713 53 713 182 713 c 0,13,14
 314 713 314 713 314 599 c 0,15,16
 314 539 314 539 282 501 c 1,17,18
 319 470 319 470 319 410.5 c 0,19,20
 319 351 319 351 282.5 319 c 128,-1,21
 246 287 246 287 181.5 287 c 0,22,23
 117 287 117 287 85.5 323 c 128,-1,24
 54 359 54 359 54 419 c 1,25,-1
 144 419 l 1,26,27
 144 372 144 372 180 372 c 0,28,29
 204 372 204 372 215.5 384 c 128,-1,30
 227 396 227 396 227 411.5 c 0,31,32
 227 427 227 427 217.5 439.5 c 128,-1,33
 208 452 208 452 199 457 c 128,-1,34
 190 462 190 462 171 470 c 2,35,-1
 154 477 l 1,0,-1
EndSplineSet
EndChar

StartChar: onehalf
Encoding: 189 189 175
Width: 862
Flags: HMW
HStem: 0 21G<182 283 182 182> 1 84<596 810 668 810 668 810> 282 136 334 84<662.5 695.5> 692 20G<519 620 620 620> 693 20G<71 156 156 183.5>
VStem: 127 93<282 635 635 635> 717 96<288.5 308.5>
LayerCount: 2
Fore
SplineSet
620 712 m 1,0,-1
 283 0 l 1,1,-1
 182 0 l 1,2,-1
 519 712 l 1,3,-1
 620 712 l 1,0,-1
220 282 m 1,4,-1
 127 282 l 1,5,-1
 127 635 l 1,6,-1
 71 654 l 1,7,-1
 71 713 l 1,8,-1
 156 713 l 2,9,10
 196 713 196 713 208 698.5 c 128,-1,11
 220 684 220 684 220 641 c 2,12,-1
 220 282 l 1,4,-1
810 1 m 1,13,-1
 612 1 l 2,14,15
 543 1 543 1 543 53 c 0,16,17
 543 80 543 80 571 110 c 2,18,-1
 645 192 l 2,19,20
 717 272 717 272 717 303 c 128,-1,21
 717 334 717 334 679 334 c 0,22,23
 656 334 656 334 648 319 c 128,-1,24
 640 304 640 304 640 275 c 1,25,-1
 549 275 l 1,26,27
 549 343 549 343 576 380.5 c 128,-1,28
 603 418 603 418 674 418 c 0,29,30
 745 418 745 418 779 391.5 c 128,-1,31
 813 365 813 365 813 324.5 c 0,32,33
 813 284 813 284 796.5 249 c 128,-1,34
 780 214 780 214 764 193.5 c 128,-1,35
 748 173 748 173 713.5 135.5 c 128,-1,36
 679 98 679 98 668 85 c 1,37,-1
 810 85 l 1,38,-1
 810 1 l 1,13,-1
EndSplineSet
EndChar

StartChar: onequarter
Encoding: 188 188 176
Width: 836
Flags: HMW
HStem: 0 21G<186 288 186 186 672 764 672 672> 89 92<536 672 598 672 598 672 764 811> 692 20G<523 625 625 625> 693 20G<71 156 156 183.5>
VStem: 127 93<282 635 635 635> 672 92<0 89 0 89 181 436>
LayerCount: 2
Fore
SplineSet
811 89 m 1,0,-1
 764 89 l 1,1,-1
 764 0 l 1,2,-1
 672 0 l 1,3,-1
 672 89 l 1,4,-1
 560 89 l 2,5,6
 491 89 491 89 491 146 c 0,7,8
 491 177 491 177 555 351 c 1,9,-1
 656 351 l 1,10,-1
 598 181 l 1,11,-1
 672 181 l 1,12,-1
 672 436 l 1,13,-1
 764 436 l 1,14,-1
 764 181 l 1,15,-1
 811 181 l 1,16,-1
 811 89 l 1,0,-1
625 712 m 1,17,-1
 288 0 l 1,18,-1
 186 0 l 1,19,-1
 523 712 l 1,20,-1
 625 712 l 1,17,-1
220 282 m 1,21,-1
 127 282 l 1,22,-1
 127 635 l 1,23,-1
 71 654 l 1,24,-1
 71 713 l 1,25,-1
 156 713 l 2,26,27
 196 713 196 713 208 698.5 c 128,-1,28
 220 684 220 684 220 641 c 2,29,-1
 220 282 l 1,21,-1
EndSplineSet
EndChar

StartChar: threequarters
Encoding: 190 190 177
Width: 865
Flags: HMW
HStem: 0 21G<218 320 218 218 672 672 672 764> 89 92<536 672 598 672 598 672 764 811> 287 85<164.5 197.5 164.5 225> 287 132<137 144 54 225> 568 145<139.5 140 53 223.5> 627 86<165.5 198> 692 20G<555 657 657 657>
VStem: 53 87<568 591 568 618.5> 227 92<402.5 428.5> 672 92<0 89 0 89 181 436>
LayerCount: 2
Fore
SplineSet
657 712 m 1,0,-1
 320 0 l 1,1,-1
 218 0 l 1,2,-1
 555 712 l 1,3,-1
 657 712 l 1,0,-1
154 477 m 1,4,-1
 170 557 l 1,5,-1
 210 539 l 1,6,7
 224 565 224 565 224 599 c 0,8,9
 224 607 224 607 213.5 617 c 128,-1,10
 203 627 203 627 180 627 c 0,11,12
 157 627 157 627 148.5 615 c 128,-1,13
 140 603 140 603 140 568 c 1,14,-1
 53 568 l 1,15,16
 53 713 53 713 182 713 c 0,17,18
 314 713 314 713 314 599 c 0,19,20
 314 539 314 539 282 501 c 1,21,22
 319 470 319 470 319 410.5 c 0,23,24
 319 351 319 351 282.5 319 c 128,-1,25
 246 287 246 287 181.5 287 c 0,26,27
 117 287 117 287 85.5 323 c 128,-1,28
 54 359 54 359 54 419 c 1,29,-1
 144 419 l 1,30,31
 144 372 144 372 180 372 c 0,32,33
 204 372 204 372 215.5 384 c 128,-1,34
 227 396 227 396 227 411.5 c 0,35,36
 227 427 227 427 217.5 439.5 c 128,-1,37
 208 452 208 452 199 457 c 128,-1,38
 190 462 190 462 171 470 c 2,39,-1
 154 477 l 1,4,-1
811 89 m 1,40,-1
 764 89 l 1,41,-1
 764 0 l 1,42,-1
 672 0 l 1,43,-1
 672 89 l 1,44,-1
 560 89 l 2,45,46
 491 89 491 89 491 146 c 0,47,48
 491 177 491 177 555 351 c 1,49,-1
 656 351 l 1,50,-1
 598 181 l 1,51,-1
 672 181 l 1,52,-1
 672 436 l 1,53,-1
 764 436 l 1,54,-1
 764 181 l 1,55,-1
 811 181 l 1,56,-1
 811 89 l 1,40,-1
EndSplineSet
EndChar

StartChar: percent
Encoding: 37 37 178
Width: 848
Flags: HMW
HStem: -20 20G<205 307 205 205> -6 84<636.5 669 636.5 692> 283 84<636.5 669> 340 84<201.5 234 201.5 257> 629 83<218 234>
VStem: 73 94<457 471 471 582> 269 94<471 582 582 596> 508 94<111 125 125 236> 704 94<125 236 236 250>
LayerCount: 2
Fore
SplineSet
269 471 m 2,0,-1
 269 582 l 2,1,2
 269 609 269 609 256.5 619 c 128,-1,3
 244 629 244 629 218 629 c 128,-1,4
 192 629 192 629 179.5 619 c 128,-1,5
 167 609 167 609 167 582 c 2,6,-1
 167 471 l 2,7,8
 167 444 167 444 179.5 434 c 128,-1,9
 192 424 192 424 218 424 c 128,-1,10
 244 424 244 424 256.5 434 c 128,-1,11
 269 444 269 444 269 471 c 2,0,-1
798 250 m 2,12,-1
 798 111 l 2,13,14
 798 -6 798 -6 653 -6 c 128,-1,15
 508 -6 508 -6 508 111 c 2,16,-1
 508 250 l 2,17,18
 508 367 508 367 653 367 c 128,-1,19
 798 367 798 367 798 250 c 2,12,-1
704 125 m 2,20,-1
 704 236 l 2,21,22
 704 263 704 263 691.5 273 c 128,-1,23
 679 283 679 283 653 283 c 128,-1,24
 627 283 627 283 614.5 273 c 128,-1,25
 602 263 602 263 602 236 c 2,26,-1
 602 125 l 2,27,28
 602 98 602 98 614.5 88 c 128,-1,29
 627 78 627 78 653 78 c 128,-1,30
 679 78 679 78 691.5 88 c 128,-1,31
 704 98 704 98 704 125 c 2,20,-1
363 596 m 2,32,-1
 363 457 l 2,33,34
 363 340 363 340 218 340 c 128,-1,35
 73 340 73 340 73 457 c 2,36,-1
 73 596 l 2,37,38
 73 712 73 712 218 712 c 2,39,-1
 644 712 l 1,40,-1
 307 0 l 1,41,-1
 205 0 l 1,42,-1
 505 634 l 1,43,-1
 358 634 l 1,44,45
 363 616 363 616 363 596 c 2,32,-1
EndSplineSet
EndChar

StartChar: perthousand
Encoding: 8240 8240 179
Width: 1211
Flags: HMW
HStem: -20 20G<205 307 205 205> -6 84<636.5 669 636.5 692 1006.5 1039> 283 84<636.5 669 1006.5 1039> 340 84<201.5 234 201.5 257> 629 83<218 234>
VStem: 73 94<457 471 471 582> 269 94<471 582 582 596> 508 94<111 125 125 236> 704 94<125 236 236 250> 878 94<111 125 125 236> 1074 94<125 236 236 250>
LayerCount: 2
Fore
SplineSet
798 250 m 2,0,-1
 798 111 l 2,1,2
 798 -6 798 -6 653 -6 c 128,-1,3
 508 -6 508 -6 508 111 c 2,4,-1
 508 250 l 2,5,6
 508 367 508 367 653 367 c 128,-1,7
 798 367 798 367 798 250 c 2,0,-1
704 125 m 2,8,-1
 704 236 l 2,9,10
 704 263 704 263 691.5 273 c 128,-1,11
 679 283 679 283 653 283 c 128,-1,12
 627 283 627 283 614.5 273 c 128,-1,13
 602 263 602 263 602 236 c 2,14,-1
 602 125 l 2,15,16
 602 98 602 98 614.5 88 c 128,-1,17
 627 78 627 78 653 78 c 128,-1,18
 679 78 679 78 691.5 88 c 128,-1,19
 704 98 704 98 704 125 c 2,8,-1
1168 250 m 2,20,-1
 1168 111 l 2,21,22
 1168 -6 1168 -6 1023 -6 c 128,-1,23
 878 -6 878 -6 878 111 c 2,24,-1
 878 250 l 2,25,26
 878 367 878 367 1023 367 c 128,-1,27
 1168 367 1168 367 1168 250 c 2,20,-1
1074 125 m 2,28,-1
 1074 236 l 2,29,30
 1074 263 1074 263 1061.5 273 c 128,-1,31
 1049 283 1049 283 1023 283 c 128,-1,32
 997 283 997 283 984.5 273 c 128,-1,33
 972 263 972 263 972 236 c 2,34,-1
 972 125 l 2,35,36
 972 98 972 98 984.5 88 c 128,-1,37
 997 78 997 78 1023 78 c 128,-1,38
 1049 78 1049 78 1061.5 88 c 128,-1,39
 1074 98 1074 98 1074 125 c 2,28,-1
269 471 m 2,40,-1
 269 582 l 2,41,42
 269 609 269 609 256.5 619 c 128,-1,43
 244 629 244 629 218 629 c 128,-1,44
 192 629 192 629 179.5 619 c 128,-1,45
 167 609 167 609 167 582 c 2,46,-1
 167 471 l 2,47,48
 167 444 167 444 179.5 434 c 128,-1,49
 192 424 192 424 218 424 c 128,-1,50
 244 424 244 424 256.5 434 c 128,-1,51
 269 444 269 444 269 471 c 2,40,-1
363 596 m 2,52,-1
 363 457 l 2,53,54
 363 340 363 340 218 340 c 128,-1,55
 73 340 73 340 73 457 c 2,56,-1
 73 596 l 2,57,58
 73 712 73 712 218 712 c 2,59,-1
 644 712 l 1,60,-1
 307 0 l 1,61,-1
 205 0 l 1,62,-1
 505 634 l 1,63,-1
 358 634 l 1,64,65
 363 616 363 616 363 596 c 2,52,-1
EndSplineSet
EndChar

StartChar: degree
Encoding: 176 176 180
Width: 478
Flags: HMW
HStem: 358 104<212 266 212 300> 622 105<211 265>
VStem: 55 105<509.5 574.5 509.5 613> 318 105<509.5 574.5>
LayerCount: 2
Fore
SplineSet
423 542 m 128,-1,1
 423 439 423 439 379 398.5 c 128,-1,2
 335 358 335 358 239 358 c 128,-1,3
 143 358 143 358 99 398.5 c 128,-1,4
 55 439 55 439 55 542 c 128,-1,5
 55 645 55 645 99.5 686 c 128,-1,6
 144 727 144 727 239 727 c 128,-1,7
 334 727 334 727 378.5 686 c 128,-1,0
 423 645 423 645 423 542 c 128,-1,1
318 542 m 128,-1,9
 318 589 318 589 299.5 605.5 c 128,-1,10
 281 622 281 622 238.5 622 c 0,11,12
 196 622 196 622 178 605.5 c 128,-1,13
 160 589 160 589 160 542 c 128,-1,14
 160 495 160 495 178 478.5 c 128,-1,15
 196 462 196 462 239 462 c 128,-1,16
 282 462 282 462 300 478.5 c 128,-1,8
 318 495 318 495 318 542 c 128,-1,9
EndSplineSet
EndChar

StartChar: dollar
Encoding: 36 36 181
Width: 495
Flags: HMW
HStem: -109 227<190 266 207 266 207 291> 597 189<221.5 269.5>
VStem: 30 118 30 134<483.5 531.5 483.5 556.5> 190 101<-109 -1 -1 -1 714 786> 342 138<177.5 231>
LayerCount: 2
Fore
SplineSet
190 -109 m 1,0,-1
 190 -1 l 1,1,2
 117 13 117 13 69.5 69 c 128,-1,3
 22 125 22 125 22 226 c 1,4,-1
 148 232 l 1,5,6
 148 172 148 172 169.5 145 c 128,-1,7
 191 118 191 118 236 118 c 0,8,9
 281 118 281 118 311.5 142 c 128,-1,10
 342 166 342 166 342 206 c 0,11,12
 342 278 342 278 274 291 c 1,13,-1
 181 303 l 1,14,15
 111 316 111 316 70.5 365 c 128,-1,16
 30 414 30 414 30 499 c 0,17,18
 30 584 30 584 73 640 c 128,-1,19
 116 696 116 696 190 712 c 1,20,-1
 190 786 l 1,21,-1
 291 786 l 1,22,-1
 291 714 l 1,23,24
 372 701 372 701 419.5 647.5 c 128,-1,25
 467 594 467 594 467 516 c 1,26,-1
 342 510 l 1,27,28
 334 560 334 560 310 578.5 c 128,-1,29
 286 597 286 597 248.5 597 c 0,30,31
 211 597 211 597 187.5 570 c 128,-1,32
 164 543 164 543 164 508.5 c 0,33,34
 164 474 164 474 184 453.5 c 128,-1,35
 204 433 204 433 233 428 c 2,36,-1
 298 416 l 1,37,38
 376 403 376 403 428 351.5 c 128,-1,39
 480 300 480 300 480 214 c 0,40,41
 480 128 480 128 423.5 72 c 128,-1,42
 367 16 367 16 291 0 c 1,43,-1
 291 -109 l 1,44,-1
 190 -109 l 1,0,-1
EndSplineSet
EndChar

StartChar: cent
Encoding: 162 162 182
Width: 499
Flags: HMW
HStem: -110 213<218 218 218 309 212 320> 462 205<218 302>
VStem: 31 130<221 262 262 314 221 359> 218 102<-110 -11 -11 -11 576 667> 363 120
LayerCount: 2
Fore
SplineSet
218 -110 m 1,0,-1
 218 -11 l 1,1,2
 125.883463842 4.67941040995 125.883463842 4.67941040995 83 61.5 c 0,3,4
 44.2844036697 112.798165138 44.2844036697 112.798165138 35 201 c 0,5,6
 31 239 31 239 31 293 c 128,-1,7
 31 347 31 347 38 390 c 128,-1,8
 45 433 45 433 64 473 c 0,9,10
 102.522027475 554.099005211 102.522027475 554.099005211 218 576 c 1,11,-1
 218 667 l 1,12,-1
 320 667 l 1,13,-1
 320 574 l 1,14,15
 399 560 399 560 440 508.5 c 128,-1,16
 481 457 481 457 481 375 c 1,17,-1
 363 375 l 1,18,19
 363 419 363 419 341 440.5 c 128,-1,20
 319 462 319 462 261 462 c 0,21,22
 210 462 210 462 183.5 435.5 c 0,23,24
 165.1875 417.1875 165.1875 417.1875 162 363 c 0,25,26
 161 346 161 346 161 314 c 2,27,-1
 161 262 l 2,28,29
 161 162 161 162 183 134.5 c 0,30,31
 208.2 103 208.2 103 261 103 c 0,32,33
 331.28125 103 331.28125 103 348.5 132 c 0,34,35
 358 148 358 148 361 163.5 c 128,-1,36
 364 179 364 179 365 209 c 1,37,-1
 483 210 l 1,38,39
 475.847352025 127.744548287 475.847352025 127.744548287 464.423676012 92.8722741433 c 128,-1,40
 453 58 453 58 436.5 43 c 0,41,42
 398.465256798 8.42296072508 398.465256798 8.42296072508 320 -8 c 1,43,-1
 320 -110 l 1,44,-1
 218 -110 l 1,0,-1
EndSplineSet
EndChar

StartChar: Euro
Encoding: 8364 8364 183
Width: 542
Flags: HMW
HStem: -6 124<261.5 330> 235 96<10 54 10 56 10 54 192 279 192 192> 400 96<10 59 10 54 196 279> 475 243<219 503 219 374> 594 124<265.5 330 219 334.5>
VStem: 56 133<235 400> 377 129<276 276>
LayerCount: 2
Fore
SplineSet
10 400 m 1,0,-1
 10 496 l 1,1,-1
 59 496 l 1,2,3
 73 606 73 606 128.5 662 c 128,-1,4
 184 718 184 718 290.5 718 c 128,-1,5
 397 718 397 718 459 640 c 1,6,7
 497 594 497 594 503 475 c 1,8,-1
 374 475 l 1,9,10
 373 482 373 482 370.5 503.5 c 128,-1,11
 368 525 368 525 366.5 532.5 c 128,-1,12
 365 540 365 540 360 555.5 c 128,-1,13
 355 571 355 571 348 577 c 0,14,15
 328.166666667 594 328.166666667 594 298 594 c 0,16,17
 214 594 214 594 196 496 c 1,18,-1
 279 496 l 1,19,-1
 279 400 l 1,20,-1
 189 400 l 1,21,-1
 189 331 l 1,22,-1
 279 331 l 1,23,-1
 279 235 l 1,24,-1
 192 235 l 1,25,26
 207 118 207 118 298 118 c 0,27,28
 358.864864865 118 358.864864865 118 370 169.5 c 0,29,30
 376 197.25 376 197.25 376 230.625 c 128,-1,31
 376 264 376 264 377 276 c 1,32,-1
 506 276 l 1,33,34
 504 221 504 221 502 197.5 c 128,-1,35
 500 174 500 174 489.5 135.5 c 128,-1,36
 479 97 479 97 459 72 c 0,37,38
 397 -6 397 -6 298 -6 c 0,39,40
 175 -6 175 -6 120 53 c 128,-1,41
 65 112 65 112 56 235 c 1,42,-1
 10 235 l 1,43,-1
 10 331 l 1,44,-1
 54 331 l 1,45,-1
 54 400 l 1,46,-1
 10 400 l 1,0,-1
EndSplineSet
EndChar

StartChar: sterling
Encoding: 163 163 184
Width: 579
Flags: HMW
HStem: 0 124<182 524 301 524 301 524> 297 100<40 101 40 101 239 352> 588 124<308 375>
VStem: 101 138<152.5 173 173 297 397 466>
LayerCount: 2
Fore
SplineSet
524 0 m 1,0,-1
 239 0 l 2,1,2
 156 0 156 0 128.5 31.5 c 128,-1,3
 101 63 101 63 101 150 c 2,4,-1
 101 297 l 1,5,-1
 40 297 l 1,6,-1
 40 397 l 1,7,-1
 101 397 l 1,8,-1
 101 472 l 2,9,10
 101 615 101 615 155.5 663.5 c 128,-1,11
 210 712 210 712 352 712 c 0,12,13
 410 712 410 712 452.5 695 c 128,-1,14
 495 678 495 678 534 639 c 1,15,-1
 443 548 l 1,16,17
 403 588 403 588 345.5 588 c 0,18,19
 288 588 288 588 263.5 559 c 128,-1,20
 239 530 239 530 239 466 c 2,21,-1
 239 397 l 1,22,-1
 352 397 l 1,23,-1
 352 297 l 1,24,-1
 239 297 l 1,25,-1
 239 173 l 2,26,27
 239 142 239 142 251 133 c 128,-1,28
 263 124 263 124 301 124 c 2,29,-1
 524 124 l 1,30,-1
 524 0 l 1,0,-1
EndSplineSet
EndChar

StartChar: florin
Encoding: 402 402 185
Width: 376
Flags: HMW
HStem: -169 21G<4 133 4 4> 417 99<24 99 9 114 244 335> 643 110<302 307 307 368>
LayerCount: 2
Fore
SplineSet
335 417 m 1,0,-1
 229 417 l 1,1,-1
 133 -169 l 1,2,-1
 4 -169 l 1,3,-1
 99 417 l 1,4,-1
 9 417 l 1,5,-1
 24 516 l 1,6,-1
 114 516 l 1,7,-1
 128 604 l 2,8,9
 138 666 138 666 183 709.5 c 128,-1,10
 228 753 228 753 302 753 c 2,11,-1
 386 753 l 1,12,-1
 368 643 l 1,13,-1
 307 643 l 2,14,15
 265 643 265 643 257 596 c 2,16,-1
 244 516 l 1,17,-1
 350 516 l 1,18,-1
 335 417 l 1,0,-1
EndSplineSet
EndChar

StartChar: yen
Encoding: 165 165 186
Width: 517
Flags: HMW
HStem: -1 21G<203 315 203 203> 96 95<126 203 126 203 315 395> 261 95<128 176 128 203 128 176 342 397> 692 20G<20 152 152 152 366 499 499 499>
VStem: 203 112<-1 96 -1 96 191 261>
LayerCount: 2
Fore
SplineSet
395 96 m 1,0,-1
 315 96 l 1,1,-1
 315 -1 l 1,2,-1
 203 -1 l 1,3,-1
 203 96 l 1,4,-1
 126 96 l 1,5,-1
 126 191 l 1,6,-1
 203 191 l 1,7,-1
 203 261 l 1,8,-1
 128 261 l 1,9,-1
 128 356 l 1,10,-1
 176 356 l 1,11,-1
 20 712 l 1,12,-1
 152 712 l 1,13,-1
 260 434 l 1,14,-1
 366 712 l 1,15,-1
 499 712 l 1,16,-1
 342 356 l 1,17,-1
 397 356 l 1,18,-1
 397 261 l 1,19,-1
 315 261 l 1,20,-1
 315 191 l 1,21,-1
 395 191 l 1,22,-1
 395 96 l 1,0,-1
EndSplineSet
EndChar

StartChar: Omega
Encoding: 937 937 187
AltUni2: 002126.ffffffff.0
Width: 657
Flags: HMW
HStem: 0 122<36 106 36 106 36 253 542 613> 594 124<257 386>
VStem: 39 139<358 375 358 390 358 498.5> 39 214 396 209 466 139<358 375 375 389 283 434.5>
LayerCount: 2
Fore
SplineSet
36 0 m 1,0,-1
 36 122 l 1,1,-1
 106 122 l 1,2,3
 39 198 39 198 39 358 c 2,4,-1
 39 390 l 2,5,6
 39 556 39 556 106.5 637 c 128,-1,7
 174 718 174 718 320.5 718 c 128,-1,8
 467 718 467 718 536 636 c 128,-1,9
 605 554 605 554 605 389 c 2,10,-1
 605 335 l 2,11,12
 605 191 605 191 542 122 c 1,13,-1
 613 122 l 1,14,-1
 613 0 l 1,15,-1
 396 0 l 1,16,17
 396.941176471 16.2352941176 396.941176471 16.2352941176 396.941176471 50.3823529412 c 128,-1,18
 396.941176471 84.5294117647 396.941176471 84.5294117647 387 135 c 1,19,20
 429 159 429 159 447.5 221.5 c 128,-1,21
 466 284 466 284 466 358 c 2,22,-1
 466 375 l 2,23,24
 466 471.428571429 466 471.428571429 442 528 c 0,25,26
 414 594 414 594 322 594 c 0,27,28
 229 594 229 594 201 528 c 0,29,30
 178 473.785714286 178 473.785714286 178 375 c 2,31,-1
 178 358 l 1,32,33
 180 170 180 170 262 131 c 1,34,35
 252.4 84.6 252.4 84.6 252.4 49.6 c 128,-1,36
 252.4 14.6 252.4 14.6 253 0 c 1,37,-1
 36 0 l 1,0,-1
EndSplineSet
EndChar

StartChar: product
Encoding: 8719 8719 188
Width: 833
Flags: HMW
HStem: -170 21G<83 222 83 83 463 602 463 463> 590 123<222 463 222 222>
VStem: 83 139<-170 590 -170 713 -170 713> 463 139<-170 590 590 590>
LayerCount: 2
Fore
SplineSet
602 -170 m 1,0,-1
 463 -170 l 1,1,-1
 463 590 l 1,2,-1
 222 590 l 1,3,-1
 222 -170 l 1,4,-1
 83 -170 l 1,5,-1
 83 713 l 1,6,-1
 602 713 l 1,7,-1
 602 -170 l 1,0,-1
EndSplineSet
EndChar

StartChar: pi
Encoding: 960 960 189
Width: 592
Flags: HMW
HStem: 0 21G<76 76 76 206 386 386 386 515> 399 122<15 25 25 76 206 206 206 386>
VStem: 76 130<0 399 0 399> 386 129<0 399 399 399>
LayerCount: 2
Fore
SplineSet
76 0 m 1,0,-1
 76 399 l 1,1,-1
 25 399 l 2,2,3
 0 399 0 399 0 430 c 2,4,-1
 0 521 l 1,5,-1
 515 521 l 1,6,-1
 515 0 l 1,7,-1
 386 0 l 1,8,-1
 386 399 l 1,9,-1
 206 399 l 1,10,-1
 206 0 l 1,11,-1
 76 0 l 1,0,-1
EndSplineSet
EndChar

StartChar: summation
Encoding: 8721 8721 190
Width: 569
Flags: HMW
HStem: -171 115<204 521 204 522> 597 115<202 510 202 202>
LayerCount: 2
Fore
SplineSet
522 -171 m 1,0,-1
 44 -171 l 1,1,-1
 43 -69 l 1,2,-1
 229 280 l 1,3,-1
 39 610 l 1,4,-1
 39 712 l 1,5,-1
 510 712 l 1,6,-1
 510 597 l 1,7,-1
 202 597 l 1,8,-1
 333 369 l 2,9,10
 356 330 356 330 356 286.5 c 0,11,12
 356 243 356 243 335 195 c 1,13,-1
 204 -56 l 1,14,-1
 521 -56 l 1,15,-1
 522 -171 l 1,0,-1
EndSplineSet
EndChar

StartChar: Delta
Encoding: 916 916 191
AltUni2: 002206.ffffffff.0
Width: 637
Flags: HMW
HStem: 0 117<186 450 186 631> 692 20G<301.5 332.5>
LayerCount: 2
Fore
SplineSet
631 0 m 1,0,-1
 3 0 l 1,1,-1
 240 657 l 1,2,3
 264 712 264 712 318 712 c 0,4,5
 372 712 372 712 392 658 c 2,6,-1
 631 0 l 1,0,-1
450 117 m 1,7,-1
 320 522 l 1,8,-1
 186 117 l 1,9,-1
 450 117 l 1,7,-1
EndSplineSet
EndChar

StartChar: mu
Encoding: 181 181 192
AltUni2: 0003bc.ffffffff.0
Width: 555
Flags: HMW
HStem: -140 21G<48 48 48 89> -26 20G<206.5 213> -20 20G<403 500 403 403> 551 20G<47 177 177 177 370 500 500 500>
VStem: 47 130<211 571> 370 130<184 571 0 571>
LayerCount: 2
Fore
SplineSet
48 -140 m 1,0,-1
 48 159 l 1,1,2
 47 168 47 168 47 188 c 2,3,-1
 47 571 l 1,4,-1
 177 571 l 1,5,-1
 177 211 l 1,6,7
 178 164 178 164 199 142.5 c 128,-1,8
 220 121 220 121 253 121 c 1,9,-1
 370 184 l 1,10,-1
 370 571 l 1,11,-1
 500 571 l 1,12,-1
 500 0 l 1,13,-1
 403 0 l 1,14,-1
 373 68 l 1,15,-1
 213 -6 l 1,16,17
 193.5 -6 193.5 -6 177 -3 c 1,18,-1
 177 -39 l 2,19,20
 177 -73 177 -73 149 -106.5 c 128,-1,21
 121 -140 121 -140 89 -140 c 2,22,-1
 48 -140 l 1,0,-1
EndSplineSet
EndChar

StartChar: infinity
Encoding: 8734 8734 193
Width: 729
Flags: HMW
HStem: 146 98<178.5 214 178.5 230.5 509 544.5> 375 99<509 544.5>
VStem: 45 96<288.5 329.5 288.5 354.5> 583 105<288.5 329.5>
LayerCount: 2
Fore
SplineSet
688 309 m 128,-1,1
 688 236 688 236 649 191 c 128,-1,2
 610 146 610 146 533 146 c 0,3,4
 437 146 437 146 366 227 c 1,5,6
 295 146 295 146 200 146 c 0,7,8
 123 146 123 146 84 191 c 128,-1,9
 45 236 45 236 45 309 c 128,-1,10
 45 382 45 382 84 428 c 128,-1,11
 123 474 123 474 200 474 c 0,12,13
 294 474 294 474 366 392 c 1,14,15
 438 474 438 474 533 474 c 0,16,17
 610 474 610 474 649 428 c 128,-1,0
 688 382 688 382 688 309 c 128,-1,1
583 309 m 128,-1,19
 583 340 583 340 568 357.5 c 128,-1,20
 553 375 553 375 527 375 c 0,21,22
 479 375 479 375 425 309 c 1,23,24
 479 244 479 244 527 244 c 0,25,26
 553 244 553 244 568 261 c 128,-1,18
 583 278 583 278 583 309 c 128,-1,19
298 309 m 1,27,28
 244 376 244 376 196 376 c 0,29,30
 170 376 170 376 155.5 358 c 128,-1,31
 141 340 141 340 141 309 c 128,-1,32
 141 278 141 278 155.5 261 c 128,-1,33
 170 244 170 244 196 244 c 0,34,35
 244 244 244 244 298 309 c 1,27,28
EndSplineSet
EndChar

StartChar: plus
Encoding: 43 43 194
Width: 543
Flags: HMW
HStem: 56 21G<211 333 211 211> 216 122<50 211 50 211 333 493> 478 20G<211 333 333 333>
VStem: 211 122<56 216 56 216 338 498>
LayerCount: 2
Fore
SplineSet
493 216 m 1,0,-1
 333 216 l 1,1,-1
 333 56 l 1,2,-1
 211 56 l 1,3,-1
 211 216 l 1,4,-1
 50 216 l 1,5,-1
 50 338 l 1,6,-1
 211 338 l 1,7,-1
 211 498 l 1,8,-1
 333 498 l 1,9,-1
 333 338 l 1,10,-1
 493 338 l 1,11,-1
 493 216 l 1,0,-1
EndSplineSet
EndChar

StartChar: minus
Encoding: 8722 8722 195
Width: 543
Flags: HMW
HStem: 225 121<50 493 50 493>
LayerCount: 2
Fore
SplineSet
493 225 m 1,0,-1
 50 225 l 1,1,-1
 50 346 l 1,2,-1
 493 346 l 1,3,-1
 493 225 l 1,0,-1
EndSplineSet
EndChar

StartChar: plusminus
Encoding: 177 177 196
Width: 543
Flags: HMW
HStem: 0 122<50 493 50 493> 341 121<50 211 50 211 333 493> 603 20G<211 333 333 333>
VStem: 211 122<180 341 180 341 462 623>
LayerCount: 2
Fore
SplineSet
493 341 m 1,0,-1
 333 341 l 1,1,-1
 333 180 l 1,2,-1
 211 180 l 1,3,-1
 211 341 l 1,4,-1
 50 341 l 1,5,-1
 50 462 l 1,6,-1
 211 462 l 1,7,-1
 211 623 l 1,8,-1
 333 623 l 1,9,-1
 333 462 l 1,10,-1
 493 462 l 1,11,-1
 493 341 l 1,0,-1
493 0 m 1,12,-1
 50 0 l 1,13,-1
 50 122 l 1,14,-1
 493 122 l 1,15,-1
 493 0 l 1,12,-1
EndSplineSet
EndChar

StartChar: multiply
Encoding: 215 215 197
Width: 543
Flags: HMW
HStem: 63 21G<131 131 412 412> 489 20G<131 131 412 412>
LayerCount: 2
Fore
SplineSet
494 145 m 1,0,-1
 412 63 l 1,1,-1
 271 204 l 1,2,-1
 131 63 l 1,3,-1
 49 145 l 1,4,-1
 190 286 l 1,5,-1
 49 427 l 1,6,-1
 131 509 l 1,7,-1
 271 368 l 1,8,-1
 412 509 l 1,9,-1
 494 427 l 1,10,-1
 353 286 l 1,11,-1
 494 145 l 1,0,-1
EndSplineSet
EndChar

StartChar: divide
Encoding: 247 247 198
Width: 543
Flags: HMW
HStem: 0 163<239.5 306.5> 225 121<46 497 46 497> 415 163<239.5 306.5>
VStem: 191 163<48.5 115.5 463.5 530.5>
LayerCount: 2
Fore
SplineSet
497 225 m 1,0,-1
 46 225 l 1,1,-1
 46 346 l 1,2,-1
 497 346 l 1,3,-1
 497 225 l 1,0,-1
354 497 m 128,-1,5
 354 447 354 447 338.5 431 c 128,-1,6
 323 415 323 415 273 415 c 128,-1,7
 223 415 223 415 207 431 c 128,-1,8
 191 447 191 447 191 497 c 128,-1,9
 191 547 191 547 207 562.5 c 128,-1,10
 223 578 223 578 273 578 c 128,-1,11
 323 578 323 578 338.5 562.5 c 128,-1,4
 354 547 354 547 354 497 c 128,-1,5
354 82 m 128,-1,13
 354 32 354 32 338.5 16 c 128,-1,14
 323 0 323 0 273 0 c 128,-1,15
 223 0 223 0 207 16 c 128,-1,16
 191 32 191 32 191 82 c 128,-1,17
 191 132 191 132 207 147.5 c 128,-1,18
 223 163 223 163 273 163 c 128,-1,19
 323 163 323 163 338.5 147.5 c 128,-1,12
 354 132 354 132 354 82 c 128,-1,13
EndSplineSet
EndChar

StartChar: equal
Encoding: 61 61 199
Width: 543
Flags: HMW
HStem: 116 122<50 493 50 493> 333 122<50 493 50 493>
LayerCount: 2
Fore
SplineSet
493 333 m 1,0,-1
 50 333 l 1,1,-1
 50 455 l 1,2,-1
 493 455 l 1,3,-1
 493 333 l 1,0,-1
493 116 m 1,4,-1
 50 116 l 1,5,-1
 50 238 l 1,6,-1
 493 238 l 1,7,-1
 493 116 l 1,4,-1
EndSplineSet
EndChar

StartChar: notequal
Encoding: 8800 8800 200
Width: 602
Flags: HMW
HStem: -13 21G<129 129> 116 122<50 105 50 199 326 552 50 232> 333 122<50 277 50 370 50 404 497 552> 564 20G<473 473>
LayerCount: 2
Fore
SplineSet
552 116 m 1,0,-1
 232 116 l 1,1,-1
 129 -13 l 1,2,-1
 50 49 l 1,3,-1
 105 116 l 1,4,-1
 50 116 l 1,5,-1
 50 238 l 1,6,-1
 199 238 l 1,7,-1
 277 333 l 1,8,-1
 50 333 l 1,9,-1
 50 455 l 1,10,-1
 370 455 l 1,11,-1
 473 584 l 1,12,-1
 552 522 l 1,13,-1
 497 455 l 1,14,-1
 552 455 l 1,15,-1
 552 333 l 1,16,-1
 404 333 l 1,17,-1
 326 238 l 1,18,-1
 552 238 l 1,19,-1
 552 116 l 1,0,-1
EndSplineSet
EndChar

StartChar: less
Encoding: 60 60 201
Width: 507
Flags: HMW
HStem: 40 21G<441 441> 503 20G<441 441>
LayerCount: 2
Fore
SplineSet
441 170 m 1,0,-1
 441 40 l 1,1,-1
 56 229 l 1,2,-1
 56 335 l 1,3,-1
 441 523 l 1,4,-1
 441 393 l 1,5,-1
 189 281 l 1,6,-1
 441 170 l 1,0,-1
EndSplineSet
EndChar

StartChar: greater
Encoding: 62 62 202
Width: 494
Flags: HMW
HStem: 40 21G<56 56> 503 20G<56 56>
LayerCount: 2
Fore
SplineSet
56 40 m 1,0,-1
 56 170 l 1,1,-1
 308 281 l 1,2,-1
 56 393 l 1,3,-1
 56 523 l 1,4,-1
 441 335 l 1,5,-1
 441 229 l 1,6,-1
 56 40 l 1,0,-1
EndSplineSet
EndChar

StartChar: partialdiff
Encoding: 8706 8706 203
Width: 555
Flags: HMW
HStem: -6 127<233 272 233 308> 400 117 621 116<243 286.5>
VStem: 44 130<210.5 292.5 210.5 310> 371 130<152 370 370 370 109 519>
LayerCount: 2
Fore
SplineSet
280.784722222 400.25 m 0,0,1
 174 400.25 174 400.25 174 255 c 0,2,3
 174 185 174 185 195 153 c 128,-1,4
 216 121 216 121 272 121 c 1,5,6
 277 122 277 122 290 123 c 128,-1,7
 303 124 303 124 307 124.5 c 128,-1,8
 311 125 311 125 321 127 c 128,-1,9
 331 129 331 129 335.5 130.5 c 128,-1,10
 340 132 340 132 347.5 135 c 0,11,12
 358.333333333 139.333333333 358.333333333 139.333333333 371 152 c 1,13,-1
 371 370 l 1,14,15
 328.833333333 400.25 328.833333333 400.25 280.784722222 400.25 c 0,0,1
371 487 m 1,16,17
 371 540 371 540 337.5 580.5 c 128,-1,18
 304 621 304 621 245 621 c 0,19,20
 206 621 206 621 157 609 c 1,21,-1
 112 716 l 1,22,23
 207 737 207 737 267 737 c 0,24,25
 378 737 378 737 439.5 668 c 128,-1,26
 501 599 501 599 501 430 c 2,27,-1
 501 109 l 1,28,29
 400 -6 400 -6 274 -6 c 128,-1,30
 148 -6 148 -6 96 63.5 c 128,-1,31
 44 133 44 133 44 255 c 0,32,33
 44 350.842105263 44 350.842105263 78 426 c 0,34,35
 97 468 97 468 136.5 492.5 c 128,-1,36
 176 517 176 517 249.5 517 c 128,-1,37
 323 517 323 517 371 487 c 1,16,17
EndSplineSet
EndChar

StartChar: logicalnot
Encoding: 172 172 204
Width: 543
Flags: HMW
HStem: 90 21G<376 497 376 376> 245 115<56 376 56 497>
VStem: 376 121<90 245 245 245>
LayerCount: 2
Fore
SplineSet
497 90 m 1,0,-1
 376 90 l 1,1,-1
 376 245 l 1,2,-1
 56 245 l 1,3,-1
 56 360 l 1,4,-1
 497 360 l 1,5,-1
 497 90 l 1,0,-1
EndSplineSet
EndChar

StartChar: radical
Encoding: 8730 8730 205
Width: 691
Flags: HMW
HStem: 0 21G<175 280 175 175> 588 124<462 647 462 462>
LayerCount: 2
Fore
SplineSet
647 588 m 1,0,-1
 462 588 l 1,1,-1
 280 0 l 1,2,-1
 175 0 l 1,3,-1
 34 392 l 1,4,-1
 175 392 l 1,5,-1
 228 228 l 1,6,-1
 361 712 l 1,7,-1
 647 712 l 1,8,-1
 647 588 l 1,0,-1
EndSplineSet
EndChar

StartChar: integral
Encoding: 8747 8747 206
Width: 480
Flags: HMW
HStem: -186 110<57 106 106 128.5 57 142 57 106> 615 110<361.5 384 384 433>
VStem: 177 136<-16 -15 -15 553 553 554>
LayerCount: 2
Fore
SplineSet
433 615 m 1,0,-1
 384 615 l 2,1,2
 348 615 348 615 330.5 601.5 c 128,-1,3
 313 588 313 588 313 554 c 2,4,-1
 313 -15 l 2,5,6
 313 -186 313 -186 142 -186 c 2,7,-1
 57 -186 l 1,8,-1
 57 -76 l 1,9,-1
 106 -76 l 2,10,11
 142 -76 142 -76 159.5 -63 c 128,-1,12
 177 -50 177 -50 177 -16 c 2,13,-1
 177 553 l 2,14,15
 177 725 177 725 348 725 c 2,16,-1
 433 725 l 1,17,-1
 433 615 l 1,0,-1
EndSplineSet
EndChar

StartChar: approxequal
Encoding: 8776 8776 207
Width: 606
Flags: HMW
HStem: 81 126<386.5 414.5 386.5 435.5> 139 125<193.5 221.5> 307 125<384.5 412.5 384.5 434.5> 364 126<191.5 219.5>
LayerCount: 2
Fore
SplineSet
486 475 m 1,0,-1
 569 393 l 1,1,2
 522 346 522 346 485.5 326.5 c 128,-1,3
 449 307 449 307 399 307 c 0,4,5
 349 307 349 307 295 335.5 c 0,6,7
 241 364 241 364 201 364 c 0,8,9
 161 364 161 364 119 322 c 1,10,-1
 37 404 l 1,11,12
 85 452 85 452 120.5 471 c 128,-1,13
 156 490 156 490 206 490 c 0,14,15
 256 490 256 490 311 461 c 0,16,17
 366 432 366 432 404.5 432 c 0,18,19
 443 432 443 432 486 475 c 1,0,-1
487 249 m 1,20,-1
 569 167 l 1,21,22
 521 119 521 119 485.5 100 c 128,-1,23
 450 81 450 81 400 81 c 0,24,25
 350 81 350 81 295 110 c 0,26,27
 240 139 240 139 201.5 139 c 0,28,29
 163 139 163 139 120 96 c 1,30,-1
 37 178 l 1,31,32
 84 225 84 225 121 244.5 c 128,-1,33
 158 264 158 264 207.5 264 c 0,34,35
 257 264 257 264 311 235.5 c 0,36,37
 365 207 365 207 405 207 c 0,38,39
 445 207 445 207 487 249 c 1,20,-1
EndSplineSet
EndChar

StartChar: lessequal
Encoding: 8804 8804 208
Width: 544
Flags: HMW
HStem: 0 122<50 493 50 493> 600 20G<445 445>
LayerCount: 2
Fore
SplineSet
445 287 m 1,0,-1
 445 157 l 1,1,-1
 60 336 l 1,2,-1
 60 442 l 1,3,-1
 445 620 l 1,4,-1
 445 490 l 1,5,-1
 193 388 l 1,6,-1
 445 287 l 1,0,-1
493 0 m 1,7,-1
 50 0 l 1,8,-1
 50 122 l 1,9,-1
 493 122 l 1,10,-1
 493 0 l 1,7,-1
EndSplineSet
EndChar

StartChar: greaterequal
Encoding: 8805 8805 209
Width: 550
Flags: HMW
HStem: 0 122<50 493 50 493> 600 20G<98 98>
LayerCount: 2
Fore
SplineSet
98 157 m 1,0,-1
 98 287 l 1,1,-1
 350 388 l 1,2,-1
 98 490 l 1,3,-1
 98 620 l 1,4,-1
 483 442 l 1,5,-1
 483 336 l 1,6,-1
 98 157 l 1,0,-1
493 0 m 1,7,-1
 50 0 l 1,8,-1
 50 122 l 1,9,-1
 493 122 l 1,10,-1
 493 0 l 1,7,-1
EndSplineSet
EndChar

StartChar: lozenge
Encoding: 9674 9674 210
Width: 634
Flags: HMW
HStem: -20 21G<306.5 327.5> 700 20G<307 331>
LayerCount: 2
Fore
SplineSet
581 351 m 1,0,-1
 381 21 l 1,1,2
 349 -20 349 -20 317 -20 c 128,-1,3
 285 -20 285 -20 256 21 c 1,4,-1
 55 351 l 1,5,-1
 248 678 l 1,6,7
 282 720 282 720 319 720 c 128,-1,8
 356 720 356 720 389 678 c 1,9,-1
 581 351 l 1,0,-1
435 351 m 1,10,-1
 318 575 l 1,11,-1
 201 351 l 1,12,-1
 318 136 l 1,13,-1
 435 351 l 1,10,-1
EndSplineSet
EndChar

StartChar: period
Encoding: 46 46 211
Width: 295
Flags: HMW
HStem: -13 163<111.5 178.5>
VStem: 63 163<35.5 102.5>
LayerCount: 2
Fore
SplineSet
226 69 m 128,-1,1
 226 19 226 19 210.5 3 c 128,-1,2
 195 -13 195 -13 145 -13 c 128,-1,3
 95 -13 95 -13 79 3 c 128,-1,4
 63 19 63 19 63 69 c 128,-1,5
 63 119 63 119 79 134.5 c 128,-1,6
 95 150 95 150 145 150 c 128,-1,7
 195 150 195 150 210.5 134.5 c 128,-1,0
 226 119 226 119 226 69 c 128,-1,1
EndSplineSet
EndChar

StartChar: comma
Encoding: 44 44 212
Width: 279
Flags: HMW
HStem: -165 21G<68 68> 122 20G<68 211 211 211>
VStem: 68 143<-15.5 37 37 142 -15.5 142>
LayerCount: 2
Fore
SplineSet
211 142 m 1,0,-1
 211 37 l 2,1,2
 211 -34 211 -34 165.5 -89.5 c 128,-1,3
 120 -145 120 -145 68 -165 c 1,4,-1
 68 142 l 1,5,-1
 211 142 l 1,0,-1
EndSplineSet
EndChar

StartChar: colon
Encoding: 58 58 213
Width: 319
Flags: HMW
HStem: -13 163<139.5 206.5> 265 163<137.5 204.5>
VStem: 91 163<35.5 102.5>
LayerCount: 2
Fore
SplineSet
254 69 m 128,-1,1
 254 19 254 19 238.5 3 c 128,-1,2
 223 -13 223 -13 173 -13 c 128,-1,3
 123 -13 123 -13 107 3 c 128,-1,4
 91 19 91 19 91 69 c 128,-1,5
 91 119 91 119 107 134.5 c 128,-1,6
 123 150 123 150 173 150 c 128,-1,7
 223 150 223 150 238.5 134.5 c 128,-1,0
 254 119 254 119 254 69 c 128,-1,1
252 347 m 128,-1,9
 252 297 252 297 236.5 281 c 128,-1,10
 221 265 221 265 171 265 c 128,-1,11
 121 265 121 265 105 281 c 128,-1,12
 89 297 89 297 89 347 c 128,-1,13
 89 397 89 397 105 412.5 c 128,-1,14
 121 428 121 428 171 428 c 128,-1,15
 221 428 221 428 236.5 412.5 c 128,-1,8
 252 397 252 397 252 347 c 128,-1,9
EndSplineSet
EndChar

StartChar: semicolon
Encoding: 59 59 214
Width: 309
Flags: HMW
HStem: -165 21G<102 102> 142 123<137.5 204.5 137.5 245 137.5 245> 265 163<137.5 204.5>
VStem: 89 156 102 143<-15.5 37 37 142 -15.5 142>
LayerCount: 2
Fore
SplineSet
245 142 m 1,0,-1
 245 37 l 2,1,2
 245 -34 245 -34 199.5 -89.5 c 128,-1,3
 154 -145 154 -145 102 -165 c 1,4,-1
 102 142 l 1,5,-1
 245 142 l 1,0,-1
252 347 m 128,-1,7
 252 297 252 297 236.5 281 c 128,-1,8
 221 265 221 265 171 265 c 128,-1,9
 121 265 121 265 105 281 c 128,-1,10
 89 297 89 297 89 347 c 128,-1,11
 89 397 89 397 105 412.5 c 128,-1,12
 121 428 121 428 171 428 c 128,-1,13
 221 428 221 428 236.5 412.5 c 128,-1,6
 252 397 252 397 252 347 c 128,-1,7
EndSplineSet
EndChar

StartChar: ellipsis
Encoding: 8230 8230 215
Width: 885
Flags: HMW
HStem: -13 163<111.5 178.5 371.5 438.5 629.5 696.5>
VStem: 63 163<35.5 102.5> 323 163<35.5 102.5> 581 163<35.5 102.5>
LayerCount: 2
Fore
SplineSet
226 69 m 128,-1,1
 226 19 226 19 210.5 3 c 128,-1,2
 195 -13 195 -13 145 -13 c 128,-1,3
 95 -13 95 -13 79 3 c 128,-1,4
 63 19 63 19 63 69 c 128,-1,5
 63 119 63 119 79 134.5 c 128,-1,6
 95 150 95 150 145 150 c 128,-1,7
 195 150 195 150 210.5 134.5 c 128,-1,0
 226 119 226 119 226 69 c 128,-1,1
486 69 m 128,-1,9
 486 19 486 19 470.5 3 c 128,-1,10
 455 -13 455 -13 405 -13 c 128,-1,11
 355 -13 355 -13 339 3 c 128,-1,12
 323 19 323 19 323 69 c 128,-1,13
 323 119 323 119 339 134.5 c 128,-1,14
 355 150 355 150 405 150 c 128,-1,15
 455 150 455 150 470.5 134.5 c 128,-1,8
 486 119 486 119 486 69 c 128,-1,9
744 69 m 128,-1,17
 744 19 744 19 728.5 3 c 128,-1,18
 713 -13 713 -13 663 -13 c 128,-1,19
 613 -13 613 -13 597 3 c 128,-1,20
 581 19 581 19 581 69 c 128,-1,21
 581 119 581 119 597 134.5 c 128,-1,22
 613 150 613 150 663 150 c 128,-1,23
 713 150 713 150 728.5 134.5 c 128,-1,16
 744 119 744 119 744 69 c 128,-1,17
EndSplineSet
EndChar

StartChar: periodcentered
Encoding: 183 183 216
Width: 295
Flags: HMW
HStem: 208 163<111.5 178.5>
VStem: 63 163<256.5 323.5>
LayerCount: 2
Fore
SplineSet
226 290 m 128,-1,1
 226 240 226 240 210.5 224 c 128,-1,2
 195 208 195 208 145 208 c 128,-1,3
 95 208 95 208 79 224 c 128,-1,4
 63 240 63 240 63 290 c 128,-1,5
 63 340 63 340 79 355.5 c 128,-1,6
 95 371 95 371 145 371 c 128,-1,7
 195 371 195 371 210.5 355.5 c 128,-1,0
 226 340 226 340 226 290 c 128,-1,1
EndSplineSet
EndChar

StartChar: exclamdown
Encoding: 161 161 217
Width: 347
Flags: HMW
HStem: -170 21G<103 264 103 103> 391 163<148.5 215.5>
VStem: 100 163<439.5 506.5> 117 132 132 131
LayerCount: 2
Fore
SplineSet
234 262 m 1,0,-1
 264 -170 l 1,1,-1
 103 -170 l 1,2,-1
 132 262 l 1,3,4
 132 289 132 289 146.5 305 c 128,-1,5
 161 321 161 321 179.5 321 c 0,6,7
 198 321 198 321 214 305.5 c 128,-1,8
 230 290 230 290 234 262 c 1,0,-1
263 473 m 128,-1,10
 263 423 263 423 247.5 407 c 128,-1,11
 232 391 232 391 182 391 c 128,-1,12
 132 391 132 391 116 407 c 128,-1,13
 100 423 100 423 100 473 c 128,-1,14
 100 523 100 523 116 538.5 c 128,-1,15
 132 554 132 554 182 554 c 128,-1,16
 232 554 232 554 247.5 538.5 c 128,-1,9
 263 523 263 523 263 473 c 128,-1,10
EndSplineSet
EndChar

